ExpletusSans-Regular.ufo
<glyph name="exclam" format="1">
  <advance width="351"/>
  <unicode hex="0021"/>
  <outline>
    <contour>
      <point x="164" y="727" type="line"/>
      <point x="150" y="185" type="line"/>
      <point x="82" y="185" type="line"/>
      <point x="70" y="727" type="line"/>
    </contour>
    <contour>
      <point x="56" y="44" type="curve" smooth="yes"/>
      <point x="56" y="79"/>
      <point x="81" y="105"/>
      <point x="115" y="105" type="curve" smooth="yes"/>
      <point x="150" y="105"/>
      <point x="176" y="79"/>
      <point x="176" y="44" type="curve" smooth="yes"/>
      <point x="176" y="10"/>
      <point x="150" y="-15"/>
      <point x="115" y="-15" type="curve" smooth="yes"/>
      <point x="81" y="-15"/>
      <point x="56" y="10"/>
    </contour>
  </outline>
</glyph>
<glyph name="numbersign" format="1">
  <advance width="894"/>
  <unicode hex="0023"/>
  <outline>
    <contour>
      <point x="501" y="165" type="line" name="hr09"/>
      <point x="306" y="165" type="line" name="hr08"/>
      <point x="319" y="203"/>
      <point x="343" y="230"/>
      <point x="390" y="230" type="curve" smooth="yes"/>
      <point x="513" y="230" type="line"/>
      <point x="559" y="474" type="line"/>
      <point x="329" y="474" type="line"/>
      <point x="239" y="0" type="line"/>
      <point x="163" y="0" type="line" name="hr07"/>
      <point x="194" y="165" type="line"/>
      <point x="82" y="165" type="line" name="hr06"/>
      <point x="82" y="230" type="line"/>
      <point x="206" y="230" type="line"/>
      <point x="252" y="474" type="line"/>
      <point x="141" y="474" type="line"/>
      <point x="141" y="539" type="line"/>
      <point x="265" y="539" type="line" name="hr05"/>
      <point x="296" y="702" type="line"/>
      <point x="372" y="702" type="line" name="hr04"/>
      <point x="341" y="539" type="line"/>
      <point x="572" y="539" type="line" name="hr03"/>
      <point x="603" y="702" type="line"/>
      <point x="679" y="702" type="line" name="hr02"/>
      <point x="648" y="539" type="line"/>
      <point x="757" y="539" type="line"/>
      <point x="757" y="474" type="line"/>
      <point x="636" y="474" type="line"/>
      <point x="589" y="230" type="line"/>
      <point x="698" y="230" type="line"/>
      <point x="698" y="165" type="line"/>
      <point x="577" y="165" type="line" name="hr01"/>
      <point x="546" y="0" type="line"/>
      <point x="470" y="0" type="line"/>
    </contour>
  </outline>
</glyph>
<glyph name="dollar" format="1">
  <advance width="514"/>
  <unicode hex="0024"/>
  <outline>
    <contour>
      <point x="260" y="638" type="curve" smooth="yes"/>
      <point x="193" y="638"/>
      <point x="152" y="594"/>
      <point x="152" y="544" type="curve" smooth="yes"/>
      <point x="152" y="392"/>
      <point x="474" y="395"/>
      <point x="474" y="176" type="curve" smooth="yes"/>
      <point x="474" y="96"/>
      <point x="412" y="14"/>
      <point x="299" y="-6" type="curve"/>
      <point x="299" y="-107" type="line"/>
      <point x="227" y="-107" type="line" name="hr01"/>
      <point x="227" y="-11" type="line"/>
      <point x="172" y="-8"/>
      <point x="107" y="5"/>
      <point x="45" y="36" type="curve"/>
      <point x="71" y="101" type="line"/>
      <point x="133" y="73"/>
      <point x="187" y="62"/>
      <point x="235" y="62" type="curve" smooth="yes"/>
      <point x="321" y="62"/>
      <point x="376" y="117"/>
      <point x="376" y="178" type="curve" smooth="yes"/>
      <point x="376" y="344"/>
      <point x="57" y="326"/>
      <point x="57" y="544" type="curve" smooth="yes"/>
      <point x="57" y="630"/>
      <point x="126" y="701"/>
      <point x="227" y="711" type="curve"/>
      <point x="227" y="810" type="line"/>
      <point x="299" y="810" type="line"/>
      <point x="299" y="709" type="line"/>
      <point x="337" y="705"/>
      <point x="374" y="696"/>
      <point x="424" y="681" type="curve"/>
      <point x="396" y="616" type="line"/>
      <point x="338" y="633"/>
      <point x="298" y="638"/>
    </contour>
  </outline>
</glyph>
<glyph name="percent" format="1">
  <advance width="814"/>
  <unicode hex="0025"/>
  <outline>
    <contour>
      <point x="596" y="702" type="line"/>
      <point x="666" y="702" type="line"/>
      <point x="228" y="0" type="line"/>
      <point x="158" y="0" type="line"/>
    </contour>
    <contour>
      <point x="350" y="513" type="curve"/>
      <point x="350" y="384"/>
      <point x="283" y="309"/>
      <point x="190" y="309" type="curve" smooth="yes"/>
      <point x="95" y="309"/>
      <point x="29" y="383"/>
      <point x="29" y="513" type="curve"/>
      <point x="29" y="642"/>
      <point x="95" y="717"/>
      <point x="190" y="717" type="curve"/>
      <point x="283" y="717"/>
      <point x="350" y="642"/>
    </contour>
    <contour>
      <point x="265" y="513" type="curve"/>
      <point x="265" y="610"/>
      <point x="237" y="657"/>
      <point x="190" y="657" type="curve"/>
      <point x="143" y="657"/>
      <point x="114" y="610"/>
      <point x="114" y="513" type="curve"/>
      <point x="114" y="415"/>
      <point x="143" y="369"/>
      <point x="190" y="369" type="curve" smooth="yes"/>
      <point x="237" y="369"/>
      <point x="265" y="415"/>
    </contour>
    <contour>
      <point x="795" y="191" type="curve" smooth="yes"/>
      <point x="795" y="62"/>
      <point x="728" y="-13"/>
      <point x="634" y="-13" type="curve" smooth="yes"/>
      <point x="540" y="-13"/>
      <point x="474" y="61"/>
      <point x="474" y="191" type="curve" smooth="yes"/>
      <point x="474" y="319"/>
      <point x="540" y="394"/>
      <point x="634" y="394" type="curve" smooth="yes" name="hr01"/>
      <point x="728" y="394"/>
      <point x="795" y="319"/>
    </contour>
    <contour>
      <point x="710" y="191" type="curve" smooth="yes"/>
      <point x="710" y="287"/>
      <point x="682" y="335"/>
      <point x="634" y="335" type="curve" smooth="yes"/>
      <point x="588" y="335"/>
      <point x="559" y="287"/>
      <point x="559" y="191" type="curve" smooth="yes"/>
      <point x="559" y="93"/>
      <point x="588" y="46"/>
      <point x="634" y="46" type="curve" smooth="yes"/>
      <point x="682" y="46"/>
      <point x="710" y="93"/>
    </contour>
  </outline>
</glyph>
<glyph name="ampersand" format="1">
  <advance width="761"/>
  <unicode hex="0026"/>
  <outline>
    <contour>
      <point x="397" y="70" type="curve" smooth="yes"/>
      <point x="439" y="84"/>
      <point x="476" y="78"/>
      <point x="507" y="51" type="curve"/>
      <point x="460" y="13"/>
      <point x="408" y="-11"/>
      <point x="335" y="-11" type="curve" smooth="yes"/>
      <point x="200" y="-11"/>
      <point x="123" y="98"/>
      <point x="123" y="209" type="curve" smooth="yes" name="hr02"/>
      <point x="123" y="300"/>
      <point x="179" y="367"/>
      <point x="244" y="416" type="curve"/>
      <point x="209" y="467"/>
      <point x="190" y="516"/>
      <point x="190" y="562" type="curve" smooth="yes"/>
      <point x="190" y="661"/>
      <point x="262" y="737"/>
      <point x="384" y="737" type="curve" smooth="yes"/>
      <point x="428" y="737"/>
      <point x="483" y="726"/>
      <point x="527" y="703" type="curve"/>
      <point x="503" y="640" type="line"/>
      <point x="468" y="657"/>
      <point x="418" y="665"/>
      <point x="382" y="665" type="curve" smooth="yes"/>
      <point x="320" y="665"/>
      <point x="275" y="625"/>
      <point x="275" y="571" type="curve" smooth="yes"/>
      <point x="275" y="510"/>
      <point x="310" y="470"/>
      <point x="365" y="404" type="curve"/>
      <point x="536" y="205" type="line"/>
      <point x="569" y="263"/>
      <point x="587" y="314"/>
      <point x="597" y="379" type="curve"/>
      <point x="669" y="379" type="line"/>
      <point x="651" y="291"/>
      <point x="627" y="213"/>
      <point x="586" y="146" type="curve"/>
      <point x="712" y="0" type="line"/>
      <point x="594" y="0" type="line" name="hr01"/>
      <point x="289" y="358" type="line"/>
      <point x="249" y="324"/>
      <point x="220" y="282"/>
      <point x="220" y="222" type="curve" smooth="yes"/>
      <point x="220" y="126"/>
      <point x="267" y="61"/>
      <point x="350" y="61" type="curve" smooth="yes"/>
      <point x="364" y="61"/>
      <point x="378" y="64"/>
    </contour>
  </outline>
</glyph>
<glyph name="quotesingle" format="1">
  <advance width="191"/>
  <unicode hex="0027"/>
  <outline>
    <contour>
      <point x="54" y="727" type="line" name="hr00"/>
      <point x="136" y="727" type="line"/>
      <point x="136" y="649" type="line" smooth="yes"/>
      <point x="136" y="596"/>
      <point x="125" y="514"/>
      <point x="54" y="531" type="curve"/>
    </contour>
  </outline>
</glyph>
<glyph name="parenleft" format="1">
  <advance width="403"/>
  <unicode hex="0028"/>
  <outline>
    <contour>
      <point x="262" y="296" type="curve" name="hr00"/>
      <point x="262" y="74"/>
      <point x="269" y="-21"/>
      <point x="403" y="-126" type="curve"/>
      <point x="364" y="-176" type="line"/>
      <point x="210" y="-72"/>
      <point x="181" y="46"/>
      <point x="181" y="296" type="curve"/>
      <point x="181" y="545"/>
      <point x="210" y="663"/>
      <point x="364" y="767" type="curve"/>
      <point x="403" y="717" type="line"/>
      <point x="269" y="612"/>
      <point x="262" y="517"/>
    </contour>
  </outline>
</glyph>
<glyph name="parenright" format="1">
  <advance width="401"/>
  <unicode hex="0029"/>
  <outline>
    <contour>
      <point x="143" y="296" type="curve" name="hr00"/>
      <point x="143" y="517"/>
      <point x="136" y="612"/>
      <point x="2" y="717" type="curve"/>
      <point x="41" y="767" type="line"/>
      <point x="195" y="663"/>
      <point x="224" y="545"/>
      <point x="224" y="296" type="curve"/>
      <point x="224" y="46"/>
      <point x="195" y="-72"/>
      <point x="41" y="-176" type="curve"/>
      <point x="2" y="-126" type="line"/>
      <point x="136" y="-21"/>
      <point x="143" y="74"/>
    </contour>
  </outline>
</glyph>
<glyph name="asterisk" format="1">
  <advance width="530"/>
  <unicode hex="002A"/>
  <outline>
    <contour>
      <point x="319" y="737" type="line" name="hr00"/>
      <point x="385" y="699" type="line"/>
      <point x="301" y="589"/>
      <point x="290" y="569"/>
      <point x="289" y="568" type="curve"/>
      <point x="450" y="584" type="line"/>
      <point x="450" y="508" type="line"/>
      <point x="288" y="526"/>
      <point x="286" y="523"/>
      <point x="288" y="523" type="curve"/>
      <point x="383" y="392" type="line"/>
      <point x="317" y="354" type="line"/>
      <point x="251" y="502" type="line"/>
      <point x="184" y="354" type="line"/>
      <point x="118" y="392" type="line"/>
      <point x="212" y="524" type="line"/>
      <point x="51" y="508" type="line"/>
      <point x="51" y="584" type="line"/>
      <point x="213" y="569" type="line"/>
      <point x="116" y="699" type="line"/>
      <point x="182" y="737" type="line"/>
      <point x="251" y="590" type="line"/>
    </contour>
  </outline>
</glyph>
<glyph name="comma" format="1">
  <advance width="197"/>
  <unicode hex="002C"/>
  <outline>
    <contour>
      <point x="56" y="98" type="line" name="hr00"/>
      <point x="143" y="98" type="line"/>
      <point x="143" y="20" type="line" smooth="yes"/>
      <point x="143" y="-33"/>
      <point x="127" y="-115"/>
      <point x="56" y="-98" type="curve"/>
    </contour>
  </outline>
</glyph>
<glyph name="period" format="1">
  <advance width="306"/>
  <unicode hex="002E"/>
  <outline>
    <contour>
      <point x="93" y="44" type="curve" smooth="yes" name="hr00"/>
      <point x="93" y="79"/>
      <point x="118" y="105"/>
      <point x="152" y="105" type="curve" smooth="yes"/>
      <point x="187" y="105"/>
      <point x="213" y="79"/>
      <point x="213" y="44" type="curve" smooth="yes"/>
      <point x="213" y="10"/>
      <point x="187" y="-15"/>
      <point x="152" y="-15" type="curve" smooth="yes"/>
      <point x="118" y="-15"/>
      <point x="93" y="10"/>
    </contour>
  </outline>
</glyph>
<glyph name="slash" format="1">
  <advance width="332"/>
  <unicode hex="002F"/>
  <outline>
    <contour>
      <point x="10" y="-62" type="line" name="hr00"/>
      <point x="253" y="727" type="line"/>
      <point x="332" y="727" type="line"/>
      <point x="89" y="-62" type="line"/>
    </contour>
  </outline>
</glyph>
<glyph name="zero" format="1">
  <advance width="661"/>
  <unicode hex="0030"/>
  <outline>
    <contour>
      <point x="329" y="-16" type="curve" name="hr00"/>
      <point x="207" y="-16"/>
      <point x="58" y="180"/>
      <point x="58" y="349" type="qcurve"/>
      <point x="58" y="571"/>
      <point x="163" y="716"/>
      <point x="328" y="716" type="curve"/>
      <point x="493" y="716"/>
      <point x="599" y="572"/>
      <point x="599" y="349" type="curve"/>
      <point x="599" y="107"/>
      <point x="476" y="-16"/>
    </contour>
    <contour>
      <point x="501" y="349" type="curve"/>
      <point x="501" y="533"/>
      <point x="436" y="644"/>
      <point x="329" y="644" type="curve"/>
      <point x="221" y="644"/>
      <point x="156" y="533"/>
      <point x="156" y="349" type="curve"/>
      <point x="156" y="165"/>
      <point x="221" y="56"/>
      <point x="329" y="56" type="curve" smooth="yes"/>
      <point x="436" y="56"/>
      <point x="501" y="165"/>
    </contour>
  </outline>
</glyph>
<glyph name="one" format="1">
  <advance width="319"/>
  <unicode hex="0031"/>
  <outline>
    <contour>
      <point x="144" y="0" type="line" name="hr00"/>
      <point x="144" y="587" type="line"/>
      <point x="30" y="526" type="line"/>
      <point x="-5" y="589" type="line"/>
      <point x="203" y="701" type="line"/>
      <point x="240" y="701" type="line"/>
      <point x="240" y="0" type="line"/>
    </contour>
  </outline>
</glyph>
<glyph name="two" format="1">
  <advance width="514"/>
  <unicode hex="0032"/>
  <outline>
    <contour>
      <point x="470" y="530" type="curve" smooth="yes" name="hr00"/>
      <point x="470" y="370"/>
      <point x="264" y="223"/>
      <point x="183" y="93" type="curve"/>
      <point x="168" y="76" type="line"/>
      <point x="190" y="80" type="line"/>
      <point x="482" y="80" type="line"/>
      <point x="482" y="0" type="line"/>
      <point x="57" y="0" type="line"/>
      <point x="57" y="38" type="line"/>
      <point x="189" y="254"/>
      <point x="373" y="387"/>
      <point x="373" y="519" type="curve"/>
      <point x="373" y="594"/>
      <point x="313" y="638"/>
      <point x="243" y="638" type="curve"/>
      <point x="206" y="638"/>
      <point x="164" y="631"/>
      <point x="110" y="602" type="curve"/>
      <point x="85" y="669" type="line"/>
      <point x="146" y="702"/>
      <point x="200" y="710"/>
      <point x="254" y="710" type="curve" smooth="yes"/>
      <point x="374" y="710"/>
      <point x="470" y="645"/>
    </contour>
  </outline>
</glyph>
<glyph name="three" format="1">
  <advance width="528"/>
  <unicode hex="0033"/>
  <outline>
    <contour>
      <point x="425" y="554" type="curve" smooth="yes" name="hr02"/>
      <point x="425" y="490"/>
      <point x="387" y="431"/>
      <point x="324" y="397" type="curve"/>
      <point x="299" y="389" type="line"/>
      <point x="321" y="384" type="line"/>
      <point x="385" y="361"/>
      <point x="448" y="298"/>
      <point x="448" y="207" type="curve" smooth="yes"/>
      <point x="448" y="92"/>
      <point x="345" y="-11"/>
      <point x="201" y="-11" type="curve" smooth="yes"/>
      <point x="125" y="-11"/>
      <point x="63" y="15"/>
      <point x="30" y="36" type="curve"/>
      <point x="53" y="101" type="line"/>
      <point x="80" y="84"/>
      <point x="137" y="62"/>
      <point x="200" y="62" type="curve" smooth="yes"/>
      <point x="301" y="62"/>
      <point x="350" y="146"/>
      <point x="350" y="209" type="curve" smooth="yes" name="hr01"/>
      <point x="350" y="309"/>
      <point x="269" y="338"/>
      <point x="156" y="338" type="curve"/>
      <point x="147" y="392" type="line"/>
      <point x="199" y="413" type="line" smooth="yes"/>
      <point x="259" y="439"/>
      <point x="327" y="466"/>
      <point x="327" y="538" type="curve"/>
      <point x="327" y="599"/>
      <point x="282" y="639"/>
      <point x="221" y="639" type="curve" smooth="yes"/>
      <point x="183" y="639"/>
      <point x="136" y="632"/>
      <point x="82" y="603" type="curve"/>
      <point x="57" y="670" type="line"/>
      <point x="118" y="703"/>
      <point x="177" y="712"/>
      <point x="231" y="712" type="curve" smooth="yes"/>
      <point x="346" y="712"/>
      <point x="425" y="645"/>
    </contour>
  </outline>
</glyph>
<glyph name="four" format="1">
  <advance width="595"/>
  <unicode hex="0034"/>
  <outline>
    <contour>
      <point x="372" y="701" type="line"/>
      <point x="459" y="701" type="line"/>
      <point x="459" y="227" type="line" name="hr02"/>
      <point x="539" y="227" type="line"/>
      <point x="539" y="156" type="line" name="hr01"/>
      <point x="459" y="156" type="line"/>
      <point x="459" y="0" type="line"/>
      <point x="372" y="0" type="line"/>
      <point x="372" y="546" type="line"/>
      <point x="374" y="573" type="line"/>
      <point x="359" y="548" type="line"/>
      <point x="144" y="237" type="line"/>
      <point x="133" y="226" type="line"/>
      <point x="149" y="228" type="line"/>
      <point x="241" y="228" type="line"/>
      <point x="294" y="228"/>
      <point x="326" y="178"/>
      <point x="337" y="156" type="curve"/>
      <point x="46" y="156" type="line"/>
      <point x="46" y="217" type="line"/>
    </contour>
  </outline>
</glyph>
<glyph name="five" format="1">
  <advance width="535"/>
  <unicode hex="0035"/>
  <outline>
    <contour>
      <point x="154" y="413" type="line" name="hr00"/>
      <point x="178" y="416"/>
      <point x="200" y="419"/>
      <point x="225" y="419" type="curve"/>
      <point x="390" y="419"/>
      <point x="465" y="314"/>
      <point x="465" y="207" type="curve" smooth="yes"/>
      <point x="465" y="92"/>
      <point x="377" y="-11"/>
      <point x="217" y="-11" type="curve" smooth="yes"/>
      <point x="166" y="-11"/>
      <point x="88" y="8"/>
      <point x="45" y="38" type="curve"/>
      <point x="68" y="103" type="line"/>
      <point x="121" y="72"/>
      <point x="178" y="62"/>
      <point x="216" y="62" type="curve" smooth="yes"/>
      <point x="332" y="62"/>
      <point x="367" y="146"/>
      <point x="367" y="209" type="curve" smooth="yes"/>
      <point x="367" y="305"/>
      <point x="299" y="348"/>
      <point x="204" y="348" type="curve"/>
      <point x="170" y="348"/>
      <point x="115" y="340"/>
      <point x="76" y="328" type="curve"/>
      <point x="102" y="701" type="line"/>
      <point x="435" y="701" type="line"/>
      <point x="435" y="622" type="line"/>
      <point x="170" y="622" type="line"/>
    </contour>
  </outline>
</glyph>
<glyph name="six" format="1">
  <advance width="654"/>
  <unicode hex="0036"/>
  <outline>
    <contour>
      <point x="413" y="634" type="curve" name="hr00"/>
      <point x="272" y="634"/>
      <point x="175" y="507"/>
      <point x="175" y="328" type="curve" smooth="yes"/>
      <point x="175" y="219"/>
      <point x="204" y="58"/>
      <point x="337" y="58" type="curve" smooth="yes"/>
      <point x="415" y="58"/>
      <point x="468" y="124"/>
      <point x="468" y="216" type="curve" smooth="yes"/>
      <point x="468" y="307"/>
      <point x="419" y="355"/>
      <point x="359" y="355" type="curve" smooth="yes"/>
      <point x="349" y="355"/>
      <point x="340" y="354"/>
      <point x="324" y="350" type="curve"/>
      <point x="274" y="338"/>
      <point x="231" y="363"/>
      <point x="213" y="380" type="curve"/>
      <point x="281" y="416"/>
      <point x="313" y="427"/>
      <point x="359" y="427" type="curve" smooth="yes"/>
      <point x="479" y="427"/>
      <point x="566" y="353"/>
      <point x="566" y="216" type="curve" smooth="yes"/>
      <point x="566" y="101"/>
      <point x="476" y="-14"/>
      <point x="339" y="-14" type="curve" smooth="yes"/>
      <point x="138" y="-14"/>
      <point x="77" y="162"/>
      <point x="77" y="326" type="curve" smooth="yes"/>
      <point x="77" y="509"/>
      <point x="196" y="706"/>
      <point x="413" y="706" type="curve"/>
      <point x="446" y="706"/>
      <point x="482" y="699"/>
      <point x="518" y="683" type="curve"/>
      <point x="496" y="617" type="line"/>
      <point x="467" y="630"/>
      <point x="438" y="634"/>
    </contour>
  </outline>
</glyph>
<glyph name="seven" format="1">
  <advance width="501"/>
  <unicode hex="0037"/>
  <outline>
    <contour>
      <point x="130" y="0" type="line" name="hr00"/>
      <point x="161" y="233"/>
      <point x="235" y="432"/>
      <point x="365" y="618" type="curve"/>
      <point x="38" y="618" type="line"/>
      <point x="38" y="701" type="line"/>
      <point x="465" y="701" type="line"/>
      <point x="465" y="625" type="line"/>
      <point x="356" y="485"/>
      <point x="256" y="321"/>
      <point x="227" y="0" type="curve"/>
    </contour>
  </outline>
</glyph>
<glyph name="eight" format="1">
  <advance width="614"/>
  <unicode hex="0038"/>
  <outline>
    <contour>
      <point x="195" y="531" type="curve" smooth="yes"/>
      <point x="195" y="453"/>
      <point x="279" y="427"/>
      <point x="366" y="390" type="curve"/>
      <point x="408" y="431"/>
      <point x="436" y="469"/>
      <point x="436" y="519" type="curve"/>
      <point x="436" y="600"/>
      <point x="374" y="639"/>
      <point x="315" y="639" type="curve" smooth="yes"/>
      <point x="255" y="639"/>
      <point x="195" y="599"/>
    </contour>
    <contour>
      <point x="312" y="58" type="curve" smooth="yes"/>
      <point x="398" y="58"/>
      <point x="457" y="108"/>
      <point x="457" y="178" type="curve" smooth="yes"/>
      <point x="457" y="352"/>
      <point x="105" y="295"/>
      <point x="105" y="531" type="curve" smooth="yes"/>
      <point x="105" y="645"/>
      <point x="208" y="712"/>
      <point x="315" y="712" type="curve" smooth="yes"/>
      <point x="428" y="712"/>
      <point x="524" y="645"/>
      <point x="524" y="531" type="curve" smooth="yes" name="hr02"/>
      <point x="524" y="466"/>
      <point x="484" y="412"/>
      <point x="435" y="357" type="curve"/>
      <point x="497" y="322"/>
      <point x="547" y="272"/>
      <point x="547" y="178" type="curve" smooth="yes"/>
      <point x="547" y="55"/>
      <point x="438" y="-14"/>
      <point x="312" y="-14" type="curve" smooth="yes"/>
      <point x="184" y="-14"/>
      <point x="81" y="55"/>
      <point x="81" y="178" type="curve" smooth="yes"/>
      <point x="81" y="223"/>
      <point x="95" y="272"/>
      <point x="165" y="347" type="curve"/>
      <point x="187" y="315"/>
      <point x="200" y="274"/>
      <point x="181" y="239" type="curve" smooth="yes"/>
      <point x="172" y="221"/>
      <point x="167" y="205"/>
      <point x="167" y="190" type="curve" smooth="yes" name="hr01"/>
      <point x="167" y="107"/>
      <point x="230" y="58"/>
    </contour>
  </outline>
</glyph>
<glyph name="nine" format="1">
  <advance width="654"/>
  <unicode hex="0039"/>
  <outline>
    <contour>
      <point x="229" y="63" type="curve" smooth="yes" name="hr00"/>
      <point x="372" y="63"/>
      <point x="468" y="190"/>
      <point x="468" y="370" type="curve" smooth="yes"/>
      <point x="468" y="478"/>
      <point x="439" y="638"/>
      <point x="307" y="638" type="curve" smooth="yes"/>
      <point x="227" y="638"/>
      <point x="175" y="572"/>
      <point x="175" y="481" type="curve" smooth="yes"/>
      <point x="175" y="391"/>
      <point x="223" y="342"/>
      <point x="284" y="342" type="curve" smooth="yes"/>
      <point x="293" y="342"/>
      <point x="303" y="343"/>
      <point x="319" y="346" type="curve"/>
      <point x="370" y="360"/>
      <point x="411" y="334"/>
      <point x="429" y="316" type="curve"/>
      <point x="361" y="280"/>
      <point x="329" y="271"/>
      <point x="284" y="271" type="curve" smooth="yes"/>
      <point x="164" y="271"/>
      <point x="76" y="344"/>
      <point x="76" y="481" type="curve" smooth="yes"/>
      <point x="76" y="597"/>
      <point x="167" y="710"/>
      <point x="304" y="710" type="curve" smooth="yes"/>
      <point x="504" y="710"/>
      <point x="566" y="534"/>
      <point x="566" y="372" type="curve" smooth="yes"/>
      <point x="566" y="188"/>
      <point x="446" y="-10"/>
      <point x="229" y="-10" type="curve"/>
      <point x="196" y="-10"/>
      <point x="160" y="-2"/>
      <point x="124" y="15" type="curve"/>
      <point x="147" y="81" type="line"/>
      <point x="176" y="68"/>
      <point x="205" y="63"/>
    </contour>
  </outline>
</glyph>
<glyph name="colon" format="1">
  <advance width="299"/>
  <unicode hex="003A"/>
  <outline>
    <contour>
      <point x="93" y="44" type="curve" smooth="yes" name="hr00"/>
      <point x="93" y="79"/>
      <point x="118" y="105"/>
      <point x="152" y="105" type="curve" smooth="yes"/>
      <point x="187" y="105"/>
      <point x="213" y="79"/>
      <point x="213" y="44" type="curve" smooth="yes"/>
      <point x="213" y="10"/>
      <point x="187" y="-15"/>
      <point x="152" y="-15" type="curve" smooth="yes"/>
      <point x="118" y="-15"/>
      <point x="93" y="10"/>
    </contour>
    <contour>
      <point x="93" y="425" type="curve" smooth="yes"/>
      <point x="93" y="460"/>
      <point x="118" y="486"/>
      <point x="152" y="486" type="curve" smooth="yes"/>
      <point x="187" y="486"/>
      <point x="213" y="460"/>
      <point x="213" y="425" type="curve" smooth="yes"/>
      <point x="213" y="391"/>
      <point x="187" y="366"/>
      <point x="152" y="366" type="curve" smooth="yes"/>
      <point x="118" y="366"/>
      <point x="93" y="391"/>
    </contour>
  </outline>
</glyph>
<glyph name="semicolon" format="1">
  <advance width="299"/>
  <unicode hex="003B"/>
  <outline>
    <contour>
      <point x="93" y="425" type="curve" smooth="yes"/>
      <point x="93" y="460"/>
      <point x="118" y="486"/>
      <point x="152" y="486" type="curve" smooth="yes"/>
      <point x="187" y="486"/>
      <point x="213" y="460"/>
      <point x="213" y="425" type="curve" smooth="yes"/>
      <point x="213" y="391"/>
      <point x="187" y="366"/>
      <point x="152" y="366" type="curve" smooth="yes"/>
      <point x="118" y="366"/>
      <point x="93" y="391"/>
    </contour>
    <contour>
      <point x="110" y="98" type="line"/>
      <point x="198" y="98" type="line"/>
      <point x="198" y="20" type="line" smooth="yes"/>
      <point x="198" y="-33"/>
      <point x="181" y="-115"/>
      <point x="110" y="-98" type="curve" name="hr01"/>
    </contour>
  </outline>
</glyph>
<glyph name="question" format="1">
  <advance width="583"/>
  <unicode hex="003F"/>
  <outline>
    <contour>
      <point x="277" y="737" type="curve" smooth="yes"/>
      <point x="392" y="737"/>
      <point x="471" y="671"/>
      <point x="471" y="587" type="curve" smooth="yes"/>
      <point x="471" y="420"/>
      <point x="277" y="368"/>
      <point x="277" y="185" type="curve"/>
      <point x="205" y="185" type="line"/>
      <point x="205" y="402"/>
      <point x="373" y="438"/>
      <point x="373" y="572" type="curve" smooth="yes"/>
      <point x="373" y="625"/>
      <point x="329" y="665"/>
      <point x="267" y="665" type="curve"/>
      <point x="229" y="665"/>
      <point x="186" y="658"/>
      <point x="133" y="629" type="curve"/>
      <point x="108" y="696" type="line"/>
      <point x="169" y="729"/>
      <point x="222" y="737"/>
    </contour>
    <contour>
      <point x="180" y="44" type="curve" smooth="yes"/>
      <point x="180" y="79"/>
      <point x="206" y="105"/>
      <point x="240" y="105" type="curve" smooth="yes"/>
      <point x="275" y="105"/>
      <point x="301" y="79"/>
      <point x="301" y="44" type="curve" smooth="yes"/>
      <point x="301" y="10"/>
      <point x="275" y="-15"/>
      <point x="240" y="-15" type="curve" smooth="yes"/>
      <point x="206" y="-15"/>
      <point x="180" y="10"/>
    </contour>
  </outline>
</glyph>
<glyph name="at" format="1">
  <advance width="919"/>
  <unicode hex="0040"/>
  <outline>
    <contour>
      <point x="619" y="116" type="line" name="hr00"/>
      <point x="623" y="118"/>
      <point x="630" y="126"/>
      <point x="634" y="128" type="curve" smooth="yes"/>
      <point x="713" y="179"/>
      <point x="743" y="236"/>
      <point x="743" y="313" type="curve" smooth="yes"/>
      <point x="743" y="482"/>
      <point x="633" y="579"/>
      <point x="461" y="579" type="curve" smooth="yes"/>
      <point x="290" y="579"/>
      <point x="160" y="473"/>
      <point x="160" y="257" type="curve" smooth="yes"/>
      <point x="160" y="42"/>
      <point x="290" y="-63"/>
      <point x="447" y="-63" type="curve" smooth="yes"/>
      <point x="505" y="-63"/>
      <point x="552" y="-59"/>
      <point x="634" y="-32" type="curve"/>
      <point x="655" y="-87" type="line"/>
      <point x="560" y="-116"/>
      <point x="513" y="-122"/>
      <point x="447" y="-122" type="curve" smooth="yes"/>
      <point x="243" y="-122"/>
      <point x="85" y="-11"/>
      <point x="85" y="257" type="curve" smooth="yes"/>
      <point x="85" y="506"/>
      <point x="260" y="638"/>
      <point x="462" y="638" type="curve" smooth="yes"/>
      <point x="668" y="638"/>
      <point x="817" y="519"/>
      <point x="817" y="313" type="curve" smooth="yes"/>
      <point x="817" y="170"/>
      <point x="721" y="82"/>
      <point x="578" y="56" type="curve"/>
      <point x="563" y="64"/>
      <point x="557" y="76"/>
      <point x="551" y="93" type="curve"/>
      <point x="549" y="112" type="line"/>
      <point x="539" y="92" type="line"/>
      <point x="500" y="53"/>
      <point x="466" y="47"/>
      <point x="430" y="47" type="curve" smooth="yes"/>
      <point x="345" y="47"/>
      <point x="294" y="92"/>
      <point x="294" y="158" type="curve" smooth="yes"/>
      <point x="294" y="239"/>
      <point x="356" y="273"/>
      <point x="505" y="289" type="curve"/>
      <point x="503" y="271"/>
      <point x="489" y="230"/>
      <point x="449" y="225" type="curve" smooth="yes"/>
      <point x="390" y="217"/>
      <point x="368" y="193"/>
      <point x="368" y="162" type="curve" smooth="yes"/>
      <point x="368" y="129"/>
      <point x="397" y="106"/>
      <point x="440" y="106" type="curve" smooth="yes"/>
      <point x="474" y="106"/>
      <point x="515" y="119"/>
      <point x="546" y="160" type="curve"/>
      <point x="546" y="306" type="line"/>
      <point x="546" y="367"/>
      <point x="519" y="408"/>
      <point x="448" y="408" type="curve" smooth="yes"/>
      <point x="420" y="408"/>
      <point x="386" y="402"/>
      <point x="351" y="388" type="curve"/>
      <point x="331" y="439" type="line"/>
      <point x="381" y="460"/>
      <point x="420" y="466"/>
      <point x="462" y="466" type="curve" smooth="yes"/>
      <point x="561" y="466"/>
      <point x="619" y="405"/>
      <point x="619" y="301" type="curve"/>
      <point x="619" y="187" type="line"/>
      <point x="619" y="171"/>
      <point x="619" y="155"/>
      <point x="620" y="140" type="curve"/>
    </contour>
  </outline>
</glyph>
<glyph name="B" format="1">
  <advance width="643"/>
  <unicode hex="0042"/>
  <outline>
    <contour>
      <point x="297" y="415" type="line"/>
      <point x="397" y="415"/>
      <point x="451" y="473"/>
      <point x="451" y="547" type="curve" smooth="yes"/>
      <point x="451" y="615"/>
      <point x="398" y="666"/>
      <point x="297" y="666" type="curve" smooth="yes"/>
      <point x="261" y="666"/>
      <point x="218" y="664"/>
      <point x="182" y="660" type="curve"/>
      <point x="182" y="415" type="line"/>
    </contour>
    <contour>
      <point x="317" y="64" type="curve"/>
      <point x="333" y="62"/>
      <point x="344" y="61"/>
      <point x="362" y="61" type="curve" smooth="yes"/>
      <point x="432" y="61"/>
      <point x="492" y="123"/>
      <point x="492" y="201" type="curve" smooth="yes" name="hr03"/>
      <point x="492" y="301"/>
      <point x="405" y="346"/>
      <point x="297" y="346" type="curve" smooth="yes"/>
      <point x="182" y="346" type="line"/>
      <point x="182" y="0" type="line"/>
      <point x="87" y="0" type="line"/>
      <point x="87" y="718" type="line"/>
      <point x="162" y="733"/>
      <point x="225" y="740"/>
      <point x="297" y="740" type="curve" smooth="yes"/>
      <point x="467" y="740"/>
      <point x="550" y="655"/>
      <point x="550" y="547" type="curve" name="hr02"/>
      <point x="550" y="499"/>
      <point x="524" y="433"/>
      <point x="475" y="402" type="curve"/>
      <point x="446" y="388" type="line"/>
      <point x="474" y="381" type="line"/>
      <point x="549" y="345"/>
      <point x="593" y="285"/>
      <point x="593" y="205" type="curve" smooth="yes" name="hr01"/>
      <point x="593" y="102"/>
      <point x="507" y="-12"/>
      <point x="362" y="-12" type="curve" smooth="yes"/>
      <point x="324" y="-12"/>
      <point x="281" y="-8"/>
      <point x="222" y="6" type="curve"/>
      <point x="242" y="41"/>
      <point x="272" y="72"/>
    </contour>
  </outline>
</glyph>
<glyph name="C" format="1">
  <advance width="652"/>
  <unicode hex="0043"/>
  <outline>
    <contour>
      <point x="434" y="-12" type="curve" smooth="yes" name="hr00"/>
      <point x="229" y="-12"/>
      <point x="72" y="131"/>
      <point x="72" y="362" type="curve" smooth="yes"/>
      <point x="72" y="586"/>
      <point x="229" y="740"/>
      <point x="434" y="740" type="curve" smooth="yes"/>
      <point x="490" y="740"/>
      <point x="550" y="729"/>
      <point x="611" y="706" type="curve"/>
      <point x="585" y="641" type="line"/>
      <point x="527" y="660"/>
      <point x="480" y="667"/>
      <point x="434" y="667" type="curve" smooth="yes"/>
      <point x="296" y="667"/>
      <point x="174" y="566"/>
      <point x="174" y="362" type="curve" smooth="yes"/>
      <point x="174" y="181"/>
      <point x="296" y="60"/>
      <point x="434" y="60" type="curve"/>
      <point x="480" y="60"/>
      <point x="530" y="71"/>
      <point x="585" y="99" type="curve"/>
      <point x="611" y="34" type="line"/>
      <point x="549" y="1"/>
      <point x="490" y="-12"/>
    </contour>
  </outline>
</glyph>
<glyph name="D" format="1">
  <advance width="713"/>
  <unicode hex="0044"/>
  <outline>
    <contour>
      <point x="364" y="-12" type="curve"/>
      <point x="319" y="-12"/>
      <point x="282" y="-9"/>
      <point x="224" y="5" type="curve"/>
      <point x="243" y="40"/>
      <point x="273" y="66"/>
      <point x="318" y="62" type="curve" smooth="yes"/>
      <point x="339" y="60"/>
      <point x="347" y="60"/>
      <point x="363" y="60" type="curve" name="hr02"/>
      <point x="491" y="60"/>
      <point x="591" y="198"/>
      <point x="591" y="365" type="curve" smooth="yes"/>
      <point x="591" y="558"/>
      <point x="493" y="667"/>
      <point x="296" y="667" type="curve" smooth="yes"/>
      <point x="256" y="667"/>
      <point x="216" y="664"/>
      <point x="184" y="660" type="curve"/>
      <point x="184" y="0" type="line"/>
      <point x="89" y="0" type="line" name="hr01"/>
      <point x="89" y="716" type="line"/>
      <point x="152" y="731"/>
      <point x="238" y="740"/>
      <point x="296" y="740" type="curve" smooth="yes"/>
      <point x="550" y="740"/>
      <point x="693" y="599"/>
      <point x="693" y="365" type="curve" smooth="yes"/>
      <point x="693" y="147"/>
      <point x="542" y="-12"/>
    </contour>
  </outline>
</glyph>
<glyph name="E" format="1">
  <advance width="577"/>
  <unicode hex="0045"/>
  <outline>
    <contour>
      <point x="89" y="727" type="line" name="hr00"/>
      <point x="503" y="727" type="line"/>
      <point x="503" y="655" type="line"/>
      <point x="184" y="655" type="line"/>
      <point x="184" y="72" type="line"/>
      <point x="518" y="72" type="line"/>
      <point x="518" y="0" type="line"/>
      <point x="89" y="0" type="line"/>
    </contour>
    <contour>
      <point x="469" y="416" type="line"/>
      <point x="469" y="346" type="line"/>
      <point x="222" y="346" type="line"/>
      <point x="236" y="384"/>
      <point x="260" y="416"/>
      <point x="308" y="416" type="curve"/>
    </contour>
  </outline>
</glyph>
<glyph name="F" format="1">
  <advance width="573"/>
  <unicode hex="0046"/>
  <outline>
    <contour>
      <point x="89" y="727" type="line" name="hr00"/>
      <point x="503" y="727" type="line"/>
      <point x="503" y="655" type="line"/>
      <point x="184" y="655" type="line"/>
      <point x="184" y="0" type="line"/>
      <point x="89" y="0" type="line"/>
    </contour>
    <contour>
      <point x="469" y="416" type="line"/>
      <point x="469" y="346" type="line"/>
      <point x="222" y="346" type="line"/>
      <point x="236" y="384"/>
      <point x="260" y="416"/>
      <point x="308" y="416" type="curve"/>
    </contour>
  </outline>
</glyph>
<glyph name="G" format="1">
  <advance width="645"/>
  <unicode hex="0047"/>
  <outline>
    <contour>
      <point x="410" y="667" type="curve" smooth="yes" name="hr00"/>
      <point x="272" y="667"/>
      <point x="137" y="568"/>
      <point x="137" y="363" type="curve" smooth="yes"/>
      <point x="137" y="159"/>
      <point x="272" y="60"/>
      <point x="410" y="60" type="curve" smooth="yes"/>
      <point x="439" y="60"/>
      <point x="478" y="63"/>
      <point x="522" y="77" type="curve"/>
      <point x="522" y="337" type="line"/>
      <point x="614" y="337" type="line"/>
      <point x="614" y="37" type="line"/>
      <point x="542" y="-1"/>
      <point x="467" y="-12"/>
      <point x="410" y="-12" type="curve" smooth="yes"/>
      <point x="205" y="-12"/>
      <point x="35" y="128"/>
      <point x="35" y="363" type="curve" smooth="yes"/>
      <point x="35" y="588"/>
      <point x="205" y="740"/>
      <point x="410" y="740" type="curve" smooth="yes"/>
      <point x="467" y="740"/>
      <point x="538" y="729"/>
      <point x="608" y="696" type="curve"/>
      <point x="582" y="631" type="line"/>
      <point x="511" y="662"/>
      <point x="456" y="667"/>
    </contour>
  </outline>
</glyph>
<glyph name="H" format="1">
  <advance width="730"/>
  <unicode hex="0048"/>
  <outline>
    <contour>
      <point x="548" y="416" type="line" name="hr00"/>
      <point x="548" y="727" type="line"/>
      <point x="643" y="727" type="line"/>
      <point x="643" y="0" type="line"/>
      <point x="548" y="0" type="line"/>
      <point x="548" y="346" type="line"/>
      <point x="222" y="346" type="line"/>
      <point x="236" y="384"/>
      <point x="260" y="416"/>
      <point x="307" y="416" type="curve"/>
    </contour>
    <contour>
      <point x="89" y="727" type="line"/>
      <point x="184" y="727" type="line"/>
      <point x="184" y="0" type="line"/>
      <point x="89" y="0" type="line"/>
    </contour>
  </outline>
</glyph>
<glyph name="I" format="1">
  <advance width="270"/>
  <unicode hex="0049"/>
  <outline>
    <contour>
      <point x="181" y="0" type="line" name="hr00"/>
      <point x="89" y="0" type="line"/>
      <point x="89" y="727" type="line"/>
      <point x="181" y="727" type="line"/>
    </contour>
  </outline>
</glyph>
<glyph name="J" format="1">
  <advance width="344"/>
  <unicode hex="004A"/>
  <outline>
    <contour>
      <point x="261" y="128" type="line" name="hr00"/>
      <point x="261" y="-47"/>
      <point x="174" y="-114"/>
      <point x="35" y="-208" type="curve"/>
      <point x="-5" y="-157" type="line"/>
      <point x="95" y="-74"/>
      <point x="165" y="-29"/>
      <point x="165" y="128" type="curve"/>
      <point x="165" y="727" type="line"/>
      <point x="261" y="727" type="line"/>
    </contour>
  </outline>
</glyph>
<glyph name="L" format="1">
  <advance width="520"/>
  <unicode hex="004C"/>
  <outline>
    <contour>
      <point x="89" y="727" type="line" name="hr00"/>
      <point x="185" y="727" type="line"/>
      <point x="185" y="73" type="line"/>
      <point x="489" y="73" type="line"/>
      <point x="488" y="0" type="line"/>
      <point x="89" y="0" type="line"/>
    </contour>
  </outline>
</glyph>
<glyph name="M" format="1">
  <advance width="949"/>
  <unicode hex="004D"/>
  <outline>
    <contour>
      <point x="150" y="727" type="line" name="hr00"/>
      <point x="273" y="727" type="line"/>
      <point x="468" y="143" type="line"/>
      <point x="475" y="112" type="line"/>
      <point x="482" y="143" type="line"/>
      <point x="677" y="727" type="line"/>
      <point x="800" y="727" type="line"/>
      <point x="880" y="0" type="line"/>
      <point x="789" y="0" type="line"/>
      <point x="732" y="582" type="line"/>
      <point x="729" y="625" type="line"/>
      <point x="717" y="582" type="line"/>
      <point x="519" y="10" type="line"/>
      <point x="430" y="10" type="line"/>
      <point x="231" y="583" type="line"/>
      <point x="218" y="625" type="line"/>
      <point x="215" y="583" type="line"/>
      <point x="159" y="0" type="line"/>
      <point x="69" y="0" type="line"/>
    </contour>
  </outline>
</glyph>
<glyph name="N" format="1">
  <advance width="749"/>
  <unicode hex="004E"/>
  <outline>
    <contour>
      <point x="197" y="581" type="line" name="hr00"/>
      <point x="183" y="615" type="line"/>
      <point x="185" y="581" type="line"/>
      <point x="185" y="0" type="line"/>
      <point x="104" y="0" type="line"/>
      <point x="104" y="727" type="line"/>
      <point x="199" y="727" type="line"/>
      <point x="552" y="163" type="line"/>
      <point x="564" y="130" type="line"/>
      <point x="562" y="165" type="line"/>
      <point x="562" y="727" type="line"/>
      <point x="646" y="727" type="line"/>
      <point x="646" y="0" type="line"/>
      <point x="561" y="0" type="line"/>
    </contour>
  </outline>
</glyph>
<glyph name="O" format="1">
  <advance width="791"/>
  <unicode hex="004F"/>
  <outline>
    <contour>
      <point x="45" y="364" type="curve" name="hr00"/>
      <point x="45" y="619"/>
      <point x="226" y="742"/>
      <point x="382" y="742" type="curve"/>
      <point x="599" y="742"/>
      <point x="719" y="570"/>
      <point x="719" y="364" type="curve"/>
      <point x="719" y="133"/>
      <point x="563" y="-14"/>
      <point x="382" y="-14" type="curve" smooth="yes"/>
      <point x="195" y="-14"/>
      <point x="45" y="128"/>
    </contour>
    <contour>
      <point x="147" y="364" type="curve"/>
      <point x="147" y="183"/>
      <point x="247" y="58"/>
      <point x="382" y="58" type="curve"/>
      <point x="523" y="58"/>
      <point x="617" y="193"/>
      <point x="617" y="364" type="curve"/>
      <point x="617" y="552"/>
      <point x="511" y="669"/>
      <point x="382" y="669" type="curve" smooth="yes"/>
      <point x="253" y="669"/>
      <point x="147" y="552"/>
    </contour>
  </outline>
</glyph>
<glyph name="P" format="1">
  <advance width="609"/>
  <unicode hex="0050"/>
  <outline>
    <contour>
      <point x="558" y="520" type="curve" smooth="yes" name="hr00"/>
      <point x="558" y="392"/>
      <point x="444" y="315"/>
      <point x="324" y="305" type="curve" smooth="yes"/>
      <point x="295" y="302"/>
      <point x="261" y="303"/>
      <point x="224" y="313" type="curve"/>
      <point x="239" y="347"/>
      <point x="270" y="374"/>
      <point x="312" y="374" type="curve" smooth="yes"/>
      <point x="381" y="374"/>
      <point x="457" y="435"/>
      <point x="457" y="520" type="curve"/>
      <point x="457" y="604"/>
      <point x="384" y="667"/>
      <point x="294" y="667" type="curve" smooth="yes"/>
      <point x="257" y="667"/>
      <point x="220" y="665"/>
      <point x="184" y="661" type="curve"/>
      <point x="184" y="0" type="line"/>
      <point x="89" y="2" type="line"/>
      <point x="89" y="720" type="line"/>
      <point x="164" y="735"/>
      <point x="221" y="740"/>
      <point x="294" y="740" type="curve"/>
      <point x="455" y="740"/>
      <point x="558" y="641"/>
    </contour>
  </outline>
</glyph>
<glyph name="Q" format="1">
  <advance width="788"/>
  <unicode hex="0051"/>
  <outline>
    <contour>
      <point x="713" y="39" type="line" name="hr00"/>
      <point x="659" y="-13" type="line"/>
      <point x="412" y="238" type="line"/>
      <point x="466" y="291" type="line"/>
      <point x="566" y="187" type="line"/>
      <point x="579" y="168" type="line"/>
      <point x="586" y="192" type="line"/>
      <point x="615" y="246"/>
      <point x="624" y="306"/>
      <point x="624" y="364" type="curve"/>
      <point x="624" y="552"/>
      <point x="519" y="669"/>
      <point x="390" y="669" type="curve" smooth="yes"/>
      <point x="262" y="669"/>
      <point x="154" y="552"/>
      <point x="154" y="364" type="curve" smooth="yes"/>
      <point x="154" y="178"/>
      <point x="256" y="59"/>
      <point x="387" y="59" type="curve"/>
      <point x="411" y="59"/>
      <point x="426" y="62"/>
      <point x="446" y="67" type="curve" smooth="yes"/>
      <point x="481" y="76"/>
      <point x="526" y="67"/>
      <point x="548" y="43" type="curve"/>
      <point x="493" y="3"/>
      <point x="441" y="-14"/>
      <point x="387" y="-14" type="curve"/>
      <point x="197" y="-14"/>
      <point x="53" y="134"/>
      <point x="53" y="364" type="curve" smooth="yes"/>
      <point x="53" y="595"/>
      <point x="210" y="742"/>
      <point x="390" y="742" type="curve" smooth="yes"/>
      <point x="579" y="742"/>
      <point x="726" y="599"/>
      <point x="726" y="364" type="curve"/>
      <point x="726" y="273"/>
      <point x="699" y="204"/>
      <point x="637" y="116" type="curve"/>
    </contour>
  </outline>
</glyph>
<glyph name="R" format="1">
  <advance width="648"/>
  <unicode hex="0052"/>
  <outline>
    <contour>
      <point x="558" y="525" type="line" name="hr00"/>
      <point x="558" y="445"/>
      <point x="508" y="383"/>
      <point x="439" y="348" type="curve"/>
      <point x="415" y="340" type="line"/>
      <point x="435" y="332" type="line"/>
      <point x="533" y="266"/>
      <point x="525" y="135"/>
      <point x="586" y="0" type="curve"/>
      <point x="486" y="0" type="line"/>
      <point x="433" y="115"/>
      <point x="438" y="276"/>
      <point x="333" y="316" type="curve"/>
      <point x="330" y="315"/>
      <point x="327" y="315"/>
      <point x="324" y="315" type="curve" smooth="yes"/>
      <point x="295" y="312"/>
      <point x="261" y="314"/>
      <point x="224" y="323" type="curve"/>
      <point x="239" y="357"/>
      <point x="270" y="383"/>
      <point x="312" y="384" type="curve" smooth="yes"/>
      <point x="381" y="386"/>
      <point x="457" y="445"/>
      <point x="457" y="527" type="curve" smooth="yes"/>
      <point x="457" y="606"/>
      <point x="384" y="668"/>
      <point x="294" y="668" type="curve" smooth="yes"/>
      <point x="257" y="668"/>
      <point x="232" y="668"/>
      <point x="184" y="659" type="curve"/>
      <point x="184" y="0" type="line"/>
      <point x="89" y="0" type="line"/>
      <point x="89" y="718" type="line"/>
      <point x="164" y="733"/>
      <point x="221" y="741"/>
      <point x="294" y="741" type="curve" smooth="yes"/>
      <point x="455" y="741"/>
      <point x="558" y="643"/>
      <point x="558" y="527" type="curve"/>
    </contour>
  </outline>
</glyph>
<glyph name="S" format="1">
  <advance width="554"/>
  <unicode hex="0053"/>
  <outline>
    <contour>
      <point x="281" y="667" type="curve" name="hr00"/>
      <point x="206" y="667"/>
      <point x="165" y="617"/>
      <point x="165" y="559" type="curve" smooth="yes"/>
      <point x="165" y="402"/>
      <point x="504" y="408"/>
      <point x="504" y="181" type="curve" smooth="yes"/>
      <point x="504" y="82"/>
      <point x="419" y="-12"/>
      <point x="267" y="-12" type="curve"/>
      <point x="210" y="-12"/>
      <point x="127" y="0"/>
      <point x="59" y="33" type="curve"/>
      <point x="85" y="98" type="line"/>
      <point x="145" y="71"/>
      <point x="210" y="60"/>
      <point x="256" y="60" type="curve"/>
      <point x="350" y="60"/>
      <point x="405" y="114"/>
      <point x="405" y="183" type="curve" smooth="yes"/>
      <point x="405" y="354"/>
      <point x="69" y="333"/>
      <point x="69" y="559" type="curve" smooth="yes"/>
      <point x="69" y="659"/>
      <point x="151" y="740"/>
      <point x="271" y="740" type="curve"/>
      <point x="328" y="740"/>
      <point x="384" y="731"/>
      <point x="452" y="710" type="curve"/>
      <point x="425" y="645" type="line"/>
      <point x="368" y="662"/>
      <point x="318" y="667"/>
    </contour>
  </outline>
</glyph>
<glyph name="T" format="1">
  <advance width="544"/>
  <unicode hex="0054"/>
  <outline>
    <contour>
      <point x="10" y="655" type="line" name="hr00"/>
      <point x="10" y="727" type="line"/>
      <point x="531" y="727" type="line"/>
      <point x="531" y="655" type="line"/>
      <point x="318" y="655" type="line"/>
      <point x="318" y="0" type="line"/>
      <point x="222" y="0" type="line"/>
      <point x="222" y="655" type="line"/>
    </contour>
  </outline>
</glyph>
<glyph name="U" format="1">
  <advance width="694"/>
  <unicode hex="0055"/>
  <outline>
    <contour>
      <point x="347" y="-14" type="curve" smooth="yes" name="hr00"/>
      <point x="177" y="-14"/>
      <point x="78" y="99"/>
      <point x="78" y="268" type="curve" smooth="yes"/>
      <point x="78" y="727" type="line"/>
      <point x="172" y="727" type="line"/>
      <point x="172" y="252" type="line" smooth="yes"/>
      <point x="172" y="134"/>
      <point x="241" y="58"/>
      <point x="347" y="58" type="curve" smooth="yes"/>
      <point x="453" y="58"/>
      <point x="522" y="134"/>
      <point x="522" y="252" type="curve" smooth="yes"/>
      <point x="522" y="727" type="line"/>
      <point x="616" y="727" type="line"/>
      <point x="616" y="268" type="line" smooth="yes"/>
      <point x="616" y="99"/>
      <point x="506" y="-14"/>
    </contour>
  </outline>
</glyph>
<glyph name="W" format="1">
  <advance width="972"/>
  <unicode hex="0057"/>
  <outline>
    <contour>
      <point x="541" y="717" type="line" name="hr00"/>
      <point x="692" y="136" type="line"/>
      <point x="702" y="87" type="line"/>
      <point x="711" y="134" type="line"/>
      <point x="858" y="727" type="line"/>
      <point x="952" y="727" type="line"/>
      <point x="757" y="0" type="line"/>
      <point x="645" y="0" type="line"/>
      <point x="496" y="566" type="line"/>
      <point x="488" y="608" type="line"/>
      <point x="480" y="568" type="line"/>
      <point x="332" y="0" type="line"/>
      <point x="216" y="0" type="line"/>
      <point x="21" y="727" type="line"/>
      <point x="117" y="727" type="line"/>
      <point x="265" y="137" type="line"/>
      <point x="273" y="88" type="line"/>
      <point x="284" y="137" type="line"/>
      <point x="439" y="717" type="line"/>
    </contour>
  </outline>
</glyph>
<glyph name="X" format="1">
  <advance width="626"/>
  <unicode hex="0058"/>
  <outline>
    <contour>
      <point x="47" y="727" type="line" name="hr00"/>
      <point x="158" y="727" type="line"/>
      <point x="305" y="462" type="line"/>
      <point x="314" y="437" type="line"/>
      <point x="322" y="462" type="line"/>
      <point x="471" y="727" type="line"/>
      <point x="577" y="727" type="line"/>
      <point x="365" y="377" type="line"/>
      <point x="590" y="0" type="line"/>
      <point x="482" y="0" type="line"/>
    </contour>
    <contour>
      <point x="137" y="0" type="line"/>
      <point x="34" y="0" type="line"/>
      <point x="234" y="330" type="line"/>
      <point x="257" y="299"/>
      <point x="277" y="250"/>
      <point x="253" y="210" type="curve"/>
    </contour>
  </outline>
</glyph>
<glyph name="Y" format="1">
  <advance width="660"/>
  <unicode hex="0059"/>
  <outline>
    <contour>
      <point x="370" y="337" type="line" name="hr00"/>
      <point x="370" y="0" type="line"/>
      <point x="277" y="0" type="line"/>
      <point x="277" y="309" type="line"/>
      <point x="28" y="727" type="line"/>
      <point x="136" y="727" type="line"/>
    </contour>
    <contour>
      <point x="507" y="727" type="line"/>
      <point x="612" y="727" type="line"/>
      <point x="398" y="376" type="line"/>
      <point x="374" y="407"/>
      <point x="354" y="455"/>
      <point x="381" y="502" type="curve"/>
    </contour>
  </outline>
</glyph>
<glyph name="Z" format="1">
  <advance width="598"/>
  <unicode hex="005A"/>
  <outline>
    <contour>
      <point x="129" y="727" type="line" name="hr00"/>
      <point x="598" y="727" type="line"/>
      <point x="598" y="689" type="line"/>
      <point x="211" y="84" type="line"/>
      <point x="196" y="69" type="line"/>
      <point x="218" y="72" type="line"/>
      <point x="608" y="72" type="line"/>
      <point x="608" y="0" type="line"/>
      <point x="85" y="0" type="line"/>
      <point x="85" y="38" type="line"/>
      <point x="471" y="641" type="line"/>
      <point x="487" y="658" type="line"/>
      <point x="463" y="655" type="line"/>
      <point x="129" y="655" type="line"/>
    </contour>
  </outline>
</glyph>
<glyph name="bracketleft" format="1">
  <advance width="447"/>
  <unicode hex="005B"/>
  <outline>
    <contour>
      <point x="145" y="771" type="line" name="hr00"/>
      <point x="402" y="771" type="line"/>
      <point x="402" y="699" type="line"/>
      <point x="231" y="699" type="line"/>
      <point x="231" y="-127" type="line"/>
      <point x="403" y="-127" type="line"/>
      <point x="402" y="-199" type="line"/>
      <point x="145" y="-199" type="line"/>
    </contour>
  </outline>
</glyph>
<glyph name="backslash" format="1">
  <advance width="378"/>
  <unicode hex="005C"/>
  <outline>
    <contour>
      <point x="268" y="-62" type="line" name="hr00"/>
      <point x="25" y="727" type="line"/>
      <point x="114" y="727" type="line"/>
      <point x="357" y="-62" type="line"/>
    </contour>
  </outline>
</glyph>
<glyph name="bracketright" format="1">
  <advance width="457"/>
  <unicode hex="005D"/>
  <outline>
    <contour>
      <point x="310" y="-199" type="line" name="hr00"/>
      <point x="54" y="-199" type="line"/>
      <point x="53" y="-127" type="line"/>
      <point x="225" y="-127" type="line"/>
      <point x="225" y="699" type="line"/>
      <point x="54" y="699" type="line"/>
      <point x="54" y="771" type="line"/>
      <point x="310" y="771" type="line"/>
    </contour>
  </outline>
</glyph>
<glyph name="asciicircum" format="1">
  <advance width="628"/>
  <unicode hex="005E"/>
  <outline>
    <contour>
      <point x="163" y="210" type="line" name="hr00"/>
      <point x="84" y="210" type="line"/>
      <point x="290" y="727" type="line"/>
      <point x="341" y="727" type="line"/>
      <point x="547" y="210" type="line"/>
      <point x="470" y="210" type="line"/>
      <point x="322" y="580" type="line"/>
      <point x="316" y="606" type="line"/>
      <point x="310" y="580" type="line"/>
    </contour>
  </outline>
</glyph>
<glyph name="b" format="1">
  <advance width="582"/>
  <unicode hex="0062"/>
  <outline>
    <contour>
      <point x="210" y="496" type="curve" name="hr00"/>
      <point x="245" y="513"/>
      <point x="288" y="523"/>
      <point x="318" y="523" type="curve" smooth="yes"/>
      <point x="427" y="523"/>
      <point x="529" y="435"/>
      <point x="529" y="261" type="curve" smooth="yes"/>
      <point x="529" y="102"/>
      <point x="427" y="-10"/>
      <point x="277" y="-10" type="curve" smooth="yes"/>
      <point x="205" y="-10"/>
      <point x="140" y="7"/>
      <point x="83" y="40" type="curve"/>
      <point x="83" y="758" type="line"/>
      <point x="176" y="758" type="line"/>
      <point x="176" y="78" type="line"/>
      <point x="208" y="66"/>
      <point x="247" y="62"/>
      <point x="277" y="62" type="curve" smooth="yes"/>
      <point x="372" y="62"/>
      <point x="431" y="143"/>
      <point x="431" y="261" type="curve" smooth="yes"/>
      <point x="431" y="393"/>
      <point x="373" y="456"/>
      <point x="287" y="451" type="curve" smooth="yes"/>
      <point x="257" y="449"/>
      <point x="231" y="465"/>
    </contour>
  </outline>
</glyph>
<glyph name="c" format="1">
  <advance width="427"/>
  <unicode hex="0063"/>
  <outline>
    <contour>
      <point x="283" y="-10" type="curve" name="hr00"/>
      <point x="149" y="-10"/>
      <point x="42" y="85"/>
      <point x="42" y="259" type="curve"/>
      <point x="42" y="432"/>
      <point x="154" y="527"/>
      <point x="283" y="527" type="curve"/>
      <point x="319" y="527"/>
      <point x="365" y="521"/>
      <point x="405" y="506" type="curve"/>
      <point x="382" y="441" type="line"/>
      <point x="344" y="451"/>
      <point x="313" y="455"/>
      <point x="283" y="455" type="curve"/>
      <point x="207" y="455"/>
      <point x="141" y="393"/>
      <point x="141" y="259" type="curve"/>
      <point x="141" y="124"/>
      <point x="206" y="62"/>
      <point x="283" y="62" type="curve"/>
      <point x="312" y="62"/>
      <point x="347" y="70"/>
      <point x="393" y="91" type="curve"/>
      <point x="418" y="25" type="line"/>
      <point x="364" y="-2"/>
      <point x="314" y="-10"/>
    </contour>
  </outline>
</glyph>
<glyph name="d" format="1">
  <advance width="598"/>
  <unicode hex="0064"/>
  <outline>
    <contour>
      <point x="51" y="261" type="curve"/>
      <point x="51" y="421"/>
      <point x="164" y="523"/>
      <point x="283" y="523" type="curve" smooth="yes"/>
      <point x="313" y="523"/>
      <point x="347" y="519"/>
      <point x="383" y="506" type="curve"/>
      <point x="365" y="473"/>
      <point x="336" y="450"/>
      <point x="289" y="451" type="curve" smooth="yes"/>
      <point x="220" y="453"/>
      <point x="150" y="397"/>
      <point x="150" y="261" type="curve"/>
      <point x="150" y="145"/>
      <point x="198" y="62"/>
      <point x="286" y="62" type="curve" name="hr02"/>
      <point x="332" y="62"/>
      <point x="376" y="85"/>
      <point x="417" y="135" type="curve"/>
      <point x="417" y="758" type="line"/>
      <point x="510" y="758" type="line"/>
      <point x="510" y="171" type="line" smooth="yes"/>
      <point x="510" y="91"/>
      <point x="517" y="35"/>
      <point x="525" y="0" type="curve"/>
      <point x="458" y="0" type="line" name="hr01"/>
      <point x="442" y="14"/>
      <point x="433" y="27"/>
      <point x="423" y="54" type="curve"/>
      <point x="421" y="70" type="line"/>
      <point x="413" y="53" type="line"/>
      <point x="372" y="6"/>
      <point x="312" y="-10"/>
      <point x="271" y="-10" type="curve"/>
      <point x="131" y="-10"/>
      <point x="51" y="108"/>
    </contour>
  </outline>
</glyph>
<glyph name="e" format="1">
  <advance width="544"/>
  <unicode hex="0065"/>
  <outline>
    <contour>
      <point x="397" y="317" type="line" name="hr00"/>
      <point x="406" y="394"/>
      <point x="356" y="455"/>
      <point x="291" y="455" type="curve" smooth="yes"/>
      <point x="207" y="455"/>
      <point x="149" y="385"/>
      <point x="149" y="262" type="curve" smooth="yes"/>
      <point x="149" y="143"/>
      <point x="217" y="62"/>
      <point x="308" y="62" type="curve" smooth="yes"/>
      <point x="354" y="62"/>
      <point x="390" y="69"/>
      <point x="447" y="98" type="curve"/>
      <point x="472" y="32" type="line"/>
      <point x="408" y="-1"/>
      <point x="346" y="-10"/>
      <point x="298" y="-10" type="curve" smooth="yes"/>
      <point x="151" y="-10"/>
      <point x="56" y="106"/>
      <point x="56" y="263" type="curve" smooth="yes"/>
      <point x="56" y="425"/>
      <point x="150" y="527"/>
      <point x="301" y="527" type="curve" smooth="yes"/>
      <point x="438" y="527"/>
      <point x="519" y="393"/>
      <point x="475" y="250" type="curve"/>
      <point x="185" y="250" type="line"/>
      <point x="199" y="288"/>
      <point x="222" y="317"/>
      <point x="270" y="317" type="curve"/>
    </contour>
  </outline>
</glyph>
<glyph name="f" format="1">
  <advance width="390"/>
  <unicode hex="0066"/>
  <outline>
    <contour>
      <point x="5" y="448" type="line" name="hr00"/>
      <point x="5" y="496" type="line"/>
      <point x="91" y="517" type="line"/>
      <point x="91" y="545" type="line" smooth="yes"/>
      <point x="91" y="677"/>
      <point x="161" y="763"/>
      <point x="283" y="763" type="curve" smooth="yes"/>
      <point x="316" y="763"/>
      <point x="358" y="757"/>
      <point x="404" y="737" type="curve"/>
      <point x="383" y="676" type="line"/>
      <point x="341" y="692"/>
      <point x="315" y="695"/>
      <point x="294" y="695" type="curve" smooth="yes"/>
      <point x="238" y="695"/>
      <point x="178" y="655"/>
      <point x="178" y="555" type="curve" smooth="yes"/>
      <point x="178" y="0" type="line"/>
      <point x="91" y="0" type="line"/>
      <point x="91" y="448" type="line"/>
    </contour>
    <contour>
      <point x="359" y="517" type="line"/>
      <point x="359" y="448" type="line"/>
      <point x="214" y="448" type="line"/>
      <point x="228" y="486"/>
      <point x="251" y="517"/>
      <point x="299" y="517" type="curve"/>
    </contour>
  </outline>
</glyph>
<glyph name="g" format="1">
  <advance width="571"/>
  <unicode hex="0067"/>
  <outline>
    <contour>
      <point x="54" y="256" type="curve" name="hr00"/>
      <point x="54" y="419"/>
      <point x="164" y="527"/>
      <point x="319" y="527" type="curve" smooth="yes"/>
      <point x="375" y="527"/>
      <point x="427" y="518"/>
      <point x="496" y="495" type="curve"/>
      <point x="496" y="0" type="line"/>
      <point x="496" y="-149"/>
      <point x="405" y="-250"/>
      <point x="259" y="-250" type="curve" smooth="yes"/>
      <point x="207" y="-250"/>
      <point x="144" y="-242"/>
      <point x="78" y="-208" type="curve"/>
      <point x="104" y="-140" type="line"/>
      <point x="161" y="-168"/>
      <point x="209" y="-178"/>
      <point x="251" y="-178" type="curve" smooth="yes"/>
      <point x="335" y="-178"/>
      <point x="405" y="-125"/>
      <point x="405" y="-11" type="curve"/>
      <point x="405" y="444" type="line"/>
      <point x="374" y="452"/>
      <point x="349" y="455"/>
      <point x="319" y="455" type="curve" smooth="yes"/>
      <point x="219" y="455"/>
      <point x="152" y="384"/>
      <point x="152" y="256" type="curve"/>
      <point x="152" y="143"/>
      <point x="198" y="58"/>
      <point x="290" y="68" type="curve" smooth="yes"/>
      <point x="319" y="71"/>
      <point x="347" y="61"/>
      <point x="371" y="31" type="curve"/>
      <point x="338" y="9"/>
      <point x="301" y="-3"/>
      <point x="271" y="-6" type="curve" smooth="yes"/>
      <point x="152" y="-16"/>
      <point x="54" y="93"/>
    </contour>
  </outline>
</glyph>
<glyph name="h" format="1">
  <advance width="582"/>
  <unicode hex="0068"/>
  <outline>
    <contour>
      <point x="83" y="0" type="line" name="hr00"/>
      <point x="83" y="758" type="line"/>
      <point x="176" y="758" type="line"/>
      <point x="176" y="0" type="line"/>
    </contour>
    <contour>
      <point x="406" y="376" type="line"/>
      <point x="406" y="422"/>
      <point x="389" y="455"/>
      <point x="350" y="455" type="curve" smooth="yes"/>
      <point x="334" y="455"/>
      <point x="327" y="451"/>
      <point x="309" y="447" type="curve" smooth="yes"/>
      <point x="270" y="438"/>
      <point x="239" y="445"/>
      <point x="211" y="474" type="curve"/>
      <point x="282" y="516"/>
      <point x="325" y="527"/>
      <point x="362" y="527" type="curve" smooth="yes"/>
      <point x="439" y="527"/>
      <point x="502" y="490"/>
      <point x="502" y="366" type="curve" smooth="yes"/>
      <point x="502" y="0" type="line"/>
      <point x="406" y="0" type="line"/>
    </contour>
  </outline>
</glyph>
<glyph name="i" format="1">
  <advance width="256"/>
  <unicode hex="0069"/>
  <outline>
    <contour>
      <point x="80" y="0" type="line"/>
      <point x="80" y="517" type="line"/>
      <point x="176" y="517" type="line"/>
      <point x="176" y="0" type="line"/>
    </contour>
    <contour>
      <point x="68" y="667" type="curve"/>
      <point x="68" y="702"/>
      <point x="94" y="728"/>
      <point x="128" y="728" type="curve" smooth="yes"/>
      <point x="163" y="728"/>
      <point x="188" y="702"/>
      <point x="188" y="667" type="curve" smooth="yes"/>
      <point x="188" y="633"/>
      <point x="163" y="607"/>
      <point x="128" y="607" type="curve" smooth="yes"/>
      <point x="94" y="607"/>
      <point x="68" y="633"/>
    </contour>
  </outline>
</glyph>
<glyph name="j" format="1">
  <advance width="279"/>
  <unicode hex="006A"/>
  <outline>
    <contour>
      <point x="89" y="667" type="curve"/>
      <point x="89" y="703"/>
      <point x="113" y="729"/>
      <point x="148" y="729" type="curve" smooth="yes"/>
      <point x="184" y="729"/>
      <point x="210" y="703"/>
      <point x="210" y="667" type="curve" smooth="yes"/>
      <point x="210" y="632"/>
      <point x="184" y="607"/>
      <point x="148" y="607" type="curve" smooth="yes"/>
      <point x="113" y="607"/>
      <point x="89" y="632"/>
    </contour>
    <contour>
      <point x="196" y="39" type="line"/>
      <point x="196" y="-67"/>
      <point x="167" y="-143"/>
      <point x="18" y="-248" type="curve"/>
      <point x="-25" y="-195" type="line"/>
      <point x="84" y="-101"/>
      <point x="101" y="-55"/>
      <point x="101" y="39" type="curve" smooth="yes"/>
      <point x="101" y="517" type="line"/>
      <point x="196" y="517" type="line" name="hr01"/>
    </contour>
  </outline>
</glyph>
<glyph name="k" format="1">
  <advance width="581"/>
  <unicode hex="006B"/>
  <outline>
    <contour>
      <point x="176" y="0" type="line" name="hr00"/>
      <point x="83" y="0" type="line"/>
      <point x="83" y="758" type="line"/>
      <point x="176" y="758" type="line"/>
    </contour>
    <contour>
      <point x="362" y="335" type="line"/>
      <point x="557" y="0" type="line"/>
      <point x="451" y="0" type="line"/>
      <point x="303" y="270" type="line"/>
      <point x="226" y="183" type="line"/>
      <point x="211" y="222"/>
      <point x="217" y="285"/>
      <point x="254" y="328" type="curve" smooth="yes"/>
      <point x="417" y="517" type="line"/>
      <point x="527" y="517" type="line"/>
    </contour>
  </outline>
</glyph>
<glyph name="m" format="1">
  <advance width="902"/>
  <unicode hex="006D"/>
  <outline>
    <contour>
      <point x="142" y="517" type="line"/>
      <point x="174" y="481"/>
      <point x="181" y="447"/>
      <point x="181" y="407" type="curve" smooth="yes"/>
      <point x="181" y="0" type="line"/>
      <point x="85" y="0" type="line"/>
      <point x="85" y="391" type="line" smooth="yes"/>
      <point x="85" y="428"/>
      <point x="81" y="470"/>
      <point x="70" y="517" type="curve"/>
    </contour>
    <contour>
      <point x="407" y="376" type="line"/>
      <point x="407" y="422"/>
      <point x="388" y="455"/>
      <point x="349" y="455" type="curve" smooth="yes"/>
      <point x="333" y="455"/>
      <point x="323" y="452"/>
      <point x="306" y="448" type="curve" smooth="yes"/>
      <point x="267" y="439"/>
      <point x="236" y="446"/>
      <point x="208" y="475" type="curve"/>
      <point x="279" y="517"/>
      <point x="324" y="527"/>
      <point x="360" y="527" type="curve" smooth="yes" name="hr01"/>
      <point x="438" y="527"/>
      <point x="503" y="490"/>
      <point x="503" y="366" type="curve" smooth="yes"/>
      <point x="503" y="0" type="line"/>
      <point x="407" y="0" type="line"/>
    </contour>
    <contour>
      <point x="728" y="376" type="line"/>
      <point x="728" y="422"/>
      <point x="708" y="455"/>
      <point x="666" y="455" type="curve" smooth="yes"/>
      <point x="650" y="455"/>
      <point x="638" y="451"/>
      <point x="620" y="447" type="curve" smooth="yes"/>
      <point x="581" y="438"/>
      <point x="548" y="445"/>
      <point x="520" y="474" type="curve"/>
      <point x="591" y="516"/>
      <point x="640" y="527"/>
      <point x="676" y="527" type="curve" smooth="yes"/>
      <point x="755" y="527"/>
      <point x="824" y="490"/>
      <point x="824" y="366" type="curve" smooth="yes"/>
      <point x="824" y="0" type="line"/>
      <point x="728" y="0" type="line"/>
    </contour>
  </outline>
</glyph>
<glyph name="n" format="1">
  <advance width="596"/>
  <unicode hex="006E"/>
  <outline>
    <contour>
      <point x="142" y="517" type="line"/>
      <point x="174" y="481"/>
      <point x="181" y="447"/>
      <point x="181" y="407" type="curve" smooth="yes"/>
      <point x="181" y="0" type="line"/>
      <point x="85" y="0" type="line"/>
      <point x="85" y="391" type="line" smooth="yes"/>
      <point x="85" y="428"/>
      <point x="81" y="470"/>
      <point x="70" y="517" type="curve"/>
    </contour>
    <contour>
      <point x="413" y="376" type="line"/>
      <point x="413" y="422"/>
      <point x="392" y="455"/>
      <point x="351" y="455" type="curve" smooth="yes"/>
      <point x="335" y="455"/>
      <point x="325" y="451"/>
      <point x="308" y="447" type="curve" smooth="yes"/>
      <point x="269" y="438"/>
      <point x="236" y="445"/>
      <point x="208" y="474" type="curve"/>
      <point x="279" y="516"/>
      <point x="324" y="527"/>
      <point x="360" y="527" type="curve" smooth="yes" name="hr01"/>
      <point x="440" y="527"/>
      <point x="509" y="490"/>
      <point x="509" y="366" type="curve" smooth="yes"/>
      <point x="509" y="0" type="line"/>
      <point x="413" y="0" type="line"/>
    </contour>
  </outline>
</glyph>
<glyph name="o" format="1">
  <advance width="566"/>
  <unicode hex="006F"/>
  <outline>
    <contour>
      <point x="40" y="259" type="curve" name="hr00"/>
      <point x="40" y="442"/>
      <point x="163" y="527"/>
      <point x="281" y="527" type="curve"/>
      <point x="434" y="527"/>
      <point x="522" y="409"/>
      <point x="522" y="259" type="curve"/>
      <point x="522" y="85"/>
      <point x="410" y="-10"/>
      <point x="281" y="-10" type="curve" smooth="yes"/>
      <point x="147" y="-10"/>
      <point x="40" y="85"/>
    </contour>
    <contour>
      <point x="139" y="259" type="curve"/>
      <point x="139" y="143"/>
      <point x="190" y="62"/>
      <point x="281" y="62" type="curve"/>
      <point x="378" y="62"/>
      <point x="423" y="152"/>
      <point x="423" y="259" type="curve"/>
      <point x="423" y="393"/>
      <point x="357" y="455"/>
      <point x="281" y="455" type="curve"/>
      <point x="205" y="455"/>
      <point x="139" y="393"/>
    </contour>
  </outline>
</glyph>
<glyph name="p" format="1">
  <advance width="598"/>
  <unicode hex="0070"/>
  <outline>
    <contour>
      <point x="547" y="256" type="curve"/>
      <point x="547" y="96"/>
      <point x="435" y="-6"/>
      <point x="315" y="-6" type="curve" smooth="yes"/>
      <point x="285" y="-6"/>
      <point x="251" y="-2"/>
      <point x="215" y="11" type="curve"/>
      <point x="234" y="44"/>
      <point x="263" y="67"/>
      <point x="309" y="66" type="curve" smooth="yes"/>
      <point x="378" y="64"/>
      <point x="448" y="121"/>
      <point x="448" y="256" type="curve"/>
      <point x="448" y="372"/>
      <point x="401" y="455"/>
      <point x="312" y="455" type="curve" name="hr02"/>
      <point x="267" y="455"/>
      <point x="222" y="432"/>
      <point x="181" y="382" type="curve"/>
      <point x="181" y="-241" type="line"/>
      <point x="89" y="-241" type="line"/>
      <point x="89" y="346" type="line" smooth="yes"/>
      <point x="89" y="426"/>
      <point x="81" y="482"/>
      <point x="73" y="517" type="curve"/>
      <point x="140" y="517" type="line" name="hr01"/>
      <point x="157" y="503"/>
      <point x="166" y="490"/>
      <point x="175" y="463" type="curve"/>
      <point x="177" y="447" type="line"/>
      <point x="185" y="465" type="line"/>
      <point x="227" y="511"/>
      <point x="286" y="527"/>
      <point x="328" y="527" type="curve"/>
      <point x="468" y="527"/>
      <point x="547" y="409"/>
    </contour>
  </outline>
</glyph>
<glyph name="q" format="1">
  <advance width="582"/>
  <unicode hex="0071"/>
  <outline>
    <contour>
      <point x="372" y="31" type="curve" name="hr00"/>
      <point x="339" y="9"/>
      <point x="302" y="-3"/>
      <point x="272" y="-6" type="curve" smooth="yes"/>
      <point x="153" y="-16"/>
      <point x="55" y="93"/>
      <point x="55" y="256" type="curve" smooth="yes"/>
      <point x="55" y="419"/>
      <point x="165" y="527"/>
      <point x="320" y="527" type="curve" smooth="yes"/>
      <point x="376" y="527"/>
      <point x="428" y="518"/>
      <point x="497" y="495" type="curve"/>
      <point x="497" y="-241" type="line"/>
      <point x="406" y="-241" type="line"/>
      <point x="406" y="444" type="line"/>
      <point x="375" y="452"/>
      <point x="350" y="455"/>
      <point x="320" y="455" type="curve" smooth="yes"/>
      <point x="220" y="455"/>
      <point x="153" y="384"/>
      <point x="153" y="256" type="curve" smooth="yes"/>
      <point x="153" y="143"/>
      <point x="199" y="58"/>
      <point x="291" y="68" type="curve" smooth="yes"/>
      <point x="320" y="71"/>
      <point x="348" y="61"/>
    </contour>
  </outline>
</glyph>
<glyph name="r" format="1">
  <advance width="391"/>
  <unicode hex="0072"/>
  <outline>
    <contour>
      <point x="140" y="517" type="line" name="hr02"/>
      <point x="161" y="495"/>
      <point x="168" y="469"/>
      <point x="174" y="437" type="curve"/>
      <point x="174" y="419" type="line"/>
      <point x="182" y="437" type="line"/>
      <point x="208" y="488"/>
      <point x="261" y="524"/>
      <point x="315" y="524" type="curve" smooth="yes"/>
      <point x="330" y="524"/>
      <point x="346" y="521"/>
      <point x="364" y="516" type="curve"/>
      <point x="352" y="438" type="line"/>
      <point x="331" y="443"/>
      <point x="316" y="444"/>
      <point x="304" y="444" type="curve" smooth="yes" name="hr01"/>
      <point x="242" y="444"/>
      <point x="176" y="396"/>
      <point x="176" y="276" type="curve" smooth="yes"/>
      <point x="176" y="0" type="line"/>
      <point x="87" y="0" type="line"/>
      <point x="87" y="342" type="line" smooth="yes"/>
      <point x="87" y="403"/>
      <point x="82" y="470"/>
      <point x="71" y="517" type="curve"/>
    </contour>
  </outline>
</glyph>
<glyph name="s" format="1">
  <advance width="416"/>
  <unicode hex="0073"/>
  <outline>
    <contour>
      <point x="60" y="98" type="line" name="hr00"/>
      <point x="111" y="73"/>
      <point x="165" y="62"/>
      <point x="207" y="62" type="curve" smooth="yes"/>
      <point x="267" y="62"/>
      <point x="296" y="93"/>
      <point x="296" y="137" type="curve" smooth="yes"/>
      <point x="296" y="246"/>
      <point x="54" y="225"/>
      <point x="54" y="392" type="curve" smooth="yes"/>
      <point x="54" y="456"/>
      <point x="110" y="526"/>
      <point x="214" y="526" type="curve" smooth="yes"/>
      <point x="252" y="526"/>
      <point x="297" y="520"/>
      <point x="353" y="500" type="curve"/>
      <point x="330" y="435" type="line"/>
      <point x="288" y="449"/>
      <point x="252" y="455"/>
      <point x="224" y="455" type="curve" smooth="yes"/>
      <point x="178" y="455"/>
      <point x="144" y="433"/>
      <point x="144" y="392" type="curve" smooth="yes"/>
      <point x="144" y="285"/>
      <point x="386" y="305"/>
      <point x="386" y="132" type="curve" smooth="yes"/>
      <point x="386" y="56"/>
      <point x="307" y="-10"/>
      <point x="219" y="-10" type="curve" smooth="yes"/>
      <point x="168" y="-10"/>
      <point x="114" y="-6"/>
      <point x="36" y="32" type="curve"/>
    </contour>
  </outline>
</glyph>
<glyph name="t" format="1">
  <advance width="426"/>
  <unicode hex="0074"/>
  <outline>
    <contour>
      <point x="102" y="448" type="line" name="hr00"/>
      <point x="10" y="448" type="line"/>
      <point x="10" y="493" type="line"/>
      <point x="102" y="517" type="line"/>
      <point x="102" y="649" type="line"/>
      <point x="190" y="677" type="line"/>
      <point x="190" y="180" type="line"/>
      <point x="190" y="111"/>
      <point x="222" y="59"/>
      <point x="271" y="59" type="curve" smooth="yes"/>
      <point x="297" y="59"/>
      <point x="318" y="63"/>
      <point x="353" y="74" type="curve"/>
      <point x="375" y="11" type="line"/>
      <point x="324" y="-6"/>
      <point x="303" y="-11"/>
      <point x="271" y="-11" type="curve" smooth="yes"/>
      <point x="162" y="-11"/>
      <point x="102" y="64"/>
      <point x="102" y="191" type="curve"/>
    </contour>
    <contour>
      <point x="310" y="448" type="line"/>
      <point x="263" y="448"/>
      <point x="239" y="479"/>
      <point x="226" y="517" type="curve"/>
      <point x="367" y="517" type="line"/>
      <point x="367" y="448" type="line"/>
    </contour>
  </outline>
</glyph>
<glyph name="u" format="1">
  <advance width="587"/>
  <unicode hex="0075"/>
  <outline>
    <contour>
      <point x="435" y="0" type="line"/>
      <point x="403" y="36"/>
      <point x="396" y="70"/>
      <point x="396" y="110" type="curve" smooth="yes"/>
      <point x="396" y="517" type="line"/>
      <point x="489" y="517" type="line"/>
      <point x="489" y="126" type="line" smooth="yes"/>
      <point x="489" y="89"/>
      <point x="493" y="47"/>
      <point x="505" y="0" type="curve"/>
    </contour>
    <contour>
      <point x="165" y="141" type="line"/>
      <point x="165" y="95"/>
      <point x="184" y="62"/>
      <point x="226" y="62" type="curve" smooth="yes"/>
      <point x="242" y="62"/>
      <point x="251" y="66"/>
      <point x="269" y="70" type="curve" smooth="yes"/>
      <point x="308" y="79"/>
      <point x="341" y="72"/>
      <point x="369" y="43" type="curve"/>
      <point x="298" y="1"/>
      <point x="252" y="-10"/>
      <point x="216" y="-10" type="curve" smooth="yes" name="hr01"/>
      <point x="137" y="-10"/>
      <point x="71" y="27"/>
      <point x="71" y="151" type="curve" smooth="yes"/>
      <point x="71" y="517" type="line"/>
      <point x="165" y="517" type="line"/>
    </contour>
  </outline>
</glyph>
<glyph name="v" format="1">
  <advance width="516"/>
  <unicode hex="0076"/>
  <outline>
    <contour>
      <point x="210" y="0" type="line" name="hr00"/>
      <point x="16" y="517" type="line"/>
      <point x="116" y="517" type="line"/>
      <point x="254" y="114" type="line"/>
      <point x="262" y="89" type="line"/>
      <point x="269" y="114" type="line"/>
      <point x="406" y="517" type="line"/>
      <point x="502" y="517" type="line"/>
      <point x="308" y="0" type="line"/>
    </contour>
  </outline>
</glyph>
<glyph name="w" format="1">
  <advance width="860"/>
  <unicode hex="0077"/>
  <outline>
    <contour>
      <point x="321" y="0" type="line" name="hr00"/>
      <point x="226" y="0" type="line"/>
      <point x="43" y="517" type="line"/>
      <point x="143" y="517" type="line"/>
      <point x="271" y="114" type="line"/>
      <point x="278" y="89" type="line"/>
      <point x="285" y="114" type="line"/>
      <point x="376" y="358" type="line"/>
      <point x="406" y="325"/>
      <point x="422" y="253"/>
      <point x="400" y="190" type="curve"/>
    </contour>
    <contour>
      <point x="557" y="0" type="line"/>
      <point x="375" y="517" type="line"/>
      <point x="475" y="517" type="line"/>
      <point x="603" y="114" type="line"/>
      <point x="610" y="89" type="line"/>
      <point x="617" y="114" type="line"/>
      <point x="744" y="517" type="line"/>
      <point x="839" y="517" type="line"/>
      <point x="657" y="0" type="line"/>
    </contour>
  </outline>
</glyph>
<glyph name="x" format="1">
  <advance width="499"/>
  <unicode hex="0078"/>
  <outline>
    <contour>
      <point x="369" y="0" type="line" name="hr00"/>
      <point x="314" y="87"/>
      <point x="259" y="172"/>
      <point x="202" y="259" type="curve"/>
      <point x="31" y="517" type="line"/>
      <point x="136" y="517" type="line"/>
      <point x="243" y="338" type="line"/>
      <point x="249" y="317" type="line"/>
      <point x="256" y="338" type="line"/>
      <point x="365" y="517" type="line"/>
      <point x="463" y="517" type="line"/>
      <point x="293" y="263" type="line"/>
      <point x="473" y="0" type="line"/>
    </contour>
    <contour>
      <point x="119" y="0" type="line"/>
      <point x="22" y="0" type="line"/>
      <point x="176" y="225" type="line"/>
      <point x="203" y="193"/>
      <point x="215" y="146"/>
      <point x="187" y="104" type="curve"/>
    </contour>
  </outline>
</glyph>
<glyph name="y" format="1">
  <advance width="529"/>
  <unicode hex="0079"/>
  <outline>
    <contour>
      <point x="224" y="179" type="line" name="hr00"/>
      <point x="246" y="115"/>
      <point x="233" y="43"/>
      <point x="203" y="10" type="curve"/>
      <point x="16" y="517" type="line"/>
      <point x="114" y="517" type="line"/>
    </contour>
    <contour>
      <point x="121" y="-174" type="curve"/>
      <point x="198" y="-174"/>
      <point x="220" y="-82"/>
      <point x="262" y="37" type="curve"/>
      <point x="417" y="517" type="line"/>
      <point x="514" y="517" type="line"/>
      <point x="331" y="11" type="line"/>
      <point x="278" y="-130"/>
      <point x="246" y="-245"/>
      <point x="121" y="-246" type="curve"/>
      <point x="94" y="-245"/>
      <point x="63" y="-240"/>
      <point x="35" y="-231" type="curve"/>
      <point x="59" y="-165" type="line"/>
      <point x="81" y="-171"/>
      <point x="102" y="-174"/>
    </contour>
  </outline>
</glyph>
<glyph name="z" format="1">
  <advance width="448"/>
  <unicode hex="007A"/>
  <outline>
    <contour>
      <point x="68" y="517" type="line" name="hr00"/>
      <point x="418" y="517" type="line"/>
      <point x="418" y="479" type="line"/>
      <point x="160" y="82" type="line"/>
      <point x="144" y="65" type="line"/>
      <point x="167" y="68" type="line"/>
      <point x="424" y="68" type="line"/>
      <point x="424" y="0" type="line"/>
      <point x="35" y="0" type="line"/>
      <point x="35" y="38" type="line"/>
      <point x="296" y="437" type="line"/>
      <point x="311" y="454" type="line"/>
      <point x="290" y="451" type="line"/>
      <point x="68" y="451" type="line"/>
    </contour>
  </outline>
</glyph>
<glyph name="braceleft" format="1">
  <advance width="403"/>
  <unicode hex="007B"/>
  <outline>
    <contour>
      <point x="179" y="192" type="curve" name="hr00"/>
      <point x="176" y="239"/>
      <point x="133" y="266"/>
      <point x="82" y="275" type="curve"/>
      <point x="82" y="332" type="line"/>
      <point x="133" y="341"/>
      <point x="178" y="368"/>
      <point x="181" y="415" type="curve"/>
      <point x="194" y="578"/>
      <point x="237" y="684"/>
      <point x="360" y="767" type="curve"/>
      <point x="400" y="717" type="line"/>
      <point x="302" y="640"/>
      <point x="270" y="558"/>
      <point x="261" y="439" type="curve"/>
      <point x="257" y="384"/>
      <point x="228" y="342"/>
      <point x="186" y="314" type="curve"/>
      <point x="161" y="303" type="line"/>
      <point x="187" y="291" type="line"/>
      <point x="229" y="263"/>
      <point x="258" y="222"/>
      <point x="261" y="168" type="curve"/>
      <point x="269" y="39"/>
      <point x="298" y="-45"/>
      <point x="400" y="-126" type="curve"/>
      <point x="360" y="-176" type="line"/>
      <point x="232" y="-89"/>
      <point x="190" y="15"/>
    </contour>
  </outline>
</glyph>
<glyph name="braceright" format="1">
  <advance width="403"/>
  <unicode hex="007D"/>
  <outline>
    <contour>
      <point x="303" y="192" type="curve" name="hr00"/>
      <point x="293" y="15"/>
      <point x="250" y="-89"/>
      <point x="122" y="-176" type="curve"/>
      <point x="82" y="-126" type="line"/>
      <point x="184" y="-45"/>
      <point x="213" y="39"/>
      <point x="221" y="168" type="curve"/>
      <point x="225" y="223"/>
      <point x="254" y="265"/>
      <point x="297" y="293" type="curve"/>
      <point x="321" y="303" type="line"/>
      <point x="296" y="314" type="line"/>
      <point x="254" y="342"/>
      <point x="225" y="384"/>
      <point x="221" y="439" type="curve"/>
      <point x="212" y="558"/>
      <point x="180" y="640"/>
      <point x="82" y="717" type="curve"/>
      <point x="122" y="767" type="line"/>
      <point x="245" y="684"/>
      <point x="288" y="578"/>
      <point x="301" y="415" type="curve"/>
      <point x="304" y="368"/>
      <point x="349" y="341"/>
      <point x="400" y="332" type="curve"/>
      <point x="400" y="275" type="line"/>
      <point x="349" y="266"/>
      <point x="306" y="239"/>
    </contour>
  </outline>
</glyph>
<glyph name="asciitilde" format="1">
  <advance width="614"/>
  <unicode hex="007E"/>
  <outline>
    <contour>
      <point x="63" y="236" type="line"/>
      <point x="67" y="336"/>
      <point x="127" y="381"/>
      <point x="213" y="382" type="curve" smooth="yes" name="hr02"/>
      <point x="256" y="382"/>
      <point x="296" y="362"/>
      <point x="327" y="340" type="curve" smooth="yes"/>
      <point x="358" y="318"/>
      <point x="389" y="298"/>
      <point x="434" y="298" type="curve" smooth="yes"/>
      <point x="466" y="298"/>
      <point x="484" y="334"/>
      <point x="488" y="384" type="curve"/>
      <point x="569" y="376" type="line"/>
      <point x="562" y="263"/>
      <point x="503" y="231"/>
      <point x="423" y="230" type="curve" smooth="yes" name="hr01"/>
      <point x="378" y="229"/>
      <point x="337" y="250"/>
      <point x="306" y="272" type="curve" smooth="yes"/>
      <point x="273" y="294"/>
      <point x="245" y="314"/>
      <point x="204" y="314" type="curve" smooth="yes"/>
      <point x="172" y="313"/>
      <point x="147" y="284"/>
      <point x="143" y="228" type="curve"/>
    </contour>
  </outline>
</glyph>
<glyph name="exclamdown" format="1">
  <advance width="351"/>
  <unicode hex="00A1"/>
  <outline>
    <contour>
      <point x="70" y="-210" type="line"/>
      <point x="82" y="332" type="line"/>
      <point x="150" y="332" type="line"/>
      <point x="164" y="-210" type="line"/>
    </contour>
    <contour>
      <point x="56" y="473" type="curve"/>
      <point x="56" y="507"/>
      <point x="81" y="532"/>
      <point x="115" y="532" type="curve" smooth="yes"/>
      <point x="150" y="532"/>
      <point x="176" y="507"/>
      <point x="176" y="473" type="curve" smooth="yes"/>
      <point x="176" y="438"/>
      <point x="150" y="412"/>
      <point x="115" y="412" type="curve" smooth="yes"/>
      <point x="81" y="412"/>
      <point x="56" y="438"/>
    </contour>
  </outline>
</glyph>
<glyph name="cent" format="1">
  <advance width="427"/>
  <unicode hex="00A2"/>
  <outline>
    <contour>
      <point x="418" y="120" type="line" name="hr00"/>
      <point x="379" y="100"/>
      <point x="343" y="91"/>
      <point x="314" y="87" type="curve"/>
      <point x="314" y="-14" type="line"/>
      <point x="242" y="-14" type="line"/>
      <point x="242" y="88" type="line"/>
      <point x="127" y="105"/>
      <point x="42" y="198"/>
      <point x="42" y="354" type="curve" smooth="yes"/>
      <point x="42" y="508"/>
      <point x="131" y="600"/>
      <point x="242" y="618" type="curve"/>
      <point x="242" y="716" type="line"/>
      <point x="314" y="716" type="line"/>
      <point x="314" y="621" type="line"/>
      <point x="343" y="618"/>
      <point x="376" y="612"/>
      <point x="405" y="601" type="curve"/>
      <point x="380" y="535" type="line"/>
      <point x="344" y="546"/>
      <point x="313" y="550"/>
      <point x="283" y="550" type="curve" smooth="yes"/>
      <point x="207" y="550"/>
      <point x="141" y="488"/>
      <point x="141" y="354" type="curve" smooth="yes"/>
      <point x="141" y="219"/>
      <point x="206" y="157"/>
      <point x="283" y="157" type="curve" smooth="yes"/>
      <point x="312" y="157"/>
      <point x="347" y="165"/>
      <point x="393" y="186" type="curve"/>
    </contour>
  </outline>
</glyph>
<glyph name="sterling" format="1">
  <advance width="513"/>
  <unicode hex="00A3"/>
  <outline>
    <contour>
      <point x="256" y="197" type="curve"/>
      <point x="246" y="158"/>
      <point x="226" y="125"/>
      <point x="198" y="96" type="curve"/>
      <point x="177" y="78" type="line"/>
      <point x="204" y="80" type="line"/>
      <point x="483" y="80" type="line"/>
      <point x="483" y="0" type="line"/>
      <point x="56" y="0" type="line"/>
      <point x="56" y="61" type="line"/>
      <point x="128" y="97"/>
      <point x="179" y="162"/>
      <point x="179" y="242" type="curve" smooth="yes" name="hr02"/>
      <point x="179" y="268"/>
      <point x="178" y="293"/>
      <point x="173" y="321" type="curve"/>
      <point x="77" y="321" type="line"/>
      <point x="77" y="386" type="line" name="hr01"/>
      <point x="163" y="386" type="line"/>
      <point x="157" y="418"/>
      <point x="151" y="470"/>
      <point x="151" y="512" type="curve" smooth="yes"/>
      <point x="151" y="639"/>
      <point x="241" y="712"/>
      <point x="351" y="712" type="curve"/>
      <point x="398" y="712"/>
      <point x="445" y="702"/>
      <point x="502" y="675" type="curve"/>
      <point x="477" y="608" type="line"/>
      <point x="428" y="632"/>
      <point x="379" y="640"/>
      <point x="351" y="640" type="curve" smooth="yes"/>
      <point x="277" y="640"/>
      <point x="239" y="587"/>
      <point x="239" y="511" type="curve" smooth="yes"/>
      <point x="239" y="390"/>
      <point x="276" y="296"/>
    </contour>
    <contour>
      <point x="371" y="321" type="line"/>
      <point x="323" y="321"/>
      <point x="300" y="348"/>
      <point x="286" y="386" type="curve"/>
      <point x="445" y="386" type="line"/>
      <point x="445" y="321" type="line"/>
    </contour>
  </outline>
</glyph>
<glyph name="currency" format="1">
  <advance width="513"/>
  <unicode hex="00A4"/>
  <outline>
    <contour>
      <point x="256" y="544" type="curve" name="hr00"/>
      <point x="303" y="544"/>
      <point x="344" y="528"/>
      <point x="372" y="504" type="curve"/>
      <point x="448" y="574" type="line"/>
      <point x="487" y="533" type="line"/>
      <point x="409" y="462" type="line"/>
      <point x="428" y="435"/>
      <point x="444" y="393"/>
      <point x="444" y="345" type="curve" smooth="yes"/>
      <point x="444" y="290"/>
      <point x="427" y="247"/>
      <point x="409" y="222" type="curve"/>
      <point x="484" y="148" type="line"/>
      <point x="444" y="108" type="line"/>
      <point x="371" y="181" type="line"/>
      <point x="341" y="152"/>
      <point x="294" y="138"/>
      <point x="254" y="138" type="curve" smooth="yes"/>
      <point x="213" y="138"/>
      <point x="167" y="153"/>
      <point x="140" y="178" type="curve"/>
      <point x="70" y="108" type="line"/>
      <point x="30" y="148" type="line"/>
      <point x="102" y="219" type="line"/>
      <point x="82" y="245"/>
      <point x="65" y="290"/>
      <point x="65" y="339" type="curve" smooth="yes"/>
      <point x="65" y="391"/>
      <point x="83" y="434"/>
      <point x="104" y="462" type="curve"/>
      <point x="29" y="533" type="line"/>
      <point x="68" y="574" type="line"/>
      <point x="142" y="503" type="line"/>
      <point x="170" y="528"/>
      <point x="212" y="544"/>
    </contour>
    <contour>
      <point x="255" y="485" type="curve"/>
      <point x="181" y="485"/>
      <point x="136" y="418"/>
      <point x="136" y="340" type="curve" smooth="yes"/>
      <point x="136" y="243"/>
      <point x="203" y="197"/>
      <point x="254" y="197" type="curve" smooth="yes"/>
      <point x="310" y="197"/>
      <point x="373" y="241"/>
      <point x="373" y="344" type="curve" smooth="yes"/>
      <point x="373" y="413"/>
      <point x="332" y="485"/>
    </contour>
  </outline>
</glyph>
<glyph name="yen" format="1">
  <advance width="660"/>
  <unicode hex="00A5"/>
  <outline>
    <contour>
      <point x="111" y="309" type="line" name="hr00"/>
      <point x="277" y="309" type="line"/>
      <point x="28" y="727" type="line"/>
      <point x="136" y="727" type="line"/>
      <point x="370" y="337" type="line"/>
      <point x="370" y="309" type="line"/>
      <point x="536" y="309" type="line"/>
      <point x="536" y="262" type="line"/>
      <point x="370" y="262" type="line"/>
      <point x="370" y="185" type="line"/>
      <point x="536" y="185" type="line"/>
      <point x="536" y="138" type="line"/>
      <point x="370" y="138" type="line"/>
      <point x="370" y="0" type="line"/>
      <point x="277" y="0" type="line"/>
      <point x="277" y="138" type="line"/>
      <point x="111" y="138" type="line"/>
      <point x="111" y="185" type="line"/>
      <point x="277" y="185" type="line"/>
      <point x="277" y="262" type="line"/>
      <point x="111" y="262" type="line"/>
    </contour>
    <contour>
      <point x="507" y="727" type="line"/>
      <point x="612" y="727" type="line"/>
      <point x="398" y="376" type="line"/>
      <point x="374" y="407"/>
      <point x="354" y="455"/>
      <point x="381" y="502" type="curve"/>
    </contour>
  </outline>
</glyph>
<glyph name="section" format="1">
  <advance width="500"/>
  <unicode hex="00A7"/>
  <outline>
    <contour>
      <point x="65" y="57" type="line"/>
      <point x="126" y="32"/>
      <point x="191" y="21"/>
      <point x="241" y="21" type="curve" smooth="yes"/>
      <point x="322" y="21"/>
      <point x="357" y="52"/>
      <point x="357" y="97" type="curve" smooth="yes"/>
      <point x="357" y="206"/>
      <point x="57" y="185"/>
      <point x="57" y="352" type="curve" smooth="yes"/>
      <point x="57" y="389"/>
      <point x="81" y="429"/>
      <point x="130" y="457" type="curve"/>
      <point x="156" y="467" type="line"/>
      <point x="135" y="476" type="line"/>
      <point x="95" y="501"/>
      <point x="67" y="534"/>
      <point x="67" y="585" type="curve" smooth="yes"/>
      <point x="67" y="650"/>
      <point x="135" y="720"/>
      <point x="250" y="720" type="curve" smooth="yes"/>
      <point x="295" y="720"/>
      <point x="349" y="714"/>
      <point x="416" y="694" type="curve"/>
      <point x="389" y="629" type="line"/>
      <point x="338" y="643"/>
      <point x="295" y="649"/>
      <point x="262" y="649" type="curve" smooth="yes"/>
      <point x="197" y="649"/>
      <point x="157" y="627"/>
      <point x="157" y="586" type="curve" smooth="yes"/>
      <point x="157" y="478"/>
      <point x="457" y="498"/>
      <point x="457" y="325" type="curve" smooth="yes"/>
      <point x="457" y="280"/>
      <point x="428" y="243"/>
      <point x="387" y="219" type="curve"/>
      <point x="364" y="210" type="line"/>
      <point x="385" y="201" type="line"/>
      <point x="422" y="176"/>
      <point x="447" y="142"/>
      <point x="447" y="92" type="curve" smooth="yes"/>
      <point x="447" y="7"/>
      <point x="361" y="-51"/>
      <point x="256" y="-51" type="curve" smooth="yes"/>
      <point x="194" y="-51"/>
      <point x="130" y="-47"/>
      <point x="36" y="-9" type="curve"/>
    </contour>
    <contour>
      <point x="372" y="330" type="curve" smooth="yes"/>
      <point x="372" y="384"/>
      <point x="295" y="406"/>
      <point x="219" y="436" type="curve"/>
      <point x="171" y="417"/>
      <point x="142" y="387"/>
      <point x="142" y="353" type="curve" smooth="yes"/>
      <point x="142" y="296"/>
      <point x="226" y="275"/>
      <point x="306" y="242" type="curve"/>
      <point x="352" y="268"/>
      <point x="372" y="299"/>
    </contour>
  </outline>
</glyph>
<glyph name="dieresis" format="1">
  <advance width="407"/>
  <unicode hex="00A8"/>
  <outline>
    <contour>
      <point x="38" y="670" type="curve" smooth="yes" name="hr00"/>
      <point x="38" y="699"/>
      <point x="62" y="722"/>
      <point x="90" y="722" type="curve" smooth="yes"/>
      <point x="119" y="722"/>
      <point x="143" y="699"/>
      <point x="143" y="670" type="curve" smooth="yes"/>
      <point x="143" y="641"/>
      <point x="119" y="618"/>
      <point x="90" y="618" type="curve" smooth="yes"/>
      <point x="62" y="618"/>
      <point x="38" y="641"/>
    </contour>
    <contour>
      <point x="232" y="670" type="curve" smooth="yes"/>
      <point x="232" y="699"/>
      <point x="256" y="722"/>
      <point x="285" y="722" type="curve" smooth="yes"/>
      <point x="313" y="722"/>
      <point x="337" y="699"/>
      <point x="337" y="670" type="curve" smooth="yes"/>
      <point x="337" y="641"/>
      <point x="313" y="618"/>
      <point x="285" y="618" type="curve" smooth="yes"/>
      <point x="256" y="618"/>
      <point x="232" y="641"/>
    </contour>
  </outline>
</glyph>
<glyph name="copyright" format="1">
  <advance width="720"/>
  <unicode hex="00A9"/>
  <outline>
    <contour>
      <point x="357" y="680" type="curve" name="hr00"/>
      <point x="549" y="680"/>
      <point x="679" y="535"/>
      <point x="679" y="357" type="curve" smooth="yes"/>
      <point x="679" y="176"/>
      <point x="549" y="31"/>
      <point x="357" y="31" type="curve" smooth="yes"/>
      <point x="163" y="31"/>
      <point x="32" y="176"/>
      <point x="32" y="357" type="curve" smooth="yes"/>
      <point x="32" y="535"/>
      <point x="163" y="680"/>
    </contour>
    <contour>
      <point x="357" y="623" type="curve"/>
      <point x="206" y="622"/>
      <point x="104" y="513"/>
      <point x="104" y="354" type="curve" smooth="yes"/>
      <point x="104" y="197"/>
      <point x="206" y="90"/>
      <point x="357" y="89" type="curve"/>
      <point x="505" y="87"/>
      <point x="607" y="197"/>
      <point x="607" y="357" type="curve" smooth="yes"/>
      <point x="607" y="513"/>
      <point x="505" y="623"/>
    </contour>
    <contour>
      <point x="377" y="176" type="curve"/>
      <point x="288" y="176"/>
      <point x="215" y="240"/>
      <point x="215" y="357" type="curve"/>
      <point x="215" y="473"/>
      <point x="290" y="537"/>
      <point x="377" y="537" type="curve"/>
      <point x="402" y="537"/>
      <point x="432" y="532"/>
      <point x="460" y="523" type="curve"/>
      <point x="443" y="475" type="line"/>
      <point x="419" y="483"/>
      <point x="397" y="485"/>
      <point x="377" y="485" type="curve"/>
      <point x="327" y="485"/>
      <point x="282" y="443"/>
      <point x="282" y="357" type="curve"/>
      <point x="282" y="269"/>
      <point x="326" y="227"/>
      <point x="377" y="227" type="curve"/>
      <point x="396" y="227"/>
      <point x="421" y="232"/>
      <point x="452" y="246" type="curve"/>
      <point x="469" y="199" type="line"/>
      <point x="432" y="181"/>
      <point x="398" y="176"/>
    </contour>
  </outline>
</glyph>
<glyph name="ordfeminine" format="1">
  <advance width="527"/>
  <unicode hex="00AA"/>
  <outline>
    <contour>
      <point x="334" y="422" type="line" name="hr00"/>
      <point x="334" y="366"/>
      <point x="339" y="327"/>
      <point x="345" y="302" type="curve"/>
      <point x="295" y="302" type="line"/>
      <point x="281" y="310"/>
      <point x="275" y="323"/>
      <point x="269" y="338" type="curve"/>
      <point x="269" y="350" type="line"/>
      <point x="261" y="338" type="line"/>
      <point x="225" y="302"/>
      <point x="197" y="295"/>
      <point x="164" y="295" type="curve" smooth="yes"/>
      <point x="91" y="295"/>
      <point x="45" y="338"/>
      <point x="45" y="394" type="curve" smooth="yes"/>
      <point x="45" y="465"/>
      <point x="96" y="499"/>
      <point x="240" y="515" type="curve"/>
      <point x="237" y="499"/>
      <point x="227" y="464"/>
      <point x="190" y="459" type="curve" smooth="yes"/>
      <point x="128" y="449"/>
      <point x="117" y="425"/>
      <point x="117" y="399" type="curve" smooth="yes"/>
      <point x="117" y="370"/>
      <point x="137" y="348"/>
      <point x="173" y="348" type="curve" smooth="yes"/>
      <point x="204" y="348"/>
      <point x="238" y="363"/>
      <point x="265" y="399" type="curve"/>
      <point x="265" y="527" type="line"/>
      <point x="265" y="582"/>
      <point x="241" y="618"/>
      <point x="177" y="618" type="curve" smooth="yes"/>
      <point x="152" y="618"/>
      <point x="129" y="613"/>
      <point x="96" y="601" type="curve"/>
      <point x="80" y="647" type="line"/>
      <point x="125" y="667"/>
      <point x="159" y="671"/>
      <point x="190" y="671" type="curve" smooth="yes"/>
      <point x="279" y="671"/>
      <point x="334" y="616"/>
      <point x="334" y="522" type="curve"/>
    </contour>
  </outline>
</glyph>
<glyph name="logicalnot" format="1">
  <advance width="569"/>
  <unicode hex="00AC"/>
  <outline>
    <contour>
      <point x="529" y="438" type="line" name="hr00"/>
      <point x="529" y="156" type="line"/>
      <point x="456" y="156" type="line"/>
      <point x="456" y="374" type="line"/>
      <point x="43" y="374" type="line"/>
      <point x="43" y="438" type="line"/>
    </contour>
  </outline>
</glyph>
<glyph name="uni00AD" format="1">
  <advance width="375"/>
  <unicode hex="00AD"/>
  <outline>
    <contour>
      <point x="45" y="273" type="line" name="hr00"/>
      <point x="45" y="337" type="line"/>
      <point x="347" y="337" type="line"/>
      <point x="347" y="273" type="line"/>
    </contour>
  </outline>
</glyph>
<glyph name="registered" format="1">
  <advance width="720"/>
  <unicode hex="00AE"/>
  <outline>
    <contour>
      <point x="357" y="680" type="curve" name="hr00"/>
      <point x="549" y="680"/>
      <point x="679" y="535"/>
      <point x="679" y="357" type="curve" smooth="yes"/>
      <point x="679" y="176"/>
      <point x="549" y="31"/>
      <point x="357" y="31" type="curve" smooth="yes"/>
      <point x="163" y="31"/>
      <point x="32" y="176"/>
      <point x="32" y="357" type="curve" smooth="yes"/>
      <point x="32" y="535"/>
      <point x="163" y="680"/>
    </contour>
    <contour>
      <point x="357" y="623" type="curve"/>
      <point x="206" y="622"/>
      <point x="104" y="513"/>
      <point x="104" y="354" type="curve" smooth="yes"/>
      <point x="104" y="197"/>
      <point x="206" y="90"/>
      <point x="357" y="89" type="curve"/>
      <point x="505" y="87"/>
      <point x="607" y="197"/>
      <point x="607" y="357" type="curve" smooth="yes"/>
      <point x="607" y="513"/>
      <point x="505" y="623"/>
    </contour>
    <contour>
      <point x="488" y="431" type="curve"/>
      <point x="488" y="390"/>
      <point x="462" y="361"/>
      <point x="425" y="345" type="curve"/>
      <point x="474" y="317"/>
      <point x="469" y="254"/>
      <point x="499" y="189" type="curve"/>
      <point x="433" y="189" type="line"/>
      <point x="408" y="243"/>
      <point x="411" y="315"/>
      <point x="362" y="334" type="curve"/>
      <point x="346" y="333"/>
      <point x="353" y="333"/>
      <point x="336" y="333" type="curve"/>
      <point x="344" y="349"/>
      <point x="353" y="373"/>
      <point x="382" y="377" type="curve" smooth="yes"/>
      <point x="405" y="381"/>
      <point x="423" y="405"/>
      <point x="423" y="431" type="curve" smooth="yes"/>
      <point x="423" y="461"/>
      <point x="394" y="487"/>
      <point x="354" y="487" type="curve" smooth="yes"/>
      <point x="342" y="487"/>
      <point x="331" y="486"/>
      <point x="313" y="484" type="curve"/>
      <point x="313" y="189" type="line"/>
      <point x="251" y="189" type="line"/>
      <point x="251" y="523" type="line"/>
      <point x="289" y="532"/>
      <point x="319" y="536"/>
      <point x="354" y="536" type="curve" smooth="yes"/>
      <point x="430" y="536"/>
      <point x="488" y="496"/>
    </contour>
  </outline>
</glyph>
<glyph name="macron" format="1">
  <advance width="500"/>
  <unicode hex="00AF"/>
  <outline>
    <contour>
      <point x="115" y="613" type="line" name="hr00"/>
      <point x="115" y="677" type="line"/>
      <point x="407" y="677" type="line"/>
      <point x="407" y="613" type="line"/>
    </contour>
  </outline>
</glyph>
<glyph name="degree" format="1">
  <advance width="337"/>
  <unicode hex="00B0"/>
  <outline>
    <contour>
      <point x="175" y="713" type="curve" name="hr00"/>
      <point x="119" y="713"/>
      <point x="92" y="665"/>
      <point x="92" y="623" type="curve"/>
      <point x="92" y="578"/>
      <point x="119" y="533"/>
      <point x="175" y="533" type="curve"/>
      <point x="234" y="533"/>
      <point x="259" y="587"/>
      <point x="259" y="623" type="curve"/>
      <point x="259" y="678"/>
      <point x="218" y="713"/>
    </contour>
    <contour>
      <point x="29" y="623" type="curve"/>
      <point x="29" y="698"/>
      <point x="92" y="763"/>
      <point x="175" y="763" type="curve"/>
      <point x="243" y="763"/>
      <point x="321" y="714"/>
      <point x="321" y="623" type="curve"/>
      <point x="321" y="533"/>
      <point x="243" y="483"/>
      <point x="175" y="483" type="curve"/>
      <point x="97" y="483"/>
      <point x="29" y="542"/>
    </contour>
  </outline>
</glyph>
<glyph name="plusminus" format="1">
  <advance width="568"/>
  <unicode hex="00B1"/>
  <outline>
    <contour>
      <point x="47" y="367" type="line" name="hr00"/>
      <point x="244" y="367" type="line"/>
      <point x="244" y="546" type="line"/>
      <point x="317" y="546" type="line"/>
      <point x="317" y="367" type="line"/>
      <point x="515" y="367" type="line"/>
      <point x="515" y="303" type="line"/>
      <point x="317" y="303" type="line"/>
      <point x="317" y="122" type="line"/>
      <point x="244" y="122" type="line"/>
      <point x="244" y="303" type="line"/>
      <point x="47" y="303" type="line"/>
    </contour>
    <contour>
      <point x="47" y="0" type="line"/>
      <point x="47" y="63" type="line"/>
      <point x="515" y="63" type="line"/>
      <point x="515" y="0" type="line"/>
    </contour>
  </outline>
</glyph>
<glyph name="twosuperior" format="1">
  <advance width="402"/>
  <unicode hex="00B2"/>
  <outline>
    <contour>
      <point x="327" y="628" type="curve" smooth="yes" name="hr00"/>
      <point x="327" y="532"/>
      <point x="212" y="455"/>
      <point x="164" y="377" type="curve"/>
      <point x="155" y="367" type="line"/>
      <point x="168" y="369" type="line"/>
      <point x="334" y="369" type="line"/>
      <point x="334" y="310" type="line"/>
      <point x="73" y="310" type="line"/>
      <point x="73" y="346" type="line"/>
      <point x="152" y="475"/>
      <point x="258" y="542"/>
      <point x="258" y="621" type="curve"/>
      <point x="258" y="666"/>
      <point x="227" y="682"/>
      <point x="185" y="682" type="curve"/>
      <point x="162" y="682"/>
      <point x="139" y="676"/>
      <point x="112" y="665" type="curve"/>
      <point x="90" y="711" type="line"/>
      <point x="126" y="731"/>
      <point x="159" y="736"/>
      <point x="191" y="736" type="curve" smooth="yes"/>
      <point x="263" y="736"/>
      <point x="327" y="697"/>
    </contour>
  </outline>
</glyph>
<glyph name="threesuperior" format="1">
  <advance width="381"/>
  <unicode hex="00B3"/>
  <outline>
    <contour>
      <point x="297" y="640" type="curve" smooth="yes" name="hr02"/>
      <point x="297" y="598"/>
      <point x="266" y="559"/>
      <point x="220" y="538" type="curve"/>
      <point x="266" y="527"/>
      <point x="311" y="492"/>
      <point x="311" y="432" type="curve" smooth="yes"/>
      <point x="311" y="363"/>
      <point x="250" y="301"/>
      <point x="158" y="301" type="curve" smooth="yes"/>
      <point x="112" y="301"/>
      <point x="75" y="317"/>
      <point x="55" y="329" type="curve"/>
      <point x="73" y="376" type="line"/>
      <point x="97" y="366"/>
      <point x="119" y="356"/>
      <point x="157" y="356" type="curve" smooth="yes"/>
      <point x="212" y="356"/>
      <point x="241" y="395"/>
      <point x="241" y="433" type="curve" smooth="yes"/>
      <point x="241" y="483"/>
      <point x="199" y="504"/>
      <point x="131" y="504" type="curve" name="hr01"/>
      <point x="125" y="548" type="line"/>
      <point x="157" y="561" type="line" smooth="yes"/>
      <point x="193" y="576"/>
      <point x="227" y="596"/>
      <point x="227" y="631" type="curve"/>
      <point x="227" y="660"/>
      <point x="206" y="680"/>
      <point x="170" y="680" type="curve" smooth="yes"/>
      <point x="147" y="680"/>
      <point x="121" y="674"/>
      <point x="94" y="663" type="curve"/>
      <point x="71" y="710" type="line"/>
      <point x="108" y="730"/>
      <point x="143" y="735"/>
      <point x="176" y="735" type="curve" smooth="yes"/>
      <point x="249" y="735"/>
      <point x="297" y="695"/>
    </contour>
  </outline>
</glyph>
<glyph name="mu" format="1">
  <advance width="553"/>
  <unicode hex="00B5"/>
  <outline>
    <contour>
      <point x="396" y="61" type="line"/>
      <point x="371" y="26"/>
      <point x="331" y="-10"/>
      <point x="265" y="-10" type="curve" smooth="yes" name="hr01"/>
      <point x="227" y="-10"/>
      <point x="194" y="3"/>
      <point x="173" y="25" type="curve"/>
      <point x="158" y="47" type="line"/>
      <point x="160" y="15" type="line"/>
      <point x="160" y="-211" type="line"/>
      <point x="74" y="-211" type="line"/>
      <point x="74" y="517" type="line"/>
      <point x="166" y="517" type="line"/>
      <point x="166" y="210" type="line" smooth="yes"/>
      <point x="166" y="131"/>
      <point x="200" y="65"/>
      <point x="274" y="65" type="curve" smooth="yes"/>
      <point x="336" y="65"/>
      <point x="397" y="127"/>
      <point x="397" y="199" type="curve" smooth="yes"/>
      <point x="397" y="517" type="line"/>
      <point x="490" y="517" type="line"/>
      <point x="490" y="141" type="line" smooth="yes"/>
      <point x="490" y="85"/>
      <point x="504" y="65"/>
      <point x="545" y="67" type="curve"/>
      <point x="554" y="3" type="line"/>
      <point x="532" y="-5"/>
      <point x="515" y="-8"/>
      <point x="500" y="-8" type="curve" smooth="yes"/>
      <point x="459" y="-8"/>
      <point x="425" y="10"/>
      <point x="412" y="61" type="curve"/>
      <point x="408" y="85" type="line"/>
    </contour>
  </outline>
</glyph>
<glyph name="paragraph" format="1">
  <advance width="609"/>
  <unicode hex="00B6"/>
  <outline>
    <contour>
      <point x="325" y="304" type="line" name="hr00"/>
      <point x="324" y="304"/>
      <point x="323" y="305"/>
      <point x="323" y="305" type="curve"/>
      <point x="203" y="315"/>
      <point x="104" y="397"/>
      <point x="104" y="520" type="curve" smooth="yes"/>
      <point x="104" y="636"/>
      <point x="192" y="740"/>
      <point x="353" y="740" type="curve" smooth="yes"/>
      <point x="426" y="740"/>
      <point x="476" y="735"/>
      <point x="551" y="720" type="curve"/>
      <point x="551" y="-30" type="line"/>
      <point x="478" y="-30" type="line"/>
      <point x="478" y="658" type="line"/>
      <point x="448" y="663"/>
      <point x="422" y="665"/>
      <point x="398" y="666" type="curve"/>
      <point x="398" y="-30" type="line"/>
      <point x="325" y="-30" type="line"/>
    </contour>
  </outline>
</glyph>
<glyph name="periodcentered" format="1">
  <advance width="306"/>
  <unicode hex="00B7"/>
  <outline>
    <contour>
      <point x="93" y="304" type="curve" smooth="yes" name="hr00"/>
      <point x="93" y="339"/>
      <point x="118" y="365"/>
      <point x="152" y="365" type="curve" smooth="yes"/>
      <point x="187" y="365"/>
      <point x="213" y="339"/>
      <point x="213" y="304" type="curve" smooth="yes"/>
      <point x="213" y="270"/>
      <point x="187" y="245"/>
      <point x="152" y="245" type="curve" smooth="yes"/>
      <point x="118" y="245"/>
      <point x="93" y="270"/>
    </contour>
  </outline>
</glyph>
<glyph name="cedilla" format="1">
  <advance width="500"/>
  <unicode hex="00B8"/>
  <outline>
    <contour>
      <point x="281" y="2" type="line" name="hr00"/>
      <point x="268" y="-50" type="line"/>
      <point x="306" y="-54"/>
      <point x="348" y="-82"/>
      <point x="348" y="-123" type="curve" smooth="yes"/>
      <point x="348" y="-183"/>
      <point x="288" y="-206"/>
      <point x="234" y="-206" type="curve" smooth="yes"/>
      <point x="211" y="-206"/>
      <point x="187" y="-201"/>
      <point x="155" y="-187" type="curve"/>
      <point x="169" y="-144" type="line"/>
      <point x="194" y="-154"/>
      <point x="214" y="-157"/>
      <point x="234" y="-157" type="curve" smooth="yes"/>
      <point x="257" y="-157"/>
      <point x="287" y="-150"/>
      <point x="287" y="-126" type="curve" smooth="yes"/>
      <point x="287" y="-101"/>
      <point x="259" y="-89"/>
      <point x="212" y="-84" type="curve"/>
      <point x="234" y="-2" type="line"/>
    </contour>
  </outline>
</glyph>
<glyph name="onesuperior" format="1">
  <advance width="319"/>
  <unicode hex="00B9"/>
  <outline>
    <contour>
      <point x="182" y="309" type="line" name="hr00"/>
      <point x="182" y="645" type="line"/>
      <point x="120" y="613" type="line"/>
      <point x="93" y="660" type="line"/>
      <point x="218" y="727" type="line"/>
      <point x="251" y="727" type="line"/>
      <point x="251" y="309" type="line"/>
    </contour>
  </outline>
</glyph>
<glyph name="ordmasculine" format="1">
  <advance width="430"/>
  <unicode hex="00BA"/>
  <outline>
    <contour>
      <point x="214" y="294" type="curve" name="hr00"/>
      <point x="113" y="294"/>
      <point x="45" y="368"/>
      <point x="45" y="483" type="curve"/>
      <point x="45" y="587"/>
      <point x="109" y="671"/>
      <point x="214" y="671" type="curve"/>
      <point x="304" y="671"/>
      <point x="383" y="609"/>
      <point x="383" y="483" type="curve"/>
      <point x="383" y="367"/>
      <point x="312" y="294"/>
    </contour>
    <contour>
      <point x="118" y="483" type="curve"/>
      <point x="118" y="394"/>
      <point x="159" y="349"/>
      <point x="214" y="349" type="curve"/>
      <point x="278" y="349"/>
      <point x="311" y="412"/>
      <point x="311" y="483" type="curve"/>
      <point x="311" y="547"/>
      <point x="287" y="617"/>
      <point x="214" y="617" type="curve"/>
      <point x="149" y="617"/>
      <point x="118" y="552"/>
    </contour>
  </outline>
</glyph>
<glyph name="guillemotright" format="1">
  <advance width="613"/>
  <unicode hex="00BB"/>
  <outline>
    <contour>
      <point x="114" y="50" type="line" name="hr00"/>
      <point x="70" y="93" type="line"/>
      <point x="214" y="258" type="line"/>
      <point x="70" y="423" type="line"/>
      <point x="114" y="466" type="line"/>
      <point x="330" y="258" type="line"/>
    </contour>
    <contour>
      <point x="364" y="50" type="line"/>
      <point x="320" y="93" type="line"/>
      <point x="464" y="258" type="line"/>
      <point x="320" y="423" type="line"/>
      <point x="364" y="466" type="line"/>
      <point x="580" y="258" type="line"/>
    </contour>
  </outline>
</glyph>
<glyph name="onequarter" format="1">
  <advance width="698"/>
  <unicode hex="00BC"/>
  <outline>
    <contour>
      <point x="89" y="0" type="line" name="hr00"/>
      <point x="525" y="727" type="line"/>
      <point x="587" y="727" type="line"/>
      <point x="151" y="0" type="line"/>
    </contour>
    <contour>
      <point x="122" y="309" type="line"/>
      <point x="122" y="645" type="line"/>
      <point x="60" y="613" type="line"/>
      <point x="33" y="660" type="line"/>
      <point x="158" y="727" type="line"/>
      <point x="191" y="727" type="line"/>
      <point x="191" y="309" type="line"/>
    </contour>
    <contour>
      <point x="535" y="423" type="line"/>
      <point x="608" y="423" type="line"/>
      <point x="608" y="143" type="line"/>
      <point x="656" y="143" type="line"/>
      <point x="656" y="89" type="line"/>
      <point x="608" y="89" type="line"/>
      <point x="608" y="0" type="line"/>
      <point x="544" y="0" type="line"/>
      <point x="544" y="312" type="line"/>
      <point x="546" y="336" type="line"/>
      <point x="533" y="314" type="line"/>
      <point x="422" y="154" type="line"/>
      <point x="411" y="142" type="line"/>
      <point x="428" y="144" type="line"/>
      <point x="443" y="144" type="line"/>
      <point x="483" y="144"/>
      <point x="505" y="110"/>
      <point x="515" y="89" type="curve"/>
      <point x="348" y="89" type="line"/>
      <point x="348" y="145" type="line"/>
    </contour>
  </outline>
</glyph>
<glyph name="onehalf" format="1">
  <advance width="763"/>
  <unicode hex="00BD"/>
  <outline>
    <contour>
      <point x="89" y="0" type="line" name="hr00"/>
      <point x="525" y="727" type="line"/>
      <point x="587" y="727" type="line"/>
      <point x="151" y="0" type="line"/>
    </contour>
    <contour>
      <point x="122" y="309" type="line"/>
      <point x="122" y="645" type="line"/>
      <point x="60" y="613" type="line"/>
      <point x="33" y="660" type="line"/>
      <point x="158" y="727" type="line"/>
      <point x="191" y="727" type="line"/>
      <point x="191" y="309" type="line"/>
    </contour>
    <contour>
      <point x="680" y="318" type="curve" smooth="yes"/>
      <point x="680" y="222"/>
      <point x="565" y="145"/>
      <point x="517" y="67" type="curve"/>
      <point x="508" y="57" type="line"/>
      <point x="521" y="59" type="line"/>
      <point x="687" y="59" type="line"/>
      <point x="687" y="0" type="line"/>
      <point x="426" y="0" type="line"/>
      <point x="426" y="36" type="line"/>
      <point x="505" y="165"/>
      <point x="611" y="232"/>
      <point x="611" y="311" type="curve"/>
      <point x="611" y="356"/>
      <point x="580" y="372"/>
      <point x="538" y="372" type="curve"/>
      <point x="515" y="372"/>
      <point x="492" y="366"/>
      <point x="465" y="355" type="curve"/>
      <point x="443" y="401" type="line"/>
      <point x="479" y="421"/>
      <point x="512" y="426"/>
      <point x="544" y="426" type="curve" smooth="yes"/>
      <point x="616" y="426"/>
      <point x="680" y="387"/>
    </contour>
  </outline>
</glyph>
<glyph name="threequarters" format="1">
  <advance width="716"/>
  <unicode hex="00BE"/>
  <outline>
    <contour>
      <point x="127" y="0" type="line"/>
      <point x="563" y="727" type="line"/>
      <point x="625" y="727" type="line"/>
      <point x="189" y="0" type="line"/>
    </contour>
    <contour>
      <point x="573" y="423" type="line"/>
      <point x="646" y="423" type="line"/>
      <point x="646" y="143" type="line"/>
      <point x="694" y="143" type="line"/>
      <point x="694" y="89" type="line"/>
      <point x="646" y="89" type="line"/>
      <point x="646" y="0" type="line"/>
      <point x="582" y="0" type="line"/>
      <point x="582" y="330" type="line"/>
      <point x="453" y="144" type="line"/>
      <point x="481" y="144" type="line"/>
      <point x="521" y="144"/>
      <point x="543" y="110"/>
      <point x="553" y="89" type="curve"/>
      <point x="386" y="89" type="line"/>
      <point x="386" y="145" type="line"/>
    </contour>
    <contour>
      <point x="266" y="640" type="curve" smooth="yes" name="hr03"/>
      <point x="266" y="598"/>
      <point x="235" y="559"/>
      <point x="189" y="538" type="curve"/>
      <point x="235" y="527"/>
      <point x="280" y="492"/>
      <point x="280" y="432" type="curve" smooth="yes"/>
      <point x="280" y="363"/>
      <point x="219" y="301"/>
      <point x="127" y="301" type="curve" smooth="yes"/>
      <point x="81" y="301"/>
      <point x="44" y="317"/>
      <point x="24" y="329" type="curve"/>
      <point x="42" y="376" type="line"/>
      <point x="66" y="366"/>
      <point x="88" y="356"/>
      <point x="126" y="356" type="curve" smooth="yes"/>
      <point x="181" y="356"/>
      <point x="210" y="395"/>
      <point x="210" y="433" type="curve" smooth="yes"/>
      <point x="210" y="483"/>
      <point x="168" y="504"/>
      <point x="100" y="504" type="curve" name="hr02"/>
      <point x="94" y="548" type="line"/>
      <point x="126" y="561" type="line" smooth="yes"/>
      <point x="162" y="576"/>
      <point x="196" y="596"/>
      <point x="196" y="631" type="curve"/>
      <point x="196" y="660"/>
      <point x="175" y="680"/>
      <point x="139" y="680" type="curve" smooth="yes"/>
      <point x="116" y="680"/>
      <point x="90" y="674"/>
      <point x="63" y="663" type="curve"/>
      <point x="40" y="710" type="line"/>
      <point x="77" y="730"/>
      <point x="112" y="735"/>
      <point x="145" y="735" type="curve" smooth="yes" name="hr01"/>
      <point x="218" y="735"/>
      <point x="266" y="695"/>
    </contour>
  </outline>
</glyph>
<glyph name="questiondown" format="1">
  <advance width="583"/>
  <unicode hex="00BF"/>
  <outline>
    <contour>
      <point x="302" y="-220" type="curve" smooth="yes"/>
      <point x="187" y="-220"/>
      <point x="108" y="-154"/>
      <point x="108" y="-70" type="curve" smooth="yes"/>
      <point x="108" y="97"/>
      <point x="302" y="149"/>
      <point x="302" y="332" type="curve"/>
      <point x="374" y="332" type="line"/>
      <point x="374" y="115"/>
      <point x="206" y="79"/>
      <point x="206" y="-55" type="curve" smooth="yes"/>
      <point x="206" y="-108"/>
      <point x="250" y="-148"/>
      <point x="312" y="-148" type="curve"/>
      <point x="350" y="-148"/>
      <point x="393" y="-141"/>
      <point x="446" y="-112" type="curve"/>
      <point x="471" y="-179" type="line"/>
      <point x="410" y="-212"/>
      <point x="357" y="-220"/>
    </contour>
    <contour>
      <point x="399" y="473" type="curve" smooth="yes"/>
      <point x="399" y="438"/>
      <point x="373" y="412"/>
      <point x="339" y="412" type="curve" smooth="yes"/>
      <point x="304" y="412"/>
      <point x="278" y="438"/>
      <point x="278" y="473" type="curve" smooth="yes"/>
      <point x="278" y="507"/>
      <point x="304" y="532"/>
      <point x="339" y="532" type="curve" smooth="yes"/>
      <point x="373" y="532"/>
      <point x="399" y="507"/>
    </contour>
  </outline>
</glyph>
<glyph name="Aacute" format="1">
  <advance width="687"/>
  <unicode hex="00C1"/>
  <outline>
    <contour>
      <point x="390" y="727" type="line" name="hr00"/>
      <point x="652" y="0" type="line"/>
      <point x="550" y="0" type="line"/>
      <point x="340" y="605" type="line"/>
      <point x="221" y="265" type="line"/>
      <point x="210" y="244" type="line"/>
      <point x="222" y="246" type="line"/>
      <point x="357" y="246" type="line" smooth="yes"/>
      <point x="405" y="246"/>
      <point x="428" y="212"/>
      <point x="442" y="174" type="curve"/>
      <point x="190" y="174" type="line"/>
      <point x="130" y="0" type="line"/>
      <point x="35" y="0" type="line"/>
      <point x="297" y="727" type="line"/>
    </contour>
    <contour>
      <point x="392" y="792" type="line"/>
      <point x="365" y="763"/>
      <point x="328" y="758"/>
      <point x="294" y="766" type="curve"/>
      <point x="383" y="890" type="line"/>
      <point x="480" y="890" type="line"/>
    </contour>
  </outline>
</glyph>
<glyph name="Acircumflex" format="1">
  <advance width="687"/>
  <unicode hex="00C2"/>
  <outline>
    <contour>
      <point x="390" y="727" type="line" name="hr00"/>
      <point x="652" y="0" type="line"/>
      <point x="550" y="0" type="line"/>
      <point x="340" y="605" type="line"/>
      <point x="221" y="265" type="line"/>
      <point x="210" y="244" type="line"/>
      <point x="222" y="246" type="line"/>
      <point x="357" y="246" type="line" smooth="yes"/>
      <point x="405" y="246"/>
      <point x="428" y="212"/>
      <point x="442" y="174" type="curve"/>
      <point x="190" y="174" type="line"/>
      <point x="130" y="0" type="line"/>
      <point x="35" y="0" type="line"/>
      <point x="297" y="727" type="line"/>
    </contour>
    <contour>
      <point x="369" y="890" type="line"/>
      <point x="480" y="770" type="line"/>
      <point x="428" y="762" type="line"/>
      <point x="340" y="821" type="line"/>
      <point x="252" y="761" type="line"/>
      <point x="203" y="770" type="line"/>
      <point x="312" y="890" type="line"/>
    </contour>
  </outline>
</glyph>
<glyph name="Atilde" format="1">
  <advance width="687"/>
  <unicode hex="00C3"/>
  <outline>
    <contour>
      <point x="390" y="727" type="line"/>
      <point x="652" y="0" type="line"/>
      <point x="550" y="0" type="line"/>
      <point x="340" y="605" type="line"/>
      <point x="221" y="265" type="line"/>
      <point x="210" y="244" type="line"/>
      <point x="222" y="246" type="line"/>
      <point x="357" y="246" type="line" smooth="yes"/>
      <point x="405" y="246"/>
      <point x="428" y="212"/>
      <point x="442" y="174" type="curve"/>
      <point x="190" y="174" type="line"/>
      <point x="130" y="0" type="line"/>
      <point x="35" y="0" type="line"/>
      <point x="297" y="727" type="line"/>
    </contour>
    <contour>
      <point x="202" y="783" type="line"/>
      <point x="204" y="858"/>
      <point x="243" y="890"/>
      <point x="291" y="891" type="curve" smooth="yes" name="hr01"/>
      <point x="315" y="891"/>
      <point x="337" y="883"/>
      <point x="355" y="867" type="curve" smooth="yes"/>
      <point x="373" y="851"/>
      <point x="383" y="835"/>
      <point x="409" y="835" type="curve" smooth="yes"/>
      <point x="427" y="835"/>
      <point x="437" y="856"/>
      <point x="440" y="893" type="curve"/>
      <point x="493" y="887" type="line"/>
      <point x="489" y="803"/>
      <point x="447" y="779"/>
      <point x="409" y="779" type="curve" smooth="yes"/>
      <point x="383" y="779"/>
      <point x="361" y="786"/>
      <point x="344" y="802" type="curve" smooth="yes"/>
      <point x="325" y="818"/>
      <point x="315" y="835"/>
      <point x="292" y="835" type="curve" smooth="yes"/>
      <point x="275" y="835"/>
      <point x="260" y="819"/>
      <point x="257" y="777" type="curve"/>
    </contour>
  </outline>
</glyph>
<glyph name="Adieresis" format="1">
  <advance width="687"/>
  <unicode hex="00C4"/>
  <outline>
    <contour>
      <point x="390" y="727" type="line" name="hr00"/>
      <point x="652" y="0" type="line"/>
      <point x="550" y="0" type="line"/>
      <point x="340" y="605" type="line"/>
      <point x="221" y="265" type="line"/>
      <point x="210" y="244" type="line"/>
      <point x="222" y="246" type="line"/>
      <point x="357" y="246" type="line" smooth="yes"/>
      <point x="405" y="246"/>
      <point x="428" y="212"/>
      <point x="442" y="174" type="curve"/>
      <point x="190" y="174" type="line"/>
      <point x="130" y="0" type="line"/>
      <point x="35" y="0" type="line"/>
      <point x="297" y="727" type="line"/>
    </contour>
    <contour>
      <point x="194" y="840" type="curve" smooth="yes"/>
      <point x="194" y="869"/>
      <point x="218" y="892"/>
      <point x="246" y="892" type="curve" smooth="yes"/>
      <point x="275" y="892"/>
      <point x="299" y="869"/>
      <point x="299" y="840" type="curve" smooth="yes"/>
      <point x="299" y="811"/>
      <point x="275" y="788"/>
      <point x="246" y="788" type="curve" smooth="yes"/>
      <point x="218" y="788"/>
      <point x="194" y="811"/>
    </contour>
    <contour>
      <point x="388" y="840" type="curve" smooth="yes"/>
      <point x="388" y="869"/>
      <point x="412" y="892"/>
      <point x="441" y="892" type="curve" smooth="yes"/>
      <point x="469" y="892"/>
      <point x="493" y="869"/>
      <point x="493" y="840" type="curve" smooth="yes"/>
      <point x="493" y="811"/>
      <point x="469" y="788"/>
      <point x="441" y="788" type="curve" smooth="yes"/>
      <point x="412" y="788"/>
      <point x="388" y="811"/>
    </contour>
  </outline>
</glyph>
<glyph name="Aring" format="1">
  <advance width="687"/>
  <unicode hex="00C5"/>
  <outline>
    <contour>
      <point x="35" y="0" type="line" name="hr00"/>
      <point x="295" y="723" type="line"/>
      <point x="262" y="737"/>
      <point x="242" y="766"/>
      <point x="242" y="801" type="curve" smooth="yes"/>
      <point x="242" y="853"/>
      <point x="283" y="891"/>
      <point x="341" y="891" type="curve" smooth="yes"/>
      <point x="400" y="891"/>
      <point x="438" y="854"/>
      <point x="438" y="802" type="curve" smooth="yes"/>
      <point x="438" y="768"/>
      <point x="419" y="740"/>
      <point x="390" y="726" type="curve"/>
      <point x="652" y="0" type="line"/>
      <point x="550" y="0" type="line"/>
      <point x="340" y="605" type="line"/>
      <point x="221" y="265" type="line"/>
      <point x="210" y="244" type="line"/>
      <point x="222" y="246" type="line"/>
      <point x="357" y="246" type="line" smooth="yes"/>
      <point x="405" y="246"/>
      <point x="428" y="212"/>
      <point x="442" y="174" type="curve"/>
      <point x="190" y="174" type="line"/>
      <point x="130" y="0" type="line"/>
    </contour>
    <contour>
      <point x="340" y="752" type="curve" smooth="yes"/>
      <point x="371" y="752"/>
      <point x="390" y="774"/>
      <point x="390" y="803" type="curve" smooth="yes"/>
      <point x="390" y="832"/>
      <point x="371" y="854"/>
      <point x="340" y="854" type="curve" smooth="yes"/>
      <point x="312" y="854"/>
      <point x="292" y="832"/>
      <point x="292" y="801" type="curve" smooth="yes"/>
      <point x="292" y="776"/>
      <point x="311" y="752"/>
    </contour>
  </outline>
</glyph>
<glyph name="AE" format="1">
  <advance width="975"/>
  <unicode hex="00C6"/>
  <outline>
    <contour>
      <point x="438" y="605" type="line" name="hr00"/>
      <point x="436" y="645" type="line"/>
      <point x="421" y="605" type="line"/>
      <point x="251" y="265" type="line"/>
      <point x="237" y="244" type="line"/>
      <point x="255" y="246" type="line"/>
      <point x="383" y="246" type="line" smooth="yes"/>
      <point x="431" y="246"/>
      <point x="454" y="212"/>
      <point x="468" y="174" type="curve"/>
      <point x="207" y="174" type="line"/>
      <point x="120" y="0" type="line"/>
      <point x="21" y="0" type="line"/>
      <point x="390" y="727" type="line"/>
      <point x="844" y="727" type="line"/>
      <point x="844" y="655" type="line"/>
      <point x="520" y="655" type="line"/>
      <point x="610" y="72" type="line"/>
      <point x="914" y="72" type="line"/>
      <point x="914" y="0" type="line"/>
      <point x="533" y="0" type="line"/>
    </contour>
    <contour>
      <point x="854" y="416" type="line"/>
      <point x="854" y="346" type="line"/>
      <point x="602" y="346" type="line"/>
      <point x="614" y="384"/>
      <point x="636" y="416"/>
      <point x="684" y="416" type="curve"/>
    </contour>
  </outline>
</glyph>
<glyph name="Ccedilla" format="1">
  <advance width="652"/>
  <unicode hex="00C7"/>
  <outline>
    <contour>
      <point x="434" y="-12" type="curve" smooth="yes" name="hr00"/>
      <point x="421" y="-12"/>
      <point x="408" y="-11"/>
      <point x="396" y="-10" type="curve"/>
      <point x="386" y="-50" type="line"/>
      <point x="424" y="-54"/>
      <point x="466" y="-82"/>
      <point x="466" y="-123" type="curve" smooth="yes"/>
      <point x="466" y="-183"/>
      <point x="406" y="-206"/>
      <point x="352" y="-206" type="curve" smooth="yes"/>
      <point x="329" y="-206"/>
      <point x="305" y="-201"/>
      <point x="273" y="-187" type="curve"/>
      <point x="287" y="-144" type="line"/>
      <point x="312" y="-154"/>
      <point x="332" y="-157"/>
      <point x="352" y="-157" type="curve" smooth="yes"/>
      <point x="375" y="-157"/>
      <point x="405" y="-150"/>
      <point x="405" y="-126" type="curve" smooth="yes"/>
      <point x="405" y="-101"/>
      <point x="377" y="-89"/>
      <point x="330" y="-84" type="curve"/>
      <point x="351" y="-4" type="line"/>
      <point x="188" y="29"/>
      <point x="72" y="165"/>
      <point x="72" y="362" type="curve" smooth="yes"/>
      <point x="72" y="586"/>
      <point x="229" y="740"/>
      <point x="434" y="740" type="curve" smooth="yes"/>
      <point x="490" y="740"/>
      <point x="550" y="729"/>
      <point x="611" y="706" type="curve"/>
      <point x="585" y="641" type="line"/>
      <point x="527" y="660"/>
      <point x="480" y="667"/>
      <point x="434" y="667" type="curve" smooth="yes"/>
      <point x="296" y="667"/>
      <point x="174" y="566"/>
      <point x="174" y="362" type="curve" smooth="yes"/>
      <point x="174" y="166"/>
      <point x="296" y="60"/>
      <point x="434" y="60" type="curve" smooth="yes"/>
      <point x="480" y="60"/>
      <point x="530" y="71"/>
      <point x="585" y="99" type="curve"/>
      <point x="611" y="34" type="line"/>
      <point x="549" y="1"/>
      <point x="490" y="-12"/>
    </contour>
  </outline>
</glyph>
<glyph name="Egrave" format="1">
  <advance width="577"/>
  <unicode hex="00C8"/>
  <outline>
    <contour>
      <point x="89" y="727" type="line"/>
      <point x="503" y="727" type="line"/>
      <point x="503" y="655" type="line"/>
      <point x="184" y="655" type="line"/>
      <point x="184" y="72" type="line"/>
      <point x="518" y="72" type="line"/>
      <point x="518" y="0" type="line"/>
      <point x="89" y="0" type="line"/>
    </contour>
    <contour>
      <point x="469" y="416" type="line"/>
      <point x="469" y="346" type="line"/>
      <point x="222" y="346" type="line"/>
      <point x="236" y="384"/>
      <point x="260" y="416"/>
      <point x="308" y="416" type="curve"/>
    </contour>
    <contour>
      <point x="188" y="890" type="line"/>
      <point x="282" y="890" type="line" name="hr01"/>
      <point x="356" y="766" type="line"/>
      <point x="322" y="758"/>
      <point x="283" y="763"/>
      <point x="261" y="792" type="curve"/>
    </contour>
  </outline>
</glyph>
<glyph name="Ecircumflex" format="1">
  <advance width="577"/>
  <unicode hex="00CA"/>
  <outline>
    <contour>
      <point x="89" y="727" type="line" name="hr00"/>
      <point x="503" y="727" type="line"/>
      <point x="503" y="655" type="line"/>
      <point x="184" y="655" type="line"/>
      <point x="184" y="72" type="line"/>
      <point x="518" y="72" type="line"/>
      <point x="518" y="0" type="line"/>
      <point x="89" y="0" type="line"/>
    </contour>
    <contour>
      <point x="469" y="416" type="line"/>
      <point x="469" y="346" type="line"/>
      <point x="222" y="346" type="line"/>
      <point x="236" y="384"/>
      <point x="260" y="416"/>
      <point x="308" y="416" type="curve"/>
    </contour>
    <contour>
      <point x="331" y="890" type="line"/>
      <point x="442" y="770" type="line"/>
      <point x="390" y="762" type="line"/>
      <point x="302" y="821" type="line"/>
      <point x="214" y="761" type="line"/>
      <point x="165" y="770" type="line"/>
      <point x="274" y="890" type="line"/>
    </contour>
  </outline>
</glyph>
<glyph name="Edieresis" format="1">
  <advance width="577"/>
  <unicode hex="00CB"/>
  <outline>
    <contour>
      <point x="89" y="727" type="line"/>
      <point x="503" y="727" type="line"/>
      <point x="503" y="655" type="line"/>
      <point x="184" y="655" type="line"/>
      <point x="184" y="72" type="line"/>
      <point x="518" y="72" type="line"/>
      <point x="518" y="0" type="line"/>
      <point x="89" y="0" type="line"/>
    </contour>
    <contour>
      <point x="469" y="416" type="line"/>
      <point x="469" y="346" type="line"/>
      <point x="222" y="346" type="line"/>
      <point x="236" y="384"/>
      <point x="260" y="416"/>
      <point x="308" y="416" type="curve"/>
    </contour>
    <contour>
      <point x="151" y="840" type="curve" smooth="yes"/>
      <point x="151" y="869"/>
      <point x="175" y="892"/>
      <point x="203" y="892" type="curve" smooth="yes"/>
      <point x="232" y="892"/>
      <point x="256" y="869"/>
      <point x="256" y="840" type="curve" smooth="yes"/>
      <point x="256" y="811"/>
      <point x="232" y="788"/>
      <point x="203" y="788" type="curve" smooth="yes"/>
      <point x="175" y="788"/>
      <point x="151" y="811"/>
    </contour>
    <contour>
      <point x="345" y="840" type="curve" smooth="yes"/>
      <point x="345" y="869"/>
      <point x="369" y="892"/>
      <point x="398" y="892" type="curve" smooth="yes"/>
      <point x="426" y="892"/>
      <point x="450" y="869"/>
      <point x="450" y="840" type="curve" smooth="yes"/>
      <point x="450" y="811"/>
      <point x="426" y="788"/>
      <point x="398" y="788" type="curve" smooth="yes"/>
      <point x="369" y="788"/>
      <point x="345" y="811"/>
    </contour>
  </outline>
</glyph>
<glyph name="Igrave" format="1">
  <advance width="279"/>
  <unicode hex="00CC"/>
  <outline>
    <contour>
      <point x="190" y="0" type="line" name="hr00"/>
      <point x="98" y="0" type="line"/>
      <point x="98" y="727" type="line"/>
      <point x="190" y="727" type="line"/>
    </contour>
    <contour>
      <point x="27" y="890" type="line"/>
      <point x="121" y="890" type="line"/>
      <point x="195" y="766" type="line"/>
      <point x="161" y="758"/>
      <point x="122" y="763"/>
      <point x="100" y="792" type="curve"/>
    </contour>
  </outline>
</glyph>
<glyph name="Iacute" format="1">
  <advance width="321"/>
  <unicode hex="00CD"/>
  <outline>
    <contour>
      <point x="181" y="0" type="line" name="hr00"/>
      <point x="89" y="0" type="line"/>
      <point x="89" y="727" type="line"/>
      <point x="181" y="727" type="line"/>
    </contour>
    <contour>
      <point x="182" y="792" type="line"/>
      <point x="155" y="763"/>
      <point x="118" y="758"/>
      <point x="84" y="766" type="curve"/>
      <point x="173" y="890" type="line"/>
      <point x="270" y="890" type="line"/>
    </contour>
  </outline>
</glyph>
<glyph name="Icircumflex" format="1">
  <advance width="321"/>
  <unicode hex="00CE"/>
  <outline>
    <contour>
      <point x="205" y="0" type="line" name="hr00"/>
      <point x="113" y="0" type="line"/>
      <point x="113" y="727" type="line"/>
      <point x="205" y="727" type="line"/>
    </contour>
    <contour>
      <point x="188" y="890" type="line"/>
      <point x="299" y="770" type="line"/>
      <point x="247" y="762" type="line"/>
      <point x="159" y="821" type="line"/>
      <point x="71" y="761" type="line"/>
      <point x="22" y="770" type="line"/>
      <point x="131" y="890" type="line"/>
    </contour>
  </outline>
</glyph>
<glyph name="Idieresis" format="1">
  <advance width="350"/>
  <unicode hex="00CF"/>
  <outline>
    <contour>
      <point x="218" y="0" type="line"/>
      <point x="126" y="0" type="line"/>
      <point x="126" y="727" type="line"/>
      <point x="218" y="727" type="line"/>
    </contour>
    <contour>
      <point x="23" y="840" type="curve" smooth="yes"/>
      <point x="23" y="869"/>
      <point x="47" y="892"/>
      <point x="75" y="892" type="curve" smooth="yes"/>
      <point x="104" y="892"/>
      <point x="128" y="869"/>
      <point x="128" y="840" type="curve" smooth="yes"/>
      <point x="128" y="811"/>
      <point x="104" y="788"/>
      <point x="75" y="788" type="curve" smooth="yes"/>
      <point x="47" y="788"/>
      <point x="23" y="811"/>
    </contour>
    <contour>
      <point x="217" y="840" type="curve" smooth="yes"/>
      <point x="217" y="869"/>
      <point x="241" y="892"/>
      <point x="270" y="892" type="curve" smooth="yes"/>
      <point x="298" y="892"/>
      <point x="322" y="869"/>
      <point x="322" y="840" type="curve" smooth="yes"/>
      <point x="322" y="811"/>
      <point x="298" y="788"/>
      <point x="270" y="788" type="curve" smooth="yes"/>
      <point x="241" y="788"/>
      <point x="217" y="811"/>
    </contour>
  </outline>
</glyph>
<glyph name="Eth" format="1">
  <advance width="713"/>
  <unicode hex="00D0"/>
  <outline>
    <contour>
      <point x="7" y="388" type="line"/>
      <point x="89" y="388" type="line"/>
      <point x="89" y="716" type="line"/>
      <point x="152" y="731"/>
      <point x="238" y="740"/>
      <point x="296" y="740" type="curve" smooth="yes"/>
      <point x="550" y="740"/>
      <point x="693" y="589"/>
      <point x="693" y="365" type="curve" smooth="yes"/>
      <point x="693" y="147"/>
      <point x="542" y="-12"/>
      <point x="364" y="-12" type="curve" smooth="yes"/>
      <point x="319" y="-12"/>
      <point x="282" y="-9"/>
      <point x="224" y="5" type="curve"/>
      <point x="243" y="40"/>
      <point x="273" y="66"/>
      <point x="318" y="62" type="curve" smooth="yes"/>
      <point x="339" y="60"/>
      <point x="347" y="60"/>
      <point x="363" y="60" type="curve" smooth="yes" name="hr01"/>
      <point x="491" y="60"/>
      <point x="591" y="198"/>
      <point x="591" y="365" type="curve" smooth="yes"/>
      <point x="591" y="558"/>
      <point x="493" y="667"/>
      <point x="296" y="667" type="curve" smooth="yes"/>
      <point x="256" y="667"/>
      <point x="216" y="664"/>
      <point x="184" y="660" type="curve"/>
      <point x="184" y="388" type="line"/>
      <point x="411" y="388" type="line"/>
      <point x="411" y="323" type="line"/>
      <point x="184" y="323" type="line"/>
      <point x="184" y="0" type="line"/>
      <point x="89" y="0" type="line"/>
      <point x="89" y="323" type="line"/>
      <point x="7" y="323" type="line"/>
    </contour>
  </outline>
</glyph>
<glyph name="Ntilde" format="1">
  <advance width="749"/>
  <unicode hex="00D1"/>
  <outline>
    <contour>
      <point x="197" y="581" type="line"/>
      <point x="183" y="615" type="line"/>
      <point x="185" y="581" type="line"/>
      <point x="185" y="0" type="line"/>
      <point x="104" y="0" type="line"/>
      <point x="104" y="727" type="line"/>
      <point x="199" y="727" type="line"/>
      <point x="552" y="163" type="line"/>
      <point x="564" y="130" type="line"/>
      <point x="562" y="165" type="line"/>
      <point x="562" y="727" type="line"/>
      <point x="646" y="727" type="line"/>
      <point x="646" y="0" type="line"/>
      <point x="561" y="0" type="line"/>
    </contour>
    <contour>
      <point x="233" y="783" type="line"/>
      <point x="235" y="858"/>
      <point x="274" y="890"/>
      <point x="322" y="891" type="curve" smooth="yes" name="hr01"/>
      <point x="346" y="891"/>
      <point x="368" y="883"/>
      <point x="386" y="867" type="curve" smooth="yes"/>
      <point x="404" y="851"/>
      <point x="414" y="835"/>
      <point x="440" y="835" type="curve" smooth="yes"/>
      <point x="458" y="835"/>
      <point x="468" y="856"/>
      <point x="471" y="893" type="curve"/>
      <point x="524" y="887" type="line"/>
      <point x="520" y="803"/>
      <point x="478" y="779"/>
      <point x="440" y="779" type="curve" smooth="yes"/>
      <point x="414" y="779"/>
      <point x="392" y="786"/>
      <point x="375" y="802" type="curve" smooth="yes"/>
      <point x="356" y="818"/>
      <point x="346" y="835"/>
      <point x="323" y="835" type="curve" smooth="yes"/>
      <point x="306" y="835"/>
      <point x="291" y="819"/>
      <point x="288" y="777" type="curve"/>
    </contour>
  </outline>
</glyph>
<glyph name="Oacute" format="1">
  <advance width="791"/>
  <unicode hex="00D3"/>
  <outline>
    <contour>
      <point x="719" y="364" type="curve"/>
      <point x="719" y="133"/>
      <point x="563" y="-14"/>
      <point x="382" y="-14" type="curve" smooth="yes"/>
      <point x="195" y="-14"/>
      <point x="45" y="128"/>
      <point x="45" y="364" type="curve" smooth="yes"/>
      <point x="45" y="595"/>
      <point x="202" y="742"/>
      <point x="382" y="742" type="curve" smooth="yes"/>
      <point x="571" y="742"/>
      <point x="719" y="599"/>
    </contour>
    <contour>
      <point x="617" y="364" type="curve"/>
      <point x="617" y="552"/>
      <point x="511" y="669"/>
      <point x="382" y="669" type="curve" smooth="yes"/>
      <point x="253" y="669"/>
      <point x="147" y="552"/>
      <point x="147" y="364" type="curve" smooth="yes"/>
      <point x="147" y="174"/>
      <point x="254" y="58"/>
      <point x="382" y="58" type="curve" smooth="yes"/>
      <point x="511" y="58"/>
      <point x="617" y="174"/>
    </contour>
    <contour>
      <point x="443" y="792" type="line"/>
      <point x="416" y="763"/>
      <point x="379" y="758"/>
      <point x="345" y="766" type="curve"/>
      <point x="434" y="890" type="line"/>
      <point x="531" y="890" type="line" name="hr01"/>
    </contour>
  </outline>
</glyph>
<glyph name="Ocircumflex" format="1">
  <advance width="791"/>
  <unicode hex="00D4"/>
  <outline>
    <contour>
      <point x="719" y="364" type="curve" name="hr00"/>
      <point x="719" y="133"/>
      <point x="563" y="-14"/>
      <point x="382" y="-14" type="curve" smooth="yes"/>
      <point x="195" y="-14"/>
      <point x="45" y="128"/>
      <point x="45" y="364" type="curve" smooth="yes"/>
      <point x="45" y="595"/>
      <point x="202" y="742"/>
      <point x="382" y="742" type="curve" smooth="yes"/>
      <point x="571" y="742"/>
      <point x="719" y="599"/>
    </contour>
    <contour>
      <point x="617" y="364" type="curve"/>
      <point x="617" y="552"/>
      <point x="511" y="669"/>
      <point x="382" y="669" type="curve" smooth="yes"/>
      <point x="253" y="669"/>
      <point x="147" y="552"/>
      <point x="147" y="364" type="curve" smooth="yes"/>
      <point x="147" y="174"/>
      <point x="254" y="58"/>
      <point x="382" y="58" type="curve" smooth="yes"/>
      <point x="511" y="58"/>
      <point x="617" y="174"/>
    </contour>
    <contour>
      <point x="412" y="890" type="line"/>
      <point x="523" y="770" type="line"/>
      <point x="471" y="762" type="line"/>
      <point x="383" y="821" type="line"/>
      <point x="295" y="761" type="line"/>
      <point x="246" y="770" type="line"/>
      <point x="355" y="890" type="line"/>
    </contour>
  </outline>
</glyph>
<glyph name="Otilde" format="1">
  <advance width="791"/>
  <unicode hex="00D5"/>
  <outline>
    <contour>
      <point x="719" y="364" type="curve"/>
      <point x="719" y="133"/>
      <point x="563" y="-14"/>
      <point x="382" y="-14" type="curve" smooth="yes"/>
      <point x="195" y="-14"/>
      <point x="45" y="128"/>
      <point x="45" y="364" type="curve" smooth="yes"/>
      <point x="45" y="595"/>
      <point x="202" y="742"/>
      <point x="382" y="742" type="curve" smooth="yes"/>
      <point x="571" y="742"/>
      <point x="719" y="599"/>
    </contour>
    <contour>
      <point x="617" y="364" type="curve"/>
      <point x="617" y="552"/>
      <point x="511" y="669"/>
      <point x="382" y="669" type="curve" smooth="yes"/>
      <point x="253" y="669"/>
      <point x="147" y="552"/>
      <point x="147" y="364" type="curve" smooth="yes"/>
      <point x="147" y="174"/>
      <point x="254" y="58"/>
      <point x="382" y="58" type="curve" smooth="yes"/>
      <point x="511" y="58"/>
      <point x="617" y="174"/>
    </contour>
    <contour>
      <point x="242" y="783" type="line"/>
      <point x="244" y="858"/>
      <point x="283" y="890"/>
      <point x="331" y="891" type="curve" smooth="yes" name="hr01"/>
      <point x="355" y="891"/>
      <point x="377" y="883"/>
      <point x="395" y="867" type="curve" smooth="yes"/>
      <point x="413" y="851"/>
      <point x="423" y="835"/>
      <point x="449" y="835" type="curve" smooth="yes"/>
      <point x="467" y="835"/>
      <point x="477" y="856"/>
      <point x="480" y="893" type="curve"/>
      <point x="533" y="887" type="line"/>
      <point x="529" y="803"/>
      <point x="487" y="779"/>
      <point x="449" y="779" type="curve" smooth="yes"/>
      <point x="423" y="779"/>
      <point x="401" y="786"/>
      <point x="384" y="802" type="curve" smooth="yes"/>
      <point x="365" y="818"/>
      <point x="355" y="835"/>
      <point x="332" y="835" type="curve" smooth="yes"/>
      <point x="315" y="835"/>
      <point x="300" y="819"/>
      <point x="297" y="777" type="curve"/>
    </contour>
  </outline>
</glyph>
<glyph name="Odieresis" format="1">
  <advance width="791"/>
  <unicode hex="00D6"/>
  <outline>
    <contour>
      <point x="719" y="364" type="curve" name="hr00"/>
      <point x="719" y="133"/>
      <point x="563" y="-14"/>
      <point x="382" y="-14" type="curve" smooth="yes"/>
      <point x="195" y="-14"/>
      <point x="45" y="128"/>
      <point x="45" y="364" type="curve" smooth="yes"/>
      <point x="45" y="595"/>
      <point x="202" y="742"/>
      <point x="382" y="742" type="curve" smooth="yes"/>
      <point x="571" y="742"/>
      <point x="719" y="599"/>
    </contour>
    <contour>
      <point x="617" y="364" type="curve"/>
      <point x="617" y="552"/>
      <point x="511" y="669"/>
      <point x="382" y="669" type="curve" smooth="yes"/>
      <point x="253" y="669"/>
      <point x="147" y="552"/>
      <point x="147" y="364" type="curve" smooth="yes"/>
      <point x="147" y="174"/>
      <point x="254" y="58"/>
      <point x="382" y="58" type="curve" smooth="yes"/>
      <point x="511" y="58"/>
      <point x="617" y="174"/>
    </contour>
    <contour>
      <point x="234" y="840" type="curve" smooth="yes"/>
      <point x="234" y="869"/>
      <point x="258" y="892"/>
      <point x="286" y="892" type="curve" smooth="yes"/>
      <point x="315" y="892"/>
      <point x="339" y="869"/>
      <point x="339" y="840" type="curve" smooth="yes"/>
      <point x="339" y="811"/>
      <point x="315" y="788"/>
      <point x="286" y="788" type="curve" smooth="yes"/>
      <point x="258" y="788"/>
      <point x="234" y="811"/>
    </contour>
    <contour>
      <point x="428" y="840" type="curve" smooth="yes"/>
      <point x="428" y="869"/>
      <point x="452" y="892"/>
      <point x="481" y="892" type="curve" smooth="yes"/>
      <point x="509" y="892"/>
      <point x="533" y="869"/>
      <point x="533" y="840" type="curve" smooth="yes"/>
      <point x="533" y="811"/>
      <point x="509" y="788"/>
      <point x="481" y="788" type="curve" smooth="yes"/>
      <point x="452" y="788"/>
      <point x="428" y="811"/>
    </contour>
  </outline>
</glyph>
<glyph name="multiply" format="1">
  <advance width="568"/>
  <unicode hex="00D7"/>
  <outline>
    <contour>
      <point x="54" y="124" type="line" name="hr00"/>
      <point x="235" y="306" type="line"/>
      <point x="54" y="486" type="line"/>
      <point x="100" y="531" type="line"/>
      <point x="281" y="351" type="line"/>
      <point x="460" y="531" type="line"/>
      <point x="505" y="486" type="line"/>
      <point x="326" y="306" type="line"/>
      <point x="507" y="124" type="line"/>
      <point x="462" y="79" type="line"/>
      <point x="281" y="260" type="line"/>
      <point x="99" y="79" type="line"/>
    </contour>
  </outline>
</glyph>
<glyph name="Oslash" format="1">
  <advance width="791"/>
  <unicode hex="00D8"/>
  <outline>
    <contour>
      <point x="596" y="665" type="line"/>
      <point x="671" y="600"/>
      <point x="719" y="497"/>
      <point x="719" y="364" type="curve" smooth="yes"/>
      <point x="719" y="133"/>
      <point x="563" y="-14"/>
      <point x="382" y="-14" type="curve" smooth="yes" name="hr01"/>
      <point x="325" y="-14"/>
      <point x="272" y="-1"/>
      <point x="225" y="24" type="curve"/>
      <point x="176" y="-60" type="line"/>
      <point x="97" y="-60" type="line"/>
      <point x="169" y="62" type="line"/>
      <point x="93" y="126"/>
      <point x="45" y="230"/>
      <point x="45" y="364" type="curve" smooth="yes"/>
      <point x="45" y="595"/>
      <point x="202" y="742"/>
      <point x="382" y="742" type="curve" smooth="yes"/>
      <point x="439" y="742"/>
      <point x="492" y="729"/>
      <point x="539" y="704" type="curve"/>
      <point x="590" y="789" type="line"/>
      <point x="669" y="789" type="line"/>
    </contour>
    <contour>
      <point x="620" y="364" type="curve" smooth="yes"/>
      <point x="620" y="457"/>
      <point x="591" y="533"/>
      <point x="549" y="586" type="curve"/>
      <point x="281" y="133" type="line"/>
      <point x="258" y="159"/>
      <point x="242" y="202"/>
      <point x="263" y="240" type="curve"/>
      <point x="499" y="635" type="line"/>
      <point x="465" y="658"/>
      <point x="424" y="671"/>
      <point x="382" y="671" type="curve" smooth="yes"/>
      <point x="253" y="671"/>
      <point x="144" y="552"/>
      <point x="144" y="364" type="curve" smooth="yes"/>
      <point x="144" y="174"/>
      <point x="254" y="56"/>
      <point x="382" y="56" type="curve" smooth="yes"/>
      <point x="511" y="56"/>
      <point x="620" y="174"/>
    </contour>
  </outline>
</glyph>
<glyph name="Ugrave" format="1">
  <advance width="694"/>
  <unicode hex="00D9"/>
  <outline>
    <contour>
      <point x="347" y="-14" type="curve" smooth="yes" name="hr00"/>
      <point x="177" y="-14"/>
      <point x="78" y="99"/>
      <point x="78" y="268" type="curve" smooth="yes"/>
      <point x="78" y="727" type="line"/>
      <point x="172" y="727" type="line"/>
      <point x="172" y="252" type="line" smooth="yes"/>
      <point x="172" y="134"/>
      <point x="241" y="58"/>
      <point x="347" y="58" type="curve" smooth="yes"/>
      <point x="453" y="58"/>
      <point x="522" y="134"/>
      <point x="522" y="252" type="curve" smooth="yes"/>
      <point x="522" y="727" type="line"/>
      <point x="616" y="727" type="line"/>
      <point x="616" y="268" type="line" smooth="yes"/>
      <point x="616" y="99"/>
      <point x="506" y="-14"/>
    </contour>
    <contour>
      <point x="222" y="890" type="line"/>
      <point x="316" y="890" type="line"/>
      <point x="390" y="766" type="line"/>
      <point x="356" y="758"/>
      <point x="317" y="763"/>
      <point x="295" y="792" type="curve"/>
    </contour>
  </outline>
</glyph>
<glyph name="Ucircumflex" format="1">
  <advance width="694"/>
  <unicode hex="00DB"/>
  <outline>
    <contour>
      <point x="347" y="-14" type="curve" smooth="yes" name="hr00"/>
      <point x="177" y="-14"/>
      <point x="78" y="99"/>
      <point x="78" y="268" type="curve" smooth="yes"/>
      <point x="78" y="727" type="line"/>
      <point x="172" y="727" type="line"/>
      <point x="172" y="252" type="line" smooth="yes"/>
      <point x="172" y="134"/>
      <point x="241" y="58"/>
      <point x="347" y="58" type="curve" smooth="yes"/>
      <point x="453" y="58"/>
      <point x="522" y="134"/>
      <point x="522" y="252" type="curve" smooth="yes"/>
      <point x="522" y="727" type="line"/>
      <point x="616" y="727" type="line"/>
      <point x="616" y="268" type="line" smooth="yes"/>
      <point x="616" y="99"/>
      <point x="506" y="-14"/>
    </contour>
    <contour>
      <point x="375" y="890" type="line"/>
      <point x="486" y="770" type="line"/>
      <point x="434" y="762" type="line"/>
      <point x="346" y="821" type="line"/>
      <point x="258" y="761" type="line"/>
      <point x="209" y="770" type="line"/>
      <point x="318" y="890" type="line"/>
    </contour>
  </outline>
</glyph>
<glyph name="Udieresis" format="1">
  <advance width="694"/>
  <unicode hex="00DC"/>
  <outline>
    <contour>
      <point x="347" y="-14" type="curve" smooth="yes" name="hr00"/>
      <point x="177" y="-14"/>
      <point x="78" y="99"/>
      <point x="78" y="268" type="curve" smooth="yes"/>
      <point x="78" y="727" type="line"/>
      <point x="172" y="727" type="line"/>
      <point x="172" y="252" type="line" smooth="yes"/>
      <point x="172" y="134"/>
      <point x="241" y="58"/>
      <point x="347" y="58" type="curve" smooth="yes"/>
      <point x="453" y="58"/>
      <point x="522" y="134"/>
      <point x="522" y="252" type="curve" smooth="yes"/>
      <point x="522" y="727" type="line"/>
      <point x="616" y="727" type="line"/>
      <point x="616" y="268" type="line" smooth="yes"/>
      <point x="616" y="99"/>
      <point x="506" y="-14"/>
    </contour>
    <contour>
      <point x="198" y="840" type="curve" smooth="yes"/>
      <point x="198" y="869"/>
      <point x="222" y="892"/>
      <point x="250" y="892" type="curve" smooth="yes"/>
      <point x="279" y="892"/>
      <point x="303" y="869"/>
      <point x="303" y="840" type="curve" smooth="yes"/>
      <point x="303" y="811"/>
      <point x="279" y="788"/>
      <point x="250" y="788" type="curve" smooth="yes"/>
      <point x="222" y="788"/>
      <point x="198" y="811"/>
    </contour>
    <contour>
      <point x="392" y="840" type="curve" smooth="yes"/>
      <point x="392" y="869"/>
      <point x="416" y="892"/>
      <point x="445" y="892" type="curve" smooth="yes"/>
      <point x="473" y="892"/>
      <point x="497" y="869"/>
      <point x="497" y="840" type="curve" smooth="yes"/>
      <point x="497" y="811"/>
      <point x="473" y="788"/>
      <point x="445" y="788" type="curve" smooth="yes"/>
      <point x="416" y="788"/>
      <point x="392" y="811"/>
    </contour>
  </outline>
</glyph>
<glyph name="Yacute" format="1">
  <advance width="660"/>
  <unicode hex="00DD"/>
  <outline>
    <contour>
      <point x="370" y="337" type="line" name="hr00"/>
      <point x="370" y="0" type="line"/>
      <point x="277" y="0" type="line"/>
      <point x="277" y="309" type="line"/>
      <point x="28" y="727" type="line"/>
      <point x="136" y="727" type="line"/>
    </contour>
    <contour>
      <point x="507" y="727" type="line"/>
      <point x="612" y="727" type="line"/>
      <point x="398" y="376" type="line"/>
      <point x="374" y="407"/>
      <point x="354" y="455"/>
      <point x="381" y="502" type="curve"/>
    </contour>
    <contour>
      <point x="399" y="792" type="line"/>
      <point x="372" y="763"/>
      <point x="335" y="758"/>
      <point x="301" y="766" type="curve"/>
      <point x="390" y="890" type="line"/>
      <point x="487" y="890" type="line"/>
    </contour>
  </outline>
</glyph>
<glyph name="Thorn" format="1">
  <advance width="609"/>
  <unicode hex="00DE"/>
  <outline>
    <contour>
      <point x="558" y="363" type="curve" smooth="yes" name="hr00"/>
      <point x="558" y="235"/>
      <point x="444" y="158"/>
      <point x="324" y="148" type="curve" smooth="yes"/>
      <point x="295" y="145"/>
      <point x="261" y="146"/>
      <point x="224" y="156" type="curve"/>
      <point x="239" y="190"/>
      <point x="270" y="217"/>
      <point x="312" y="217" type="curve" smooth="yes"/>
      <point x="381" y="217"/>
      <point x="457" y="278"/>
      <point x="457" y="363" type="curve" smooth="yes"/>
      <point x="457" y="447"/>
      <point x="384" y="510"/>
      <point x="294" y="510" type="curve" smooth="yes"/>
      <point x="257" y="510"/>
      <point x="220" y="508"/>
      <point x="184" y="504" type="curve"/>
      <point x="184" y="0" type="line"/>
      <point x="92" y="0" type="line"/>
      <point x="92" y="727" type="line"/>
      <point x="184" y="727" type="line"/>
      <point x="184" y="577" type="line"/>
      <point x="219" y="581"/>
      <point x="254" y="583"/>
      <point x="294" y="583" type="curve" smooth="yes"/>
      <point x="455" y="583"/>
      <point x="558" y="484"/>
    </contour>
  </outline>
</glyph>
<glyph name="germandbls" format="1">
  <advance width="567"/>
  <unicode hex="00DF"/>
  <outline>
    <contour>
      <point x="273" y="87" type="line"/>
      <point x="317" y="67"/>
      <point x="356" y="60"/>
      <point x="385" y="60" type="curve" smooth="yes"/>
      <point x="425" y="60"/>
      <point x="457" y="91"/>
      <point x="457" y="136" type="curve" smooth="yes" name="hr02"/>
      <point x="457" y="245"/>
      <point x="283" y="249"/>
      <point x="283" y="401" type="curve" smooth="yes"/>
      <point x="283" y="459"/>
      <point x="322" y="511"/>
      <point x="395" y="541" type="curve"/>
      <point x="399" y="556"/>
      <point x="401" y="571"/>
      <point x="401" y="588" type="curve" smooth="yes"/>
      <point x="401" y="651"/>
      <point x="351" y="695"/>
      <point x="299" y="695" type="curve" smooth="yes"/>
      <point x="243" y="695"/>
      <point x="178" y="655"/>
      <point x="178" y="555" type="curve" smooth="yes"/>
      <point x="178" y="0" type="line"/>
      <point x="91" y="0" type="line"/>
      <point x="91" y="545" type="line" smooth="yes"/>
      <point x="91" y="677"/>
      <point x="166" y="763"/>
      <point x="288" y="763" type="curve" smooth="yes"/>
      <point x="412" y="763"/>
      <point x="480" y="681"/>
      <point x="480" y="588" type="curve" smooth="yes" name="hr01"/>
      <point x="480" y="553"/>
      <point x="470" y="524"/>
      <point x="445" y="484" type="curve"/>
      <point x="399" y="462"/>
      <point x="373" y="440"/>
      <point x="373" y="401" type="curve" smooth="yes"/>
      <point x="373" y="294"/>
      <point x="547" y="289"/>
      <point x="547" y="131" type="curve" smooth="yes"/>
      <point x="547" y="54"/>
      <point x="479" y="-12"/>
      <point x="394" y="-12" type="curve" smooth="yes"/>
      <point x="354" y="-12"/>
      <point x="312" y="-7"/>
      <point x="249" y="25" type="curve"/>
    </contour>
  </outline>
</glyph>
<glyph name="aacute" format="1">
  <advance width="527"/>
  <unicode hex="00E1"/>
  <outline>
    <contour>
      <point x="316" y="631" type="line"/>
      <point x="289" y="599"/>
      <point x="252" y="593"/>
      <point x="218" y="602" type="curve"/>
      <point x="307" y="740" type="line"/>
      <point x="404" y="740" type="line"/>
    </contour>
    <contour>
      <point x="452" y="171" type="line"/>
      <point x="452" y="91"/>
      <point x="459" y="35"/>
      <point x="468" y="0" type="curve"/>
      <point x="400" y="0" type="line" name="hr01"/>
      <point x="381" y="11"/>
      <point x="372" y="30"/>
      <point x="364" y="51" type="curve"/>
      <point x="363" y="69" type="line"/>
      <point x="352" y="51" type="line"/>
      <point x="301" y="0"/>
      <point x="261" y="-10"/>
      <point x="213" y="-10" type="curve" smooth="yes"/>
      <point x="109" y="-10"/>
      <point x="45" y="51"/>
      <point x="45" y="132" type="curve" smooth="yes"/>
      <point x="45" y="233"/>
      <point x="117" y="278"/>
      <point x="322" y="302" type="curve"/>
      <point x="318" y="278"/>
      <point x="303" y="233"/>
      <point x="250" y="225" type="curve" smooth="yes"/>
      <point x="162" y="211"/>
      <point x="144" y="175"/>
      <point x="144" y="138" type="curve" smooth="yes"/>
      <point x="144" y="97"/>
      <point x="175" y="62"/>
      <point x="226" y="62" type="curve" smooth="yes"/>
      <point x="271" y="62"/>
      <point x="319" y="83"/>
      <point x="358" y="134" type="curve"/>
      <point x="358" y="321" type="line"/>
      <point x="358" y="400"/>
      <point x="323" y="455"/>
      <point x="232" y="455" type="curve" smooth="yes"/>
      <point x="196" y="455"/>
      <point x="164" y="448"/>
      <point x="116" y="431" type="curve"/>
      <point x="93" y="493" type="line"/>
      <point x="158" y="521"/>
      <point x="206" y="527"/>
      <point x="250" y="527" type="curve" smooth="yes"/>
      <point x="378" y="527"/>
      <point x="452" y="449"/>
      <point x="452" y="314" type="curve"/>
    </contour>
  </outline>
</glyph>
<glyph name="acircumflex" format="1">
  <advance width="527"/>
  <unicode hex="00E2"/>
  <outline>
    <contour>
      <point x="295" y="743" type="line"/>
      <point x="406" y="598" type="line"/>
      <point x="354" y="590" type="line"/>
      <point x="266" y="674" type="line"/>
      <point x="178" y="589" type="line"/>
      <point x="129" y="598" type="line"/>
      <point x="238" y="743" type="line"/>
    </contour>
    <contour>
      <point x="453" y="171" type="line"/>
      <point x="453" y="91"/>
      <point x="460" y="35"/>
      <point x="469" y="0" type="curve"/>
      <point x="401" y="0" type="line" name="hr01"/>
      <point x="382" y="11"/>
      <point x="373" y="30"/>
      <point x="365" y="51" type="curve"/>
      <point x="364" y="69" type="line"/>
      <point x="353" y="51" type="line"/>
      <point x="302" y="0"/>
      <point x="262" y="-10"/>
      <point x="214" y="-10" type="curve" smooth="yes"/>
      <point x="110" y="-10"/>
      <point x="46" y="51"/>
      <point x="46" y="132" type="curve" smooth="yes"/>
      <point x="46" y="233"/>
      <point x="118" y="278"/>
      <point x="323" y="302" type="curve"/>
      <point x="319" y="278"/>
      <point x="304" y="233"/>
      <point x="251" y="225" type="curve" smooth="yes"/>
      <point x="163" y="211"/>
      <point x="145" y="175"/>
      <point x="145" y="138" type="curve" smooth="yes"/>
      <point x="145" y="97"/>
      <point x="176" y="62"/>
      <point x="227" y="62" type="curve" smooth="yes"/>
      <point x="272" y="62"/>
      <point x="320" y="83"/>
      <point x="359" y="134" type="curve"/>
      <point x="359" y="321" type="line"/>
      <point x="359" y="400"/>
      <point x="324" y="455"/>
      <point x="233" y="455" type="curve" smooth="yes"/>
      <point x="197" y="455"/>
      <point x="165" y="448"/>
      <point x="117" y="431" type="curve"/>
      <point x="94" y="493" type="line"/>
      <point x="159" y="521"/>
      <point x="207" y="527"/>
      <point x="251" y="527" type="curve" smooth="yes"/>
      <point x="379" y="527"/>
      <point x="453" y="449"/>
      <point x="453" y="314" type="curve"/>
    </contour>
  </outline>
</glyph>
<glyph name="atilde" format="1">
  <advance width="527"/>
  <unicode hex="00E3"/>
  <outline>
    <contour>
      <point x="453" y="171" type="line"/>
      <point x="453" y="91"/>
      <point x="460" y="35"/>
      <point x="469" y="0" type="curve"/>
      <point x="401" y="0" type="line" name="hr01"/>
      <point x="382" y="11"/>
      <point x="373" y="30"/>
      <point x="365" y="51" type="curve"/>
      <point x="364" y="69" type="line"/>
      <point x="353" y="51" type="line"/>
      <point x="302" y="0"/>
      <point x="262" y="-10"/>
      <point x="214" y="-10" type="curve" smooth="yes"/>
      <point x="110" y="-10"/>
      <point x="46" y="51"/>
      <point x="46" y="132" type="curve" smooth="yes"/>
      <point x="46" y="233"/>
      <point x="118" y="278"/>
      <point x="323" y="302" type="curve"/>
      <point x="319" y="278"/>
      <point x="304" y="233"/>
      <point x="251" y="225" type="curve" smooth="yes"/>
      <point x="163" y="211"/>
      <point x="145" y="175"/>
      <point x="145" y="138" type="curve" smooth="yes"/>
      <point x="145" y="97"/>
      <point x="176" y="62"/>
      <point x="227" y="62" type="curve" smooth="yes"/>
      <point x="272" y="62"/>
      <point x="320" y="83"/>
      <point x="359" y="134" type="curve"/>
      <point x="359" y="321" type="line"/>
      <point x="359" y="400"/>
      <point x="324" y="455"/>
      <point x="233" y="455" type="curve" smooth="yes"/>
      <point x="197" y="455"/>
      <point x="165" y="448"/>
      <point x="117" y="431" type="curve"/>
      <point x="94" y="493" type="line"/>
      <point x="159" y="521"/>
      <point x="207" y="527"/>
      <point x="251" y="527" type="curve" smooth="yes"/>
      <point x="379" y="527"/>
      <point x="453" y="449"/>
      <point x="453" y="314" type="curve"/>
    </contour>
    <contour>
      <point x="120" y="624" type="line"/>
      <point x="122" y="699"/>
      <point x="161" y="731"/>
      <point x="209" y="732" type="curve" smooth="yes" name="hr02"/>
      <point x="233" y="732"/>
      <point x="255" y="724"/>
      <point x="273" y="708" type="curve" smooth="yes"/>
      <point x="291" y="692"/>
      <point x="301" y="676"/>
      <point x="327" y="676" type="curve" smooth="yes"/>
      <point x="345" y="676"/>
      <point x="355" y="697"/>
      <point x="358" y="734" type="curve"/>
      <point x="411" y="728" type="line"/>
      <point x="407" y="644"/>
      <point x="365" y="620"/>
      <point x="327" y="620" type="curve" smooth="yes"/>
      <point x="301" y="620"/>
      <point x="279" y="627"/>
      <point x="262" y="643" type="curve" smooth="yes"/>
      <point x="243" y="659"/>
      <point x="233" y="676"/>
      <point x="210" y="676" type="curve" smooth="yes"/>
      <point x="193" y="676"/>
      <point x="178" y="660"/>
      <point x="175" y="618" type="curve"/>
    </contour>
  </outline>
</glyph>
<glyph name="adieresis" format="1">
  <advance width="527"/>
  <unicode hex="00E4"/>
  <outline>
    <contour>
      <point x="118" y="670" type="curve" smooth="yes"/>
      <point x="118" y="699"/>
      <point x="142" y="722"/>
      <point x="170" y="722" type="curve" smooth="yes"/>
      <point x="199" y="722"/>
      <point x="223" y="699"/>
      <point x="223" y="670" type="curve" smooth="yes"/>
      <point x="223" y="641"/>
      <point x="199" y="618"/>
      <point x="170" y="618" type="curve" smooth="yes"/>
      <point x="142" y="618"/>
      <point x="118" y="641"/>
    </contour>
    <contour>
      <point x="312" y="670" type="curve" smooth="yes"/>
      <point x="312" y="699"/>
      <point x="336" y="722"/>
      <point x="365" y="722" type="curve" smooth="yes"/>
      <point x="393" y="722"/>
      <point x="417" y="699"/>
      <point x="417" y="670" type="curve" smooth="yes"/>
      <point x="417" y="641"/>
      <point x="393" y="618"/>
      <point x="365" y="618" type="curve" smooth="yes"/>
      <point x="336" y="618"/>
      <point x="312" y="641"/>
    </contour>
    <contour>
      <point x="453" y="171" type="line"/>
      <point x="453" y="91"/>
      <point x="460" y="35"/>
      <point x="469" y="0" type="curve"/>
      <point x="401" y="0" type="line" name="hr02"/>
      <point x="382" y="11"/>
      <point x="373" y="30"/>
      <point x="365" y="51" type="curve"/>
      <point x="364" y="69" type="line"/>
      <point x="353" y="51" type="line"/>
      <point x="302" y="0"/>
      <point x="262" y="-10"/>
      <point x="214" y="-10" type="curve" smooth="yes"/>
      <point x="110" y="-10"/>
      <point x="46" y="51"/>
      <point x="46" y="132" type="curve" smooth="yes"/>
      <point x="46" y="233"/>
      <point x="118" y="278"/>
      <point x="323" y="302" type="curve"/>
      <point x="319" y="278"/>
      <point x="304" y="233"/>
      <point x="251" y="225" type="curve" smooth="yes"/>
      <point x="163" y="211"/>
      <point x="145" y="175"/>
      <point x="145" y="138" type="curve" smooth="yes"/>
      <point x="145" y="97"/>
      <point x="176" y="62"/>
      <point x="227" y="62" type="curve" smooth="yes"/>
      <point x="272" y="62"/>
      <point x="320" y="83"/>
      <point x="359" y="134" type="curve"/>
      <point x="359" y="321" type="line"/>
      <point x="359" y="400"/>
      <point x="324" y="455"/>
      <point x="233" y="455" type="curve" smooth="yes"/>
      <point x="197" y="455"/>
      <point x="165" y="448"/>
      <point x="117" y="431" type="curve"/>
      <point x="94" y="493" type="line"/>
      <point x="159" y="521"/>
      <point x="207" y="527"/>
      <point x="251" y="527" type="curve" smooth="yes"/>
      <point x="379" y="527"/>
      <point x="453" y="449"/>
      <point x="453" y="314" type="curve" name="hr01"/>
    </contour>
  </outline>
</glyph>
<glyph name="aring" format="1">
  <advance width="527"/>
  <unicode hex="00E5"/>
  <outline>
    <contour>
      <point x="453" y="171" type="line" name="hr02"/>
      <point x="453" y="91"/>
      <point x="460" y="35"/>
      <point x="469" y="0" type="curve"/>
      <point x="401" y="0" type="line"/>
      <point x="382" y="11"/>
      <point x="373" y="30"/>
      <point x="365" y="51" type="curve" name="hr01"/>
      <point x="364" y="69" type="line"/>
      <point x="353" y="51" type="line"/>
      <point x="302" y="0"/>
      <point x="262" y="-10"/>
      <point x="214" y="-10" type="curve" smooth="yes"/>
      <point x="110" y="-10"/>
      <point x="46" y="51"/>
      <point x="46" y="132" type="curve" smooth="yes"/>
      <point x="46" y="233"/>
      <point x="118" y="278"/>
      <point x="323" y="302" type="curve"/>
      <point x="319" y="278"/>
      <point x="304" y="233"/>
      <point x="251" y="225" type="curve" smooth="yes"/>
      <point x="163" y="211"/>
      <point x="145" y="175"/>
      <point x="145" y="138" type="curve" smooth="yes"/>
      <point x="145" y="97"/>
      <point x="176" y="62"/>
      <point x="227" y="62" type="curve" smooth="yes"/>
      <point x="272" y="62"/>
      <point x="320" y="83"/>
      <point x="359" y="134" type="curve"/>
      <point x="359" y="321" type="line"/>
      <point x="359" y="400"/>
      <point x="324" y="455"/>
      <point x="233" y="455" type="curve" smooth="yes"/>
      <point x="197" y="455"/>
      <point x="165" y="448"/>
      <point x="117" y="431" type="curve"/>
      <point x="94" y="493" type="line"/>
      <point x="159" y="521"/>
      <point x="207" y="527"/>
      <point x="251" y="527" type="curve" smooth="yes"/>
      <point x="379" y="527"/>
      <point x="453" y="449"/>
      <point x="453" y="314" type="curve"/>
    </contour>
    <contour>
      <point x="267" y="571" type="curve" smooth="yes"/>
      <point x="209" y="571"/>
      <point x="169" y="608"/>
      <point x="169" y="657" type="curve" smooth="yes"/>
      <point x="169" y="709"/>
      <point x="210" y="747"/>
      <point x="268" y="747" type="curve" smooth="yes"/>
      <point x="327" y="747"/>
      <point x="365" y="710"/>
      <point x="365" y="658" type="curve" smooth="yes" name="hr03"/>
      <point x="365" y="607"/>
      <point x="323" y="571"/>
    </contour>
    <contour>
      <point x="267" y="608" type="curve" smooth="yes"/>
      <point x="298" y="608"/>
      <point x="317" y="630"/>
      <point x="317" y="659" type="curve" smooth="yes"/>
      <point x="317" y="688"/>
      <point x="298" y="710"/>
      <point x="267" y="710" type="curve" smooth="yes"/>
      <point x="239" y="710"/>
      <point x="219" y="688"/>
      <point x="219" y="657" type="curve" smooth="yes"/>
      <point x="219" y="632"/>
      <point x="238" y="608"/>
    </contour>
  </outline>
</glyph>
<glyph name="ae" format="1">
  <advance width="850"/>
  <unicode hex="00E6"/>
  <outline>
    <contour>
      <point x="700" y="317" type="line" name="hr00"/>
      <point x="709" y="394"/>
      <point x="659" y="455"/>
      <point x="594" y="455" type="curve" smooth="yes"/>
      <point x="510" y="455"/>
      <point x="452" y="385"/>
      <point x="452" y="262" type="curve" smooth="yes"/>
      <point x="452" y="143"/>
      <point x="520" y="62"/>
      <point x="611" y="62" type="curve" smooth="yes"/>
      <point x="657" y="62"/>
      <point x="693" y="69"/>
      <point x="750" y="98" type="curve"/>
      <point x="775" y="32" type="line"/>
      <point x="711" y="-1"/>
      <point x="649" y="-10"/>
      <point x="601" y="-10" type="curve" smooth="yes"/>
      <point x="518" y="-10"/>
      <point x="436" y="52"/>
      <point x="409" y="131" type="curve"/>
      <point x="382" y="45"/>
      <point x="307" y="-10"/>
      <point x="214" y="-10" type="curve" smooth="yes"/>
      <point x="110" y="-10"/>
      <point x="46" y="51"/>
      <point x="46" y="132" type="curve" smooth="yes"/>
      <point x="46" y="233"/>
      <point x="118" y="278"/>
      <point x="323" y="302" type="curve"/>
      <point x="319" y="278"/>
      <point x="304" y="233"/>
      <point x="251" y="225" type="curve" smooth="yes"/>
      <point x="163" y="211"/>
      <point x="145" y="175"/>
      <point x="145" y="138" type="curve" smooth="yes"/>
      <point x="145" y="97"/>
      <point x="176" y="62"/>
      <point x="227" y="62" type="curve" smooth="yes"/>
      <point x="311" y="62"/>
      <point x="359" y="134"/>
      <point x="359" y="262" type="curve"/>
      <point x="359" y="321" type="line" smooth="yes"/>
      <point x="359" y="400"/>
      <point x="324" y="455"/>
      <point x="233" y="455" type="curve" smooth="yes"/>
      <point x="197" y="455"/>
      <point x="165" y="448"/>
      <point x="117" y="431" type="curve"/>
      <point x="94" y="493" type="line"/>
      <point x="159" y="521"/>
      <point x="207" y="527"/>
      <point x="251" y="527" type="curve" smooth="yes"/>
      <point x="328" y="527"/>
      <point x="389" y="482"/>
      <point x="416" y="419" type="curve"/>
      <point x="449" y="481"/>
      <point x="524" y="527"/>
      <point x="604" y="527" type="curve" smooth="yes"/>
      <point x="741" y="527"/>
      <point x="822" y="393"/>
      <point x="778" y="250" type="curve"/>
      <point x="488" y="250" type="line"/>
      <point x="502" y="288"/>
      <point x="525" y="317"/>
      <point x="573" y="317" type="curve"/>
    </contour>
  </outline>
</glyph>
<glyph name="ccedilla" format="1">
  <advance width="427"/>
  <unicode hex="00E7"/>
  <outline>
    <contour>
      <point x="278" y="-10" type="line" name="hr00"/>
      <point x="268" y="-50" type="line"/>
      <point x="306" y="-54"/>
      <point x="348" y="-82"/>
      <point x="348" y="-123" type="curve" smooth="yes"/>
      <point x="348" y="-183"/>
      <point x="288" y="-206"/>
      <point x="234" y="-206" type="curve" smooth="yes"/>
      <point x="211" y="-206"/>
      <point x="187" y="-201"/>
      <point x="155" y="-187" type="curve"/>
      <point x="169" y="-144" type="line"/>
      <point x="194" y="-154"/>
      <point x="214" y="-157"/>
      <point x="234" y="-157" type="curve" smooth="yes"/>
      <point x="257" y="-157"/>
      <point x="287" y="-150"/>
      <point x="287" y="-126" type="curve" smooth="yes"/>
      <point x="287" y="-101"/>
      <point x="259" y="-89"/>
      <point x="212" y="-84" type="curve"/>
      <point x="233" y="-5" type="line"/>
      <point x="123" y="15"/>
      <point x="42" y="107"/>
      <point x="42" y="259" type="curve" smooth="yes"/>
      <point x="42" y="432"/>
      <point x="154" y="527"/>
      <point x="283" y="527" type="curve" smooth="yes"/>
      <point x="319" y="527"/>
      <point x="365" y="521"/>
      <point x="405" y="506" type="curve"/>
      <point x="380" y="440" type="line"/>
      <point x="344" y="451"/>
      <point x="313" y="455"/>
      <point x="283" y="455" type="curve" smooth="yes"/>
      <point x="207" y="455"/>
      <point x="141" y="393"/>
      <point x="141" y="259" type="curve" smooth="yes"/>
      <point x="141" y="124"/>
      <point x="206" y="62"/>
      <point x="283" y="62" type="curve" smooth="yes"/>
      <point x="312" y="62"/>
      <point x="347" y="70"/>
      <point x="393" y="91" type="curve"/>
      <point x="418" y="25" type="line"/>
      <point x="364" y="-2"/>
      <point x="314" y="-10"/>
      <point x="283" y="-10" type="curve"/>
    </contour>
  </outline>
</glyph>
<glyph name="egrave" format="1">
  <advance width="544"/>
  <unicode hex="00E8"/>
  <outline>
    <contour>
      <point x="397" y="317" type="line" name="hr00"/>
      <point x="406" y="394"/>
      <point x="356" y="455"/>
      <point x="291" y="455" type="curve" smooth="yes"/>
      <point x="207" y="455"/>
      <point x="149" y="385"/>
      <point x="149" y="262" type="curve" smooth="yes"/>
      <point x="149" y="143"/>
      <point x="217" y="62"/>
      <point x="308" y="62" type="curve" smooth="yes"/>
      <point x="354" y="62"/>
      <point x="390" y="69"/>
      <point x="447" y="98" type="curve"/>
      <point x="472" y="32" type="line"/>
      <point x="408" y="-1"/>
      <point x="346" y="-10"/>
      <point x="298" y="-10" type="curve" smooth="yes"/>
      <point x="151" y="-10"/>
      <point x="56" y="106"/>
      <point x="56" y="263" type="curve" smooth="yes"/>
      <point x="56" y="425"/>
      <point x="150" y="527"/>
      <point x="301" y="527" type="curve" smooth="yes"/>
      <point x="438" y="527"/>
      <point x="519" y="393"/>
      <point x="475" y="250" type="curve"/>
      <point x="185" y="250" type="line"/>
      <point x="199" y="288"/>
      <point x="222" y="317"/>
      <point x="270" y="317" type="curve"/>
    </contour>
    <contour>
      <point x="156" y="740" type="line"/>
      <point x="251" y="740" type="line"/>
      <point x="324" y="602" type="line"/>
      <point x="290" y="594"/>
      <point x="253" y="599"/>
      <point x="228" y="631" type="curve"/>
    </contour>
  </outline>
</glyph>
<glyph name="ecircumflex" format="1">
  <advance width="544"/>
  <unicode hex="00EA"/>
  <outline>
    <contour>
      <point x="397" y="317" type="line" name="hr00"/>
      <point x="406" y="394"/>
      <point x="356" y="455"/>
      <point x="291" y="455" type="curve" smooth="yes"/>
      <point x="207" y="455"/>
      <point x="149" y="385"/>
      <point x="149" y="262" type="curve" smooth="yes"/>
      <point x="149" y="143"/>
      <point x="217" y="62"/>
      <point x="308" y="62" type="curve" smooth="yes"/>
      <point x="354" y="62"/>
      <point x="390" y="69"/>
      <point x="447" y="98" type="curve"/>
      <point x="472" y="32" type="line"/>
      <point x="408" y="-1"/>
      <point x="346" y="-10"/>
      <point x="298" y="-10" type="curve" smooth="yes"/>
      <point x="151" y="-10"/>
      <point x="56" y="106"/>
      <point x="56" y="263" type="curve" smooth="yes"/>
      <point x="56" y="425"/>
      <point x="150" y="527"/>
      <point x="301" y="527" type="curve" smooth="yes"/>
      <point x="438" y="527"/>
      <point x="519" y="393"/>
      <point x="475" y="250" type="curve"/>
      <point x="185" y="250" type="line"/>
      <point x="199" y="288"/>
      <point x="222" y="317"/>
      <point x="270" y="317" type="curve"/>
    </contour>
    <contour>
      <point x="320" y="743" type="line"/>
      <point x="431" y="598" type="line"/>
      <point x="379" y="590" type="line"/>
      <point x="291" y="674" type="line"/>
      <point x="203" y="589" type="line"/>
      <point x="154" y="598" type="line"/>
      <point x="263" y="743" type="line"/>
    </contour>
  </outline>
</glyph>
<glyph name="edieresis" format="1">
  <advance width="544"/>
  <unicode hex="00EB"/>
  <outline>
    <contour>
      <point x="397" y="317" type="line"/>
      <point x="406" y="394"/>
      <point x="356" y="455"/>
      <point x="291" y="455" type="curve" smooth="yes"/>
      <point x="207" y="455"/>
      <point x="149" y="385"/>
      <point x="149" y="262" type="curve" smooth="yes"/>
      <point x="149" y="143"/>
      <point x="217" y="62"/>
      <point x="308" y="62" type="curve" smooth="yes"/>
      <point x="354" y="62"/>
      <point x="390" y="69"/>
      <point x="447" y="98" type="curve"/>
      <point x="472" y="32" type="line"/>
      <point x="408" y="-1"/>
      <point x="346" y="-10"/>
      <point x="298" y="-10" type="curve" smooth="yes"/>
      <point x="151" y="-10"/>
      <point x="56" y="106"/>
      <point x="56" y="263" type="curve" smooth="yes"/>
      <point x="56" y="425"/>
      <point x="150" y="527"/>
      <point x="301" y="527" type="curve" smooth="yes"/>
      <point x="438" y="527"/>
      <point x="519" y="393"/>
      <point x="475" y="250" type="curve"/>
      <point x="185" y="250" type="line"/>
      <point x="199" y="288"/>
      <point x="222" y="317"/>
      <point x="270" y="317" type="curve"/>
    </contour>
    <contour>
      <point x="136" y="670" type="curve" smooth="yes"/>
      <point x="136" y="699"/>
      <point x="160" y="722"/>
      <point x="188" y="722" type="curve" smooth="yes"/>
      <point x="217" y="722"/>
      <point x="241" y="699"/>
      <point x="241" y="670" type="curve" smooth="yes"/>
      <point x="241" y="641"/>
      <point x="217" y="618"/>
      <point x="188" y="618" type="curve" smooth="yes"/>
      <point x="160" y="618"/>
      <point x="136" y="641"/>
    </contour>
    <contour>
      <point x="330" y="670" type="curve" smooth="yes"/>
      <point x="330" y="699"/>
      <point x="354" y="722"/>
      <point x="383" y="722" type="curve" smooth="yes"/>
      <point x="411" y="722"/>
      <point x="435" y="699"/>
      <point x="435" y="670" type="curve" smooth="yes"/>
      <point x="435" y="641"/>
      <point x="411" y="618"/>
      <point x="383" y="618" type="curve" smooth="yes"/>
      <point x="354" y="618"/>
      <point x="330" y="641"/>
    </contour>
  </outline>
</glyph>
<glyph name="igrave" format="1">
  <advance width="276"/>
  <unicode hex="00EC"/>
  <outline>
    <contour>
      <point x="110" y="0" type="line" name="hr00"/>
      <point x="110" y="517" type="line"/>
      <point x="206" y="517" type="line"/>
      <point x="206" y="0" type="line"/>
    </contour>
    <contour>
      <point x="20" y="740" type="line"/>
      <point x="115" y="740" type="line"/>
      <point x="188" y="602" type="line"/>
      <point x="154" y="594"/>
      <point x="117" y="599"/>
      <point x="92" y="631" type="curve"/>
    </contour>
  </outline>
</glyph>
<glyph name="iacute" format="1">
  <advance width="273"/>
  <unicode hex="00ED"/>
  <outline>
    <contour>
      <point x="70" y="0" type="line" name="hr00"/>
      <point x="70" y="517" type="line"/>
      <point x="166" y="517" type="line"/>
      <point x="166" y="0" type="line"/>
    </contour>
    <contour>
      <point x="170" y="631" type="line"/>
      <point x="143" y="599"/>
      <point x="106" y="593"/>
      <point x="72" y="602" type="curve"/>
      <point x="161" y="740" type="line"/>
      <point x="258" y="740" type="line"/>
    </contour>
  </outline>
</glyph>
<glyph name="icircumflex" format="1">
  <advance width="337"/>
  <unicode hex="00EE"/>
  <outline>
    <contour>
      <point x="119" y="0" type="line" name="hr00"/>
      <point x="119" y="517" type="line"/>
      <point x="215" y="517" type="line"/>
      <point x="215" y="0" type="line"/>
    </contour>
    <contour>
      <point x="196" y="743" type="line"/>
      <point x="307" y="598" type="line"/>
      <point x="255" y="590" type="line"/>
      <point x="167" y="674" type="line"/>
      <point x="79" y="589" type="line"/>
      <point x="30" y="598" type="line"/>
      <point x="139" y="743" type="line"/>
    </contour>
  </outline>
</glyph>
<glyph name="idieresis" format="1">
  <advance width="352"/>
  <unicode hex="00EF"/>
  <outline>
    <contour>
      <point x="129" y="0" type="line"/>
      <point x="129" y="517" type="line"/>
      <point x="225" y="517" type="line"/>
      <point x="225" y="0" type="line"/>
    </contour>
    <contour>
      <point x="27" y="670" type="curve" smooth="yes"/>
      <point x="27" y="699"/>
      <point x="51" y="722"/>
      <point x="79" y="722" type="curve" smooth="yes"/>
      <point x="108" y="722"/>
      <point x="132" y="699"/>
      <point x="132" y="670" type="curve" smooth="yes"/>
      <point x="132" y="641"/>
      <point x="108" y="618"/>
      <point x="79" y="618" type="curve" smooth="yes"/>
      <point x="51" y="618"/>
      <point x="27" y="641"/>
    </contour>
    <contour>
      <point x="220" y="670" type="curve" smooth="yes"/>
      <point x="220" y="699"/>
      <point x="244" y="722"/>
      <point x="272" y="722" type="curve" smooth="yes"/>
      <point x="301" y="722"/>
      <point x="325" y="699"/>
      <point x="325" y="670" type="curve" smooth="yes"/>
      <point x="325" y="641"/>
      <point x="301" y="618"/>
      <point x="272" y="618" type="curve" smooth="yes"/>
      <point x="244" y="618"/>
      <point x="220" y="641"/>
    </contour>
  </outline>
</glyph>
<glyph name="eth" format="1">
  <advance width="557"/>
  <unicode hex="00F0"/>
  <outline>
    <contour>
      <point x="522" y="259" type="curve" name="hr00"/>
      <point x="522" y="85"/>
      <point x="410" y="-10"/>
      <point x="281" y="-10" type="curve" smooth="yes"/>
      <point x="147" y="-10"/>
      <point x="40" y="85"/>
      <point x="40" y="259" type="curve" smooth="yes"/>
      <point x="40" y="432"/>
      <point x="152" y="527"/>
      <point x="281" y="527" type="curve" smooth="yes"/>
      <point x="302" y="527"/>
      <point x="325" y="524"/>
      <point x="349" y="513" type="curve"/>
      <point x="391" y="489" type="line"/>
      <point x="366" y="519" type="line"/>
      <point x="335" y="561"/>
      <point x="293" y="598"/>
      <point x="273" y="613" type="curve"/>
      <point x="148" y="553" type="line"/>
      <point x="129" y="596" type="line"/>
      <point x="228" y="645" type="line"/>
      <point x="198" y="667"/>
      <point x="167" y="684"/>
      <point x="130" y="702" type="curve"/>
      <point x="162" y="760" type="line"/>
      <point x="210" y="738"/>
      <point x="260" y="710"/>
      <point x="303" y="679" type="curve"/>
      <point x="415" y="733" type="line"/>
      <point x="436" y="689" type="line"/>
      <point x="346" y="646" type="line"/>
      <point x="394" y="606"/>
      <point x="522" y="451"/>
    </contour>
    <contour>
      <point x="423" y="259" type="curve" smooth="yes"/>
      <point x="423" y="393"/>
      <point x="357" y="455"/>
      <point x="281" y="455" type="curve" smooth="yes"/>
      <point x="205" y="455"/>
      <point x="139" y="393"/>
      <point x="139" y="259" type="curve" smooth="yes"/>
      <point x="139" y="124"/>
      <point x="204" y="62"/>
      <point x="281" y="62" type="curve" smooth="yes"/>
      <point x="357" y="62"/>
      <point x="423" y="124"/>
    </contour>
  </outline>
</glyph>
<glyph name="ntilde" format="1">
  <advance width="596"/>
  <unicode hex="00F1"/>
  <outline>
    <contour>
      <point x="142" y="517" type="line"/>
      <point x="174" y="481"/>
      <point x="181" y="447"/>
      <point x="181" y="407" type="curve" smooth="yes"/>
      <point x="181" y="0" type="line"/>
      <point x="85" y="0" type="line"/>
      <point x="85" y="391" type="line" smooth="yes"/>
      <point x="85" y="428"/>
      <point x="81" y="470"/>
      <point x="70" y="517" type="curve"/>
    </contour>
    <contour>
      <point x="413" y="376" type="line"/>
      <point x="413" y="422"/>
      <point x="392" y="455"/>
      <point x="351" y="455" type="curve" smooth="yes"/>
      <point x="335" y="455"/>
      <point x="325" y="451"/>
      <point x="308" y="447" type="curve" smooth="yes"/>
      <point x="269" y="438"/>
      <point x="236" y="445"/>
      <point x="208" y="474" type="curve"/>
      <point x="279" y="516"/>
      <point x="324" y="527"/>
      <point x="360" y="527" type="curve" smooth="yes" name="hr01"/>
      <point x="440" y="527"/>
      <point x="509" y="490"/>
      <point x="509" y="366" type="curve" smooth="yes"/>
      <point x="509" y="0" type="line"/>
      <point x="413" y="0" type="line"/>
    </contour>
    <contour>
      <point x="152" y="624" type="line"/>
      <point x="154" y="699"/>
      <point x="193" y="731"/>
      <point x="241" y="732" type="curve" smooth="yes" name="hr02"/>
      <point x="265" y="732"/>
      <point x="287" y="724"/>
      <point x="305" y="708" type="curve" smooth="yes"/>
      <point x="323" y="692"/>
      <point x="333" y="676"/>
      <point x="359" y="676" type="curve" smooth="yes"/>
      <point x="377" y="676"/>
      <point x="387" y="697"/>
      <point x="390" y="734" type="curve"/>
      <point x="443" y="728" type="line"/>
      <point x="439" y="644"/>
      <point x="397" y="620"/>
      <point x="359" y="620" type="curve" smooth="yes"/>
      <point x="333" y="620"/>
      <point x="311" y="627"/>
      <point x="294" y="643" type="curve" smooth="yes"/>
      <point x="275" y="659"/>
      <point x="265" y="676"/>
      <point x="242" y="676" type="curve" smooth="yes"/>
      <point x="225" y="676"/>
      <point x="210" y="660"/>
      <point x="207" y="618" type="curve"/>
    </contour>
  </outline>
</glyph>
<glyph name="oacute" format="1">
  <advance width="566"/>
  <unicode hex="00F3"/>
  <outline>
    <contour>
      <point x="522" y="259" type="curve" name="hr00"/>
      <point x="522" y="85"/>
      <point x="410" y="-10"/>
      <point x="281" y="-10" type="curve" smooth="yes"/>
      <point x="147" y="-10"/>
      <point x="40" y="85"/>
      <point x="40" y="259" type="curve"/>
      <point x="40" y="432"/>
      <point x="152" y="527"/>
      <point x="281" y="527" type="curve"/>
      <point x="415" y="527"/>
      <point x="522" y="432"/>
    </contour>
    <contour>
      <point x="423" y="259" type="curve"/>
      <point x="423" y="393"/>
      <point x="357" y="455"/>
      <point x="281" y="455" type="curve"/>
      <point x="205" y="455"/>
      <point x="139" y="393"/>
      <point x="139" y="259" type="curve"/>
      <point x="139" y="124"/>
      <point x="204" y="62"/>
      <point x="281" y="62" type="curve" smooth="yes"/>
      <point x="357" y="62"/>
      <point x="423" y="124"/>
    </contour>
    <contour>
      <point x="333" y="631" type="line"/>
      <point x="306" y="599"/>
      <point x="269" y="593"/>
      <point x="235" y="602" type="curve"/>
      <point x="324" y="740" type="line"/>
      <point x="421" y="740" type="line"/>
    </contour>
  </outline>
</glyph>
<glyph name="ocircumflex" format="1">
  <advance width="566"/>
  <unicode hex="00F4"/>
  <outline>
    <contour>
      <point x="522" y="259" type="curve" name="hr00"/>
      <point x="522" y="85"/>
      <point x="410" y="-10"/>
      <point x="281" y="-10" type="curve" smooth="yes"/>
      <point x="147" y="-10"/>
      <point x="40" y="85"/>
      <point x="40" y="259" type="curve"/>
      <point x="40" y="432"/>
      <point x="152" y="527"/>
      <point x="281" y="527" type="curve"/>
      <point x="415" y="527"/>
      <point x="522" y="432"/>
    </contour>
    <contour>
      <point x="423" y="259" type="curve"/>
      <point x="423" y="393"/>
      <point x="357" y="455"/>
      <point x="281" y="455" type="curve"/>
      <point x="205" y="455"/>
      <point x="139" y="393"/>
      <point x="139" y="259" type="curve"/>
      <point x="139" y="124"/>
      <point x="204" y="62"/>
      <point x="281" y="62" type="curve" smooth="yes"/>
      <point x="357" y="62"/>
      <point x="423" y="124"/>
    </contour>
    <contour>
      <point x="310" y="743" type="line"/>
      <point x="421" y="598" type="line"/>
      <point x="369" y="590" type="line"/>
      <point x="281" y="674" type="line"/>
      <point x="193" y="589" type="line"/>
      <point x="144" y="598" type="line"/>
      <point x="253" y="743" type="line"/>
    </contour>
  </outline>
</glyph>
<glyph name="otilde" format="1">
  <advance width="566"/>
  <unicode hex="00F5"/>
  <outline>
    <contour>
      <point x="522" y="259" type="curve"/>
      <point x="522" y="85"/>
      <point x="410" y="-10"/>
      <point x="281" y="-10" type="curve" smooth="yes"/>
      <point x="147" y="-10"/>
      <point x="40" y="85"/>
      <point x="40" y="259" type="curve"/>
      <point x="40" y="432"/>
      <point x="152" y="527"/>
      <point x="281" y="527" type="curve"/>
      <point x="415" y="527"/>
      <point x="522" y="432"/>
    </contour>
    <contour>
      <point x="423" y="259" type="curve"/>
      <point x="423" y="393"/>
      <point x="357" y="455"/>
      <point x="281" y="455" type="curve"/>
      <point x="205" y="455"/>
      <point x="139" y="393"/>
      <point x="139" y="259" type="curve"/>
      <point x="139" y="124"/>
      <point x="204" y="62"/>
      <point x="281" y="62" type="curve" smooth="yes"/>
      <point x="357" y="62"/>
      <point x="423" y="124"/>
    </contour>
    <contour>
      <point x="137" y="624" type="line"/>
      <point x="139" y="699"/>
      <point x="178" y="731"/>
      <point x="226" y="732" type="curve" smooth="yes" name="hr01"/>
      <point x="250" y="732"/>
      <point x="272" y="724"/>
      <point x="290" y="708" type="curve" smooth="yes"/>
      <point x="308" y="692"/>
      <point x="318" y="676"/>
      <point x="344" y="676" type="curve" smooth="yes"/>
      <point x="362" y="676"/>
      <point x="372" y="697"/>
      <point x="375" y="734" type="curve"/>
      <point x="428" y="728" type="line"/>
      <point x="424" y="644"/>
      <point x="382" y="620"/>
      <point x="344" y="620" type="curve" smooth="yes"/>
      <point x="318" y="620"/>
      <point x="296" y="627"/>
      <point x="279" y="643" type="curve" smooth="yes"/>
      <point x="260" y="659"/>
      <point x="250" y="676"/>
      <point x="227" y="676" type="curve" smooth="yes"/>
      <point x="210" y="676"/>
      <point x="195" y="660"/>
      <point x="192" y="618" type="curve"/>
    </contour>
  </outline>
</glyph>
